<?xml version="1.0" encoding="utf-8"?>
<!-- Generator: Adobe Illustrator 15.1.0, SVG Export Plug-In . SVG Version: 6.00 Build 0)  -->
<!DOCTYPE svg PUBLIC "-//W3C//DTD SVG 1.1//EN" "http://www.w3.org/Graphics/SVG/1.1/DTD/svg11.dtd">
<svg version="1.1" id="Layer_1" xmlns="http://www.w3.org/2000/svg" xmlns:xlink="http://www.w3.org/1999/xlink" x="0px" y="0px"
	 width="8.928px" height="9.406px" viewBox="0 0 8.928 9.406" enable-background="new 0 0 8.928 9.406" xml:space="preserve">
<g>
	<path fill="#231F20" d="M8.873,7.71c-0.07,0.253-0.242,0.571-0.517,0.953S7.673,9.236,7.13,9.236c-0.268,0-0.508-0.08-0.721-0.239
		c-0.213-0.159-0.394-0.35-0.542-0.569C5.72,8.207,5.587,7.982,5.47,7.752C5.198,8.146,4.916,8.454,4.623,8.677
		S4.029,9.056,3.72,9.145C3.41,9.233,3.087,9.278,2.749,9.278c-0.511,0-0.934-0.121-1.269-0.362S0.899,8.369,0.742,7.998
		c-0.157-0.37-0.235-0.74-0.235-1.11c0-0.689,0.194-1.236,0.583-1.642c0.389-0.406,0.813-0.73,1.272-0.975
		c-0.375-0.22-0.646-0.482-0.815-0.787s-0.253-0.581-0.253-0.83c0-0.402,0.147-0.745,0.443-1.026s0.609-0.494,0.942-0.64
		c0.333-0.146,0.535-0.218,0.605-0.218c0.056,0,0.141,0.029,0.253,0.088c0.113,0.059,0.242,0.135,0.387,0.229
		c0.146,0.094,0.249,0.166,0.31,0.218c0.164,0.127,0.294,0.294,0.39,0.503c0.096,0.208,0.144,0.425,0.144,0.65
		c0,0.211-0.023,0.363-0.07,0.457S4.5,3.182,4.247,3.436c-0.061,0.079-0.148,0.177-0.26,0.291C3.874,3.842,3.769,3.951,3.67,4.054
		c0.356,0.179,0.636,0.344,0.84,0.496c0.204,0.152,0.408,0.374,0.611,0.664C5.326,5.505,5.557,5.92,5.815,6.459
		C5.838,6.407,5.913,6.262,6.04,6.022c0.126-0.239,0.197-0.377,0.211-0.415c0.164-0.318,0.334-0.718,0.51-1.198
		s0.28-0.878,0.312-1.192C7.013,3.128,6.944,3.052,6.87,2.988C6.794,2.926,6.656,2.85,6.455,2.76l0.099-0.231
		C6.802,2.612,7.112,2.687,7.485,2.75C7.857,2.812,8.18,2.854,8.451,2.873L8.424,3.104C8.208,3.114,8.047,3.149,7.942,3.21
		c-0.105,0.062-0.21,0.181-0.313,0.358C7.526,3.747,7.374,4.061,7.172,4.511c-0.066,0.15-0.157,0.355-0.274,0.615
		C6.78,5.387,6.667,5.64,6.557,5.886c-0.11,0.246-0.212,0.456-0.306,0.629C6.185,6.637,6.136,6.726,6.103,6.782
		C6.07,6.838,6.047,6.883,6.033,6.916c0.126,0.332,0.27,0.637,0.429,0.914c0.159,0.276,0.329,0.499,0.51,0.668
		c0.18,0.168,0.357,0.253,0.531,0.253c0.319,0,0.63-0.279,0.935-0.837c0.107-0.178,0.171-0.28,0.189-0.306
		c0.02-0.026,0.052-0.039,0.099-0.039c0.032,0,0.065,0.013,0.099,0.039C8.857,7.634,8.873,7.668,8.873,7.71z M5.288,7.38
		c0-0.005-0.01-0.026-0.028-0.063s-0.03-0.059-0.035-0.063C4.971,6.69,4.75,6.251,4.56,5.935C4.37,5.618,4.126,5.337,3.829,5.091
		C3.531,4.845,3.157,4.643,2.707,4.482C2.196,4.83,1.843,5.133,1.649,5.394c-0.195,0.26-0.292,0.587-0.292,0.98
		c0,0.651,0.135,1.146,0.404,1.48S2.314,8.4,2.612,8.487c0.297,0.087,0.54,0.13,0.728,0.13C4.108,8.617,4.758,8.205,5.288,7.38z
		 M4.106,2.711c0-0.192-0.067-0.392-0.201-0.598c-0.133-0.206-0.305-0.376-0.513-0.51s-0.423-0.2-0.644-0.2
		c-0.253,0-0.486,0.117-0.699,0.352c-0.213,0.234-0.32,0.442-0.32,0.626c0,0.238,0.14,0.501,0.418,0.787s0.658,0.509,1.136,0.668
		c0.239-0.122,0.436-0.28,0.59-0.475C4.029,3.167,4.106,2.95,4.106,2.711z"/>
</g>
</svg>
