<?xml version="1.0" encoding="utf-8"?>
<!-- Generator: Adobe Illustrator 22.0.1, SVG Export Plug-In . SVG Version: 6.00 Build 0)  -->
<svg version="1.1" id="Lager_1" xmlns="http://www.w3.org/2000/svg" xmlns:xlink="http://www.w3.org/1999/xlink" x="0px" y="0px"
	 viewBox="0 0 291.8 111.8" style="enable-background:new 0 0 291.8 111.8;" xml:space="preserve">
<style type="text/css">
	.st0{clip-path:url(#SVGID_2_);}
	.st1{fill:#FFFFFF;}
</style>
<g>
	<defs>
		<polygon id="SVGID_1_" points="-1,106.1 290.9,112 292.9,-2.4 4,1.2 		"/>
	</defs>
	<clipPath id="SVGID_2_">
		<use xlink:href="#SVGID_1_"  style="overflow:visible;"/>
	</clipPath>
	<g class="st0">
		<path class="st1" d="M71.3,32.9c2,0.9,3.6,2.5,4.7,5c1.1,2.4,1.7,5.3,1.7,8.6c0,7.3-2.3,14.2-6.9,20.8
			c-5.9,8.4-13.1,12.6-21.5,12.6c-2.1,0-4-0.3-5.7-0.9c-1-0.4-2-0.8-3.1-1.4c-3.2,0.6-5.7,0.8-7.6,0.4c-3.4-0.7-5.1-1.9-5.1-3.5
			c0-0.3,0.1-0.6,0.2-0.9c0.3-1,1.3-1.5,2.9-1.5c1,0,2,0.2,3.1,0.5c0.8,0.2,2.7,1.3,5.8,3.2c2.3-1,4.3-2.4,6.1-4.3
			c0.9-1,2.1-2.4,3.5-4.2c-1-0.4-1.8-1-2.5-1.7c-1.8,0.9-3.5,1.4-5,1.4c-3,0-4.5-1.8-4.5-5.5c0-4.8,2.4-10.2,7.1-16.4
			c2.9-3.8,6.3-6.9,10.4-9.3C59,33.3,63,32,66.6,32C68.3,32,69.9,32.3,71.3,32.9z M38.3,76.3c-1.7-1.1-2.6-1.7-2.7-1.7
			c-0.9-0.6-1.7-1-2.5-1.2c-0.9-0.2-1.6-0.4-2.3-0.4c-1.4,0-2.2,0.5-2.2,1.4c0,1.1,1.1,2,3.4,2.6C33.7,77.4,35.8,77.2,38.3,76.3z
			 M71.3,41.8c0.4,0.2,0.3,0.5-0.3,0.8c-2,1.4-3.5,2.9-4.7,4.5c-0.8,1.2-1.8,3.1-3.1,5.7c-1.3,2.6-2.2,4.8-2.8,6.4
			c-0.4,1.2-1.1,3.1-2.2,5.7c1-0.6,1.8-1.2,2.6-2c0.7-0.6,1.2-0.8,1.4-0.4c0.2,0.3,0,0.7-0.5,1.3c-1.2,1.2-2.6,2.2-4.4,3
			c-1.1,2-2.4,3.6-3.9,4.9c-2.7,2.4-6.4,4.2-11,5.4c2.1,1.1,4,1.7,5.7,1.7c3,0,6.3-1.1,9.7-3.4c4.2-2.7,7.9-6.7,11.2-11.9
			c4.4-7.1,6.6-13.6,6.6-19.4c0-4.9-1.7-8.2-5-9.8c-1.3-0.6-2.8-1-4.5-1c-3.5,0-7.3,1.3-11.4,3.8c-3.9,2.4-7.2,5.5-9.8,9.1
			c-4.3,5.9-6.4,11.1-6.4,15.5c0,2.8,1.1,4.2,3.3,4.2c1.3,0,2.7-0.5,4.3-1.4c-0.9-1.3-1.4-3-1.4-5c0-2.8,0.9-6,2.7-9.4
			c1.4-2.7,3.3-5.2,5.6-7.3c2.3-2.2,4.3-3.2,5.9-3.2c1.8,0,2.6,1.2,2.6,3.6c0,3.4-2,8.1-6.1,14.2c-2.2,3.2-4.6,5.7-7.4,7.4
			c0.6,0.5,1.3,0.9,2.3,1.2c4-5.3,8.7-11.6,14.3-18.9c2.1-2.4,4-4.2,5.8-5.2C70.7,41.6,71,41.6,71.3,41.8z M58.4,40.9
			c-1.3,0-3,1-5.1,3c-2.1,2-3.8,4.4-5.2,7.3S46,56.8,46,59.4c0,1.9,0.4,3.4,1.2,4.6c3.3-2,6.1-5,8.5-8.8c3.1-4.9,4.7-8.8,4.7-11.6
			C60.3,41.8,59.7,40.9,58.4,40.9z"/>
		<path class="st1" d="M92,65c-1.7,2.1-4.2,5-7.4,8.8c-3.5,3.6-6.2,5.3-8,5.3c-0.4,0-0.8-0.1-1.1-0.2c-1.1-0.4-1.6-1.3-1.6-2.6
			c0-1.6,0.7-3.3,2-5.2c0.2-0.3,1.2-1.6,2.9-3.8c1.2-1.5,1.7-2.4,1.7-2.8c0-0.2-0.1-0.2-0.4-0.2c-0.2,0-0.8,0.2-1.5,0.5
			c-0.8,0.3-1.4,0.5-1.7,0.5c-0.6,0-1-0.4-1-1.1c0-0.8,0.4-1.8,1.1-2.9c1.4-2.2,2.5-3.1,3.3-2.8c0.3,0.2,0.5,0.5,0.5,1
			c0,0.6-0.2,1.2-0.7,1.8c-0.8,1-1.1,1.7-1,1.9c0.1,0.1,0.9-0.2,2.5-0.8c1.1-0.5,1.9-0.7,2.4-0.7c0.9,0,1.4,0.5,1.4,1.4
			c0,1-0.5,2.1-1.4,3.2c-3,3.7-5.1,6.5-6.4,8.5c-1,1.4-1.4,2.4-1.4,3c0,0.5,0.3,0.8,0.8,0.8c1.7,0,4.6-2.4,8.8-7.1
			c1.8-2.2,3.6-4.4,5.6-6.8c0.1-0.1,0.2-0.2,0.4-0.2c0.3,0,0.5,0.1,0.5,0.4C92.2,64.7,92.1,64.8,92,65z"/>
		<path class="st1" d="M108.9,64.7c-0.6,1-3,3.9-7.1,8.5c-3.6,4-6.4,6-8.2,6c-1.5,0-2.2-1.1-2.2-3.3c0-0.8,0.1-1.6,0.4-2.5
			c-1.8,2.1-2.9,3.3-3.1,3.6c-1.5,1.5-2.8,2.3-3.8,2.3c-0.9,0-1.6-0.5-2.2-1.4c-0.4-0.8-0.7-1.6-0.7-2.6c0-1.7,0.6-3.5,1.8-5.3
			c1.6-2.3,3.5-4.4,5.8-6.2c2.4-2,4.5-2.9,6.1-2.9c1.5,0,2.2,0.7,2.3,2.2c0.5-0.6,0.8-1,1-1.2c0.2-0.2,0.4-0.3,0.6-0.2
			c0.9,0.4,1.7,0.4,2.3,0.1c0.3-0.1,0.5-0.1,0.6-0.1c0.2,0.1,0.2,0.2,0.1,0.5c-0.9,1.3-2.5,3.9-4.9,7.6c-2.8,4.5-4.3,7.1-4.3,7.9
			c0,0.5,0.2,0.7,0.6,0.7c1.2,0,3.6-1.9,7.2-5.6c3.7-4,6-6.7,6.9-8.2c0.2-0.2,0.4-0.3,0.7-0.2C109,64.3,109.1,64.5,108.9,64.7z
			 M95.8,61.8c-1.7,0-4.3,2.6-7.7,7.7c-2.5,3.7-3.8,6.3-3.8,7.8c0,0.6,0.3,0.9,0.9,0.9c1.4,0,3.8-2.4,7.3-7.2c2.9-4,4.4-6.6,4.4-7.8
			C96.9,62.2,96.5,61.8,95.8,61.8z"/>
		<path class="st1" d="M136.8,64.2c0.4,0.1,0.4,0.4,0,0.8c-1.3,1.6-3.5,4.2-6.8,7.9c-2.1,2.2-3.6,3.7-4.6,4.5
			c-1.8,1.4-3.2,2-4.2,1.7c-1.2-0.2-1.8-1.1-1.8-2.7c0-1.3,0.4-2.6,1.1-3.9c0.2-0.4,1.5-2.2,3.8-5.5c1.9-2.6,2.8-4.2,2.8-4.7
			c0-0.1,0-0.2-0.1-0.2c-0.6-0.2-1.9,0.5-3.9,2.3c-2.1,1.9-4,3.9-5.6,6.2c-1.1,1.6-2.2,3.3-3.2,4.9c-1.7,2.4-2.8,3.5-3.1,3.2
			c-0.2-0.1-0.6-0.2-1.2-0.2c-0.6,0-1,0.1-1.3,0.2c-0.2,0.1-0.4,0-0.4-0.1c0-0.2,0.1-0.4,0.2-0.7c1.3-2,3-4.6,5.1-7.7
			c2.8-3.9,4.1-6.4,4.1-7.4c0-0.2-0.1-0.2-0.2-0.2c-0.5-0.2-1.8,0.5-3.9,2.2c-2.2,1.8-4.2,3.9-5.8,6c-1.7,2.2-3.4,4.7-5.3,7.6
			c-0.3,0.5-0.6,0.6-0.8,0.3c-0.1-0.1-0.5-0.2-1.1-0.1c-0.6,0-1,0.1-1.3,0.2c-0.2,0.1-0.4,0-0.5-0.2c0-0.2,0-0.4,0.2-0.7
			c0.2-0.3,1.9-3.1,5.2-8.3c3.3-5.2,5-7.9,5.2-8.1c0.3-0.4,0.6-0.5,0.9-0.4c0.5,0.2,1.2,0.3,2.1,0.2c0.3,0,0.5,0,0.6,0.1
			c0.1,0.1,0.1,0.3-0.1,0.4c-0.8,1-1.7,2.6-2.9,4.7C110,66.9,110,67,110,67c0,0,0.1,0,0.1,0.1c0.1,0,0.2-0.1,0.4-0.3
			c0.6-0.6,1.8-1.6,3.7-3.2c2.3-1.8,4.2-2.7,5.5-2.7c1.3,0,1.9,0.6,1.9,1.9c0,0.7-0.3,1.7-0.9,2.9c0,0.1,0.1,0.1,0.4,0
			c0.6-0.6,1.8-1.6,3.5-3c1.7-1.2,3.1-1.9,4.2-1.9c1.2,0,1.8,0.7,1.8,2c0,0.9-0.3,1.7-0.8,2.5c-1.6,2.2-3.7,5.1-6.3,8.6
			c-1.2,1.7-1.9,3-1.9,3.8c0,0.4,0.2,0.7,0.6,0.7c1.2,0,3.5-1.9,7-5.6c2.4-2.6,4.8-5.4,7-8.3C136.3,64.2,136.6,64.1,136.8,64.2z"/>
		<path class="st1" d="M156.1,64.7c-0.6,1-3,3.9-7.1,8.5c-3.6,4-6.4,6-8.2,6c-1.5,0-2.2-1.1-2.2-3.3c0-0.8,0.1-1.6,0.4-2.5
			c-1.8,2.1-2.9,3.3-3.1,3.6c-1.5,1.5-2.8,2.3-3.8,2.3c-0.9,0-1.6-0.5-2.2-1.4c-0.4-0.8-0.7-1.6-0.7-2.6c0-1.7,0.6-3.5,1.8-5.3
			c1.6-2.3,3.5-4.4,5.8-6.2c2.4-2,4.5-2.9,6.1-2.9c1.5,0,2.2,0.7,2.3,2.2c0.5-0.6,0.8-1,1-1.2c0.2-0.2,0.4-0.3,0.6-0.2
			c0.9,0.4,1.7,0.4,2.3,0.1c0.3-0.1,0.5-0.1,0.6-0.1c0.2,0.1,0.2,0.2,0.1,0.5c-0.9,1.3-2.5,3.9-4.9,7.6c-2.8,4.5-4.3,7.1-4.3,7.9
			c0,0.5,0.2,0.7,0.6,0.7c1.2,0,3.6-1.9,7.2-5.6c3.7-4,6-6.7,6.9-8.2c0.2-0.2,0.4-0.3,0.7-0.2C156.2,64.3,156.3,64.5,156.1,64.7z
			 M143,61.8c-1.7,0-4.3,2.6-7.7,7.7c-2.5,3.7-3.8,6.3-3.8,7.8c0,0.6,0.3,0.9,0.9,0.9c1.4,0,3.8-2.4,7.3-7.2c2.9-4,4.4-6.6,4.4-7.8
			C144.1,62.2,143.8,61.8,143,61.8z"/>
		<path class="st1" d="M180.6,64.8c-1,2.1-2.4,3.6-4.1,4.6c-0.8,0.5-1.8,0.7-3,0.7c-0.9,0-1.6-0.2-2-0.5c-1.5,2-3,3.6-4.4,5
			c-3.1,3-5.4,4.5-6.7,4.5c-1.6,0-2.3-1-2.3-3.1c0-0.7,0.1-1.5,0.4-2.4c0-0.2,0-0.4,0-0.4c-0.1,0-0.2,0-0.3,0.2
			c-0.8,1-1.7,2.1-2.9,3.3c-1.6,1.6-2.9,2.4-3.9,2.4c-1.6,0-2.4-1-2.4-3.1c0-0.7,0.1-1.5,0.4-2.3c0.4-1.3,1.7-3.6,3.9-6.8
			c1.1-1.6,2.3-3.3,3.4-4.9c0.3-0.5,0.6-0.6,1-0.5c0.6,0.3,1.3,0.3,2.3,0.1c0.3-0.1,0.5-0.1,0.6,0c0.1,0.1,0.1,0.2-0.1,0.5
			c-0.8,1.1-2.6,3.7-5.4,7.7c-2.8,4.1-4.2,6.6-4.2,7.5c0,0.6,0.2,0.8,0.7,0.8c1.4,0,4.1-2.7,8.2-8.1c1.9-2.7,3.9-5.5,6-8.4
			c0.2-0.3,0.5-0.4,0.8-0.3c0.6,0.2,1.5,0.2,2.6,0c0.3-0.1,0.5-0.1,0.6,0c0.1,0.1,0.1,0.2-0.1,0.4c-1,1.5-2.7,4.1-5.2,7.6
			c-3.1,4.3-4.6,7.1-4.6,8.3c0,0.5,0.2,0.7,0.7,0.7c1.4,0,3.8-1.9,7.1-5.7c0.8-0.8,1.7-2,2.7-3.4c0.2-0.3,0.3-0.5,0.2-0.7
			c-0.2-0.4-0.3-1.2-0.1-2.3c0.1-1,0.3-1.7,0.7-2.3c1-2.1,2.1-3.1,3.1-3.1c0.7,0,1,0.4,1,1.3c0,0.9-0.4,2-1.3,3.5
			c-0.5,0.8-1.1,1.8-1.9,2.9c0.3,0.3,0.8,0.4,1.4,0.4c1.1,0,2.1-0.4,3.2-1.1c1.3-0.9,2.3-2.1,3.1-3.7c0.2-0.4,0.4-0.5,0.7-0.3
			C180.7,64.3,180.7,64.5,180.6,64.8z"/>
		<path class="st1" d="M194,64.7c-2,2.7-4.3,5.3-6.8,7.8c-4.5,4.5-8.1,6.7-10.9,6.7c-1.1,0-2-0.4-2.6-1.1c-0.7-0.8-1-1.7-1-2.8
			c0-2,0.9-4.1,2.8-6.5c1.7-2.2,3.6-4,5.8-5.5c2.2-1.5,4-2.2,5.6-2.2c1.6,0,2.5,0.7,2.5,2.2c0,1.8-1.1,3.5-3.2,5.2
			c-2.7,2.1-5.5,3.2-8.5,3.4c-1.4,2.4-2.1,4.3-2.1,5.5c0,0.8,0.3,1.2,1,1.2c1,0,2.5-0.6,4.4-1.9c2-1.3,3.9-2.9,5.9-4.9
			c1.8-1.8,3.3-3.5,4.6-5.2c0.6-0.7,1.1-1.4,1.7-2.2c0.1-0.1,0.3-0.2,0.5-0.1C194,64.3,194.1,64.4,194,64.7z M187.1,61.8
			c-1.2,0-2.8,1.2-4.9,3.5c-1.6,1.8-3,3.7-4.1,5.5c2,0,4.4-1.4,7.3-4.3c1.7-1.6,2.5-3,2.5-4C187.9,62.1,187.6,61.8,187.1,61.8z"/>
		<path class="st1" d="M217,40.4c0,2.6-2.2,6.4-6.6,11.2c-5.2,5.7-9.5,9.5-13.1,11.5c-4.7,8.2-7.1,13.2-7.1,14.8
			c0,0.4,0.3,0.7,0.8,0.7c0.8,0,2-0.5,3.4-1.6c1.4-1.1,2.8-2.6,4.1-4.5c0.4-0.6,0.8-1.1,1.1-1.7c-0.7-0.8-1.1-1.9-1.1-3.2
			c0-1.3,0.3-2.5,0.8-3.6c0.7-1.4,1.7-2,2.8-2c1.5,0,2.2,0.9,2.2,2.8c0,1.8-0.7,3.9-2.2,6.3c1.6,0.1,3.2-0.5,4.8-1.7
			c1.1-0.9,2.4-2.5,3.9-4.7c0.2-0.3,0.5-0.4,0.7-0.3c0.3,0.1,0.4,0.4,0.1,0.8c-1,1.9-2.4,3.5-4.1,4.9c-1.9,1.6-3.9,2.3-5.9,2
			c-1.2,1.9-2.8,3.6-4.6,5c-2.2,1.7-4.2,2.5-6.2,2.5c-2.1,0-3.1-1.1-3.1-3.4c0-3.4,3-9.2,8.9-17.6c3.6-5.1,7.2-9.5,10.9-13.4
			c3.9-4.2,6.6-6.3,8.1-6.3C216.5,38.7,217,39.3,217,40.4z M214.5,40.3c-0.9-0.7-3.8,2.5-8.8,9.6c-3.4,4.9-5.9,8.8-7.6,11.7
			c3.5-2.3,6.8-5.3,9.7-9.2c4.6-5.8,6.9-9.7,6.9-11.5C214.7,40.7,214.7,40.4,214.5,40.3z M202.1,62.5c-1,0-1.8,1-2.4,2.9
			c-0.5,1.8-0.4,3.3,0.4,4.4c1.8-3.1,2.8-5.3,2.8-6.5C202.9,62.8,202.6,62.5,202.1,62.5z"/>
		<path class="st1" d="M235,40.4c0,2.6-2.2,6.4-6.6,11.2c-5.2,5.7-9.5,9.5-13.1,11.5c-4.7,8.2-7.1,13.2-7.1,14.8
			c0,0.4,0.3,0.7,0.8,0.7c0.8,0,2-0.5,3.4-1.6c1.4-1.1,2.8-2.6,4.1-4.5c0.4-0.6,0.8-1.1,1.1-1.7c-0.7-0.8-1.1-1.9-1.1-3.2
			c0-1.3,0.3-2.5,0.8-3.6c0.7-1.4,1.7-2,2.8-2c1.5,0,2.2,0.9,2.2,2.8c0,1.8-0.7,3.9-2.2,6.3c1.6,0.1,3.2-0.5,4.8-1.7
			c1.1-0.9,2.4-2.5,3.9-4.7c0.2-0.3,0.5-0.4,0.7-0.3c0.3,0.1,0.4,0.4,0.1,0.8c-1,1.9-2.4,3.5-4.1,4.9c-1.9,1.6-3.9,2.3-5.9,2
			c-1.2,1.9-2.8,3.6-4.6,5c-2.2,1.7-4.2,2.5-6.2,2.5c-2.1,0-3.1-1.1-3.1-3.4c0-3.4,3-9.2,8.9-17.6c3.6-5.1,7.2-9.5,10.9-13.4
			c3.9-4.2,6.6-6.3,8.1-6.3C234.5,38.7,235,39.3,235,40.4z M232.5,40.3c-0.9-0.7-3.8,2.5-8.8,9.6c-3.4,4.9-5.9,8.8-7.6,11.7
			c3.5-2.3,6.8-5.3,9.7-9.2c4.6-5.8,6.9-9.7,6.9-11.5C232.7,40.7,232.7,40.4,232.5,40.3z M220.1,62.5c-1,0-1.8,1-2.4,2.9
			c-0.5,1.8-0.4,3.3,0.4,4.4c1.8-3.1,2.8-5.3,2.8-6.5C220.9,62.8,220.6,62.5,220.1,62.5z"/>
		<path class="st1" d="M243.1,64.7c-2,2.7-4.3,5.3-6.8,7.8c-4.5,4.5-8.1,6.7-10.9,6.7c-1.1,0-2-0.4-2.6-1.1c-0.7-0.8-1-1.7-1-2.8
			c0-2,0.9-4.1,2.8-6.5c1.7-2.2,3.6-4,5.8-5.5c2.2-1.5,4-2.2,5.6-2.2c1.6,0,2.5,0.7,2.5,2.2c0,1.8-1.1,3.5-3.2,5.2
			c-2.7,2.1-5.5,3.2-8.5,3.4c-1.4,2.4-2.1,4.3-2.1,5.5c0,0.8,0.3,1.2,1,1.2c1,0,2.5-0.6,4.4-1.9c2-1.3,3.9-2.9,5.9-4.9
			c1.8-1.8,3.3-3.5,4.6-5.2c0.6-0.7,1.1-1.4,1.7-2.2c0.1-0.1,0.3-0.2,0.5-0.1C243.2,64.3,243.3,64.4,243.1,64.7z M236.2,61.8
			c-1.2,0-2.8,1.2-4.9,3.5c-1.6,1.8-3,3.7-4.1,5.5c2,0,4.4-1.4,7.3-4.3c1.7-1.6,2.5-3,2.5-4C237,62.1,236.7,61.8,236.2,61.8z"/>
		<path class="st1" d="M261.8,64.9c-1.5,2.2-3.9,5-7.1,8.4c-3.8,4.1-6.6,6.1-8.3,6.1c-0.8,0-1.5-0.3-2-1c-0.5-0.6-0.8-1.4-0.8-2.2
			c0-1.3,0.5-2.7,1.6-4.3c0.2-0.4,1.5-2.2,4-5.5c1.7-2.3,2.6-3.7,2.6-4.1c0-0.2-0.1-0.3-0.3-0.3c-0.7,0-2,0.8-4,2.3
			c-2,1.6-3.8,3.3-5.5,5.3c-2,2.4-3.9,5.2-5.7,8.5c-0.3,0.5-0.6,0.6-0.9,0.5c-0.6-0.4-1.4-0.4-2.2-0.1c-0.4,0.2-0.6,0.2-0.6,0
			c0-0.1,0-0.3,0.2-0.7c0.9-1.7,4.3-7,10.1-15.9c0.2-0.4,0.6-0.5,1-0.3c0.6,0.2,1.3,0.1,2.2-0.2c0.3-0.1,0.5-0.1,0.6,0.1
			c0,0.1,0,0.3-0.2,0.5c-0.6,0.8-1.5,2.2-2.7,4.3c-0.1,0.2-0.1,0.2,0,0.2c0.1,0,0.2-0.2,0.5-0.4c1.2-1.2,2.7-2.4,4.3-3.5
			c1.6-1.1,3-1.7,4.3-1.7c1.2,0,1.7,0.6,1.7,1.7c0,1.4-0.7,3-2.1,4.7c-2.1,2.5-4,5.1-5.8,8c-0.6,1-1,1.8-1,2.4
			c0,0.4,0.2,0.7,0.5,0.8c1,0.4,3.5-1.6,7.5-5.9c3.4-3.7,5.7-6.4,6.9-8.2c0.2-0.3,0.4-0.4,0.7-0.4c0.2,0,0.3,0.1,0.4,0.2
			C262,64.5,262,64.7,261.8,64.9z"/>
	</g>
</g>
<g>
</g>
<g>
</g>
<g>
</g>
<g>
</g>
<g>
</g>
<g>
</g>
</svg>
