<?xml version="1.0" encoding="utf-8"?>
<!-- Generator: Adobe Illustrator 15.1.0, SVG Export Plug-In . SVG Version: 6.00 Build 0)  -->
<!DOCTYPE svg PUBLIC "-//W3C//DTD SVG 1.1//EN" "http://www.w3.org/Graphics/SVG/1.1/DTD/svg11.dtd">
<svg version="1.1" id="Layer_1" xmlns="http://www.w3.org/2000/svg" xmlns:xlink="http://www.w3.org/1999/xlink" x="0px" y="0px"
	 width="73.333px" height="52px" viewBox="0 0 73.333 52" enable-background="new 0 0 73.333 52" xml:space="preserve">
<g>
	<rect fill="none" width="73.333" height="52"/>
	<path d="M24.703,39.552h-9.384c0.078-0.844,0.14-1.648,0.187-2.414c0.046-0.766,0.093-1.383,0.14-1.852
		c-1.619,2.844-3.79,4.266-6.513,4.266c-2.365,0-4.241-1.14-5.625-3.42c-1.37-2.265-2.054-5.4-2.054-9.405
		c0-3.87,0.711-6.916,2.133-9.136c1.422-2.25,3.359-3.375,5.812-3.375c2.516,0,4.547,1.336,6.094,4.008
		c-0.031-0.312-0.055-0.586-0.07-0.82s-0.031-0.43-0.047-0.586l-0.094-1.477l-0.07-1.125h9.492V39.552z M15.281,26.612
		c0-0.869-0.036-1.607-0.106-2.216c-0.071-0.608-0.186-1.104-0.344-1.488s-0.363-0.659-0.616-0.825
		c-0.253-0.167-0.561-0.25-0.924-0.25c-1.611,0-2.416,1.962-2.416,5.887c0,2.81,0.719,4.214,2.156,4.214
		C14.531,31.935,15.281,30.161,15.281,26.612z"/>
	<path d="M58.427,39.552H48.325l-0.727-4.594h-6.586l-0.797,4.594H30.114L38.81,3.364h11.953L58.427,39.552z M46.45,27.341
		l-0.633-4.219c-0.016-0.016-0.047-0.227-0.094-0.633c-0.031-0.344-0.195-1.703-0.492-4.078c-0.031-0.266-0.07-0.629-0.117-1.09
		s-0.109-1.043-0.188-1.746l-0.305-3.422c-0.031,0.328-0.074,0.695-0.129,1.102s-0.113,0.852-0.176,1.336
		c-0.109,0.969-0.188,1.641-0.234,2.016s-0.078,0.602-0.094,0.68l-0.68,4.383l-0.984,5.672H46.45z"/>
</g>
<g>
</g>
</svg>
