<?xml version="1.0" encoding="utf-8"?>
<!-- Generator: Adobe Illustrator 15.1.0, SVG Export Plug-In . SVG Version: 6.00 Build 0)  -->
<!DOCTYPE svg PUBLIC "-//W3C//DTD SVG 1.1//EN" "http://www.w3.org/Graphics/SVG/1.1/DTD/svg11.dtd">
<svg version="1.1" id="Layer_1" xmlns="http://www.w3.org/2000/svg" xmlns:xlink="http://www.w3.org/1999/xlink" x="0px" y="0px"
	 width="128.429px" height="24.075px" viewBox="0 0 128.429 24.075" enable-background="new 0 0 128.429 24.075"
	 xml:space="preserve">
<g enable-background="new    ">
	<path d="M5.875,22.957c-0.055-0.008-0.112-0.015-0.173-0.021s-0.113-0.01-0.158-0.012s-0.147-0.003-0.308-0.003H4.779
		c-0.422,0-0.766,0.012-1.031,0.035v-0.205c0.043-0.012,0.108-0.023,0.196-0.035s0.157-0.024,0.208-0.038s0.076-0.032,0.076-0.056
		c0-0.039-0.062-0.134-0.188-0.284s-0.227-0.265-0.305-0.343c-0.32-0.324-0.611-0.611-0.873-0.861l-0.387-0.352
		c-0.027-0.031-0.085-0.083-0.173-0.155s-0.146-0.108-0.173-0.108c-0.066,0-0.1,0.068-0.1,0.205v0.627
		c0,0.367,0.003,0.63,0.009,0.788s0.019,0.275,0.038,0.352s0.053,0.124,0.1,0.144c0.094,0.039,0.281,0.078,0.562,0.117l-0.012,0.205
		c-0.203-0.031-0.451-0.047-0.744-0.047c-0.434,0-0.9,0.016-1.4,0.047v-0.193c0.184-0.02,0.321-0.048,0.413-0.085
		s0.158-0.094,0.199-0.17s0.067-0.175,0.079-0.296c0.031-0.27,0.053-0.705,0.064-1.307s0.021-1.196,0.026-1.784
		s0.009-1.05,0.009-1.386c0-0.871-0.037-1.443-0.111-1.717c-0.055-0.168-0.146-0.252-0.275-0.252c-0.062,0-0.132,0.014-0.208,0.041
		s-0.134,0.051-0.173,0.07l0.012-0.193c0.031-0.02,0.079-0.046,0.144-0.079s0.119-0.061,0.164-0.082s0.105-0.05,0.182-0.085
		s0.149-0.068,0.22-0.1c0.246-0.105,0.426-0.188,0.539-0.249s0.197-0.13,0.252-0.208h0.176c-0.043,0.141-0.081,0.411-0.114,0.812
		s-0.059,0.852-0.076,1.354s-0.031,0.982-0.041,1.441S2.047,19.285,2.043,19.5l-0.012,0.803c0.078-0.027,0.253-0.131,0.524-0.311
		s0.511-0.366,0.718-0.56s0.311-0.351,0.311-0.472c0-0.16-0.145-0.248-0.434-0.264v-0.17h0.539c0.137,0,0.265,0.001,0.384,0.003
		s0.251,0.005,0.396,0.009c0.199,0,0.414-0.002,0.645-0.006s0.34-0.006,0.328-0.006l-0.023,0.217
		c-0.246,0.023-0.478,0.083-0.694,0.179s-0.526,0.276-0.929,0.542l-1.008,0.674c0.074,0.07,0.216,0.205,0.425,0.404
		s0.577,0.561,1.104,1.084c0.301,0.285,0.516,0.484,0.645,0.598s0.262,0.214,0.398,0.302s0.235,0.144,0.296,0.167
		s0.134,0.043,0.22,0.059V22.957z"/>
	<path d="M10.422,22.635L9.56,22.98c-0.129,0.055-0.227,0.082-0.293,0.082c-0.094,0-0.184-0.058-0.27-0.173
		s-0.156-0.257-0.211-0.425c-0.719,0.398-1.273,0.598-1.664,0.598c-0.48,0-0.721-0.275-0.721-0.826c0-0.266,0.032-0.463,0.097-0.592
		s0.169-0.23,0.313-0.305c0.293-0.148,0.604-0.259,0.932-0.331s0.672-0.134,1.031-0.185l0.029-0.721
		c0.004-0.051,0.006-0.119,0.006-0.205c0-0.195-0.018-0.343-0.053-0.442s-0.096-0.192-0.182-0.278
		c-0.23-0.23-0.471-0.346-0.721-0.346c-0.121,0-0.243,0.034-0.366,0.103s-0.185,0.165-0.185,0.29c0,0.062,0.02,0.146,0.059,0.252
		l-0.721,0.322c-0.031-0.125-0.047-0.217-0.047-0.275c0-0.199,0.122-0.384,0.366-0.554s0.52-0.308,0.826-0.413
		s0.521-0.158,0.642-0.158c0.105,0,0.233,0.045,0.384,0.135s0.278,0.184,0.384,0.281c0.074,0.074,0.136,0.151,0.185,0.231
		s0.091,0.202,0.126,0.366s0.053,0.373,0.053,0.627c0,0.074-0.01,0.336-0.029,0.785l-0.023,0.439
		c-0.004,0.125-0.008,0.225-0.012,0.299s-0.008,0.143-0.012,0.205c0,0.16,0.021,0.332,0.062,0.516s0.13,0.275,0.267,0.275
		c0.16,0,0.363-0.055,0.609-0.164V22.635z M7.697,17.004c0,0.113-0.042,0.216-0.126,0.308s-0.19,0.138-0.319,0.138
		c-0.125,0-0.232-0.045-0.322-0.135s-0.135-0.193-0.135-0.311c0-0.121,0.044-0.228,0.132-0.319s0.196-0.138,0.325-0.138
		c0.133,0,0.24,0.046,0.322,0.138S7.697,16.883,7.697,17.004z M8.787,21.146c-0.055-0.004-0.135-0.006-0.24-0.006
		c-0.441,0-0.797,0.078-1.066,0.234s-0.404,0.344-0.404,0.562c0,0.176,0.048,0.342,0.144,0.498s0.228,0.234,0.396,0.234
		c0.188,0,0.566-0.141,1.137-0.422c-0.004-0.035-0.006-0.1-0.006-0.193C8.746,21.832,8.76,21.529,8.787,21.146z M9.56,17.004
		c0,0.117-0.045,0.221-0.135,0.311s-0.197,0.135-0.322,0.135c-0.121,0-0.226-0.044-0.313-0.132s-0.132-0.192-0.132-0.313
		c0-0.125,0.045-0.232,0.135-0.322s0.193-0.135,0.311-0.135c0.129,0,0.237,0.046,0.325,0.138S9.56,16.883,9.56,17.004z"/>
	<path d="M15.918,22.969c-0.242-0.039-0.582-0.059-1.02-0.059c-0.402,0-0.795,0.02-1.178,0.059v-0.17
		c0.367-0.07,0.588-0.182,0.662-0.334c0.047-0.094,0.08-0.257,0.1-0.489s0.033-0.461,0.041-0.686s0.012-0.429,0.012-0.612
		c0-0.348-0.015-0.632-0.044-0.853s-0.11-0.41-0.243-0.568s-0.34-0.237-0.621-0.237c-0.125,0-0.314,0.025-0.568,0.076
		s-0.553,0.166-0.896,0.346l-0.035,1.57c-0.008,0.43-0.012,0.666-0.012,0.709c0,0.203,0.012,0.408,0.035,0.615
		c0.016,0.133,0.065,0.229,0.149,0.287s0.29,0.105,0.618,0.141l-0.012,0.182c-0.215-0.023-0.543-0.035-0.984-0.035h-1.283
		l-0.012-0.193c0.211-0.039,0.365-0.08,0.463-0.123s0.162-0.092,0.193-0.146s0.053-0.129,0.064-0.223
		c0.031-0.215,0.053-0.479,0.064-0.791s0.018-0.629,0.018-0.949c0-0.449-0.015-0.756-0.044-0.92s-0.092-0.269-0.188-0.313
		s-0.274-0.081-0.536-0.108c0-0.051-0.004-0.088-0.012-0.111c0.145-0.035,0.362-0.115,0.653-0.24s0.444-0.195,0.46-0.211
		c0.004-0.012,0.042-0.035,0.114-0.07s0.122-0.053,0.149-0.053c0.059,0,0.096,0.057,0.111,0.17s0.023,0.301,0.023,0.562
		c0.43-0.242,0.783-0.415,1.061-0.519s0.543-0.155,0.797-0.155c0.379,0,0.655,0.083,0.829,0.249s0.281,0.368,0.322,0.606
		s0.062,0.553,0.062,0.943v1.395c0,0.551,0.025,0.852,0.076,0.902c0.027,0.027,0.127,0.061,0.299,0.1s0.271,0.064,0.299,0.076
		L15.918,22.969z"/>
	<path d="M21.777,22.787c-0.918,0.32-1.414,0.48-1.488,0.48c-0.121,0-0.182-0.314-0.182-0.943c-0.477,0.242-0.829,0.406-1.058,0.492
		s-0.476,0.129-0.741,0.129c-0.281,0-0.562-0.076-0.844-0.229s-0.511-0.374-0.688-0.665s-0.267-0.626-0.267-1.005
		c0-0.52,0.116-0.954,0.349-1.304s0.5-0.613,0.803-0.791s0.592-0.305,0.867-0.381s0.454-0.114,0.536-0.114
		c0.238,0,0.615,0.064,1.131,0.193c0.023-0.434,0.035-0.938,0.035-1.512c0-0.398-0.009-0.69-0.026-0.876s-0.051-0.314-0.1-0.387
		s-0.12-0.108-0.214-0.108c-0.145,0-0.291,0.021-0.439,0.064l-0.012-0.182c0.719-0.297,1.234-0.557,1.547-0.779l0.141,0.059
		c-0.082,0.531-0.141,1.208-0.176,2.03s-0.053,1.409-0.053,1.761c0,0.258-0.008,0.65-0.023,1.178s-0.023,0.924-0.023,1.189
		c0,1.117,0.072,1.676,0.217,1.676c0.082,0,0.318-0.062,0.709-0.188V22.787z M20.142,19.441c0-0.09-0.067-0.171-0.202-0.243
		s-0.283-0.128-0.445-0.167s-0.341-0.072-0.536-0.1s-0.309-0.041-0.34-0.041c-0.25,0-0.487,0.065-0.712,0.196
		s-0.404,0.31-0.539,0.536s-0.202,0.479-0.202,0.756c0,0.43,0.078,0.801,0.234,1.113s0.368,0.551,0.636,0.715
		s0.562,0.246,0.882,0.246c0.227,0,0.433-0.04,0.618-0.12s0.376-0.181,0.571-0.302L20.142,19.441z"/>
	<path d="M26.301,22.635l-0.861,0.346c-0.129,0.055-0.227,0.082-0.293,0.082c-0.094,0-0.184-0.058-0.27-0.173
		s-0.156-0.257-0.211-0.425c-0.719,0.398-1.273,0.598-1.664,0.598c-0.48,0-0.721-0.275-0.721-0.826c0-0.266,0.032-0.463,0.097-0.592
		s0.169-0.23,0.313-0.305c0.293-0.148,0.604-0.259,0.932-0.331s0.672-0.134,1.031-0.185l0.029-0.721
		c0.004-0.051,0.006-0.119,0.006-0.205c0-0.195-0.018-0.343-0.053-0.442s-0.096-0.192-0.182-0.278
		c-0.23-0.23-0.471-0.346-0.721-0.346c-0.121,0-0.243,0.034-0.366,0.103s-0.185,0.165-0.185,0.29c0,0.062,0.02,0.146,0.059,0.252
		l-0.721,0.322c-0.031-0.125-0.047-0.217-0.047-0.275c0-0.199,0.122-0.384,0.366-0.554s0.52-0.308,0.826-0.413
		s0.521-0.158,0.642-0.158c0.105,0,0.233,0.045,0.384,0.135s0.278,0.184,0.384,0.281c0.074,0.074,0.136,0.151,0.185,0.231
		s0.091,0.202,0.126,0.366s0.053,0.373,0.053,0.627c0,0.074-0.01,0.336-0.029,0.785l-0.023,0.439
		c-0.004,0.125-0.008,0.225-0.012,0.299s-0.008,0.143-0.012,0.205c0,0.16,0.021,0.332,0.062,0.516s0.13,0.275,0.267,0.275
		c0.16,0,0.363-0.055,0.609-0.164V22.635z M24.666,21.146c-0.055-0.004-0.135-0.006-0.24-0.006c-0.441,0-0.797,0.078-1.066,0.234
		s-0.404,0.344-0.404,0.562c0,0.176,0.048,0.342,0.144,0.498s0.228,0.234,0.396,0.234c0.188,0,0.566-0.141,1.137-0.422
		c-0.004-0.035-0.006-0.1-0.006-0.193C24.625,21.832,24.638,21.529,24.666,21.146z"/>
	<path d="M34.416,20.677c0,0.406-0.097,0.787-0.29,1.143s-0.467,0.642-0.82,0.858s-0.761,0.325-1.222,0.325
		c-0.348,0-0.706-0.076-1.075-0.229s-0.68-0.397-0.932-0.735s-0.378-0.769-0.378-1.292c0-0.344,0.063-0.655,0.19-0.935
		s0.302-0.521,0.524-0.724s0.482-0.359,0.779-0.469s0.615-0.164,0.955-0.164c0.309,0,0.601,0.057,0.876,0.17s0.517,0.27,0.724,0.469
		s0.37,0.435,0.489,0.706S34.416,20.365,34.416,20.677z M33.625,20.918c0-0.355-0.077-0.702-0.231-1.04s-0.367-0.613-0.639-0.826
		s-0.571-0.319-0.899-0.319c-0.266,0-0.504,0.072-0.715,0.217s-0.376,0.346-0.495,0.604s-0.179,0.545-0.179,0.861
		c0,0.363,0.072,0.725,0.217,1.084s0.347,0.654,0.606,0.885s0.546,0.346,0.858,0.346c0.273,0,0.521-0.075,0.744-0.226
		s0.4-0.364,0.533-0.642S33.625,21.269,33.625,20.918z"/>
</g>
<g enable-background="new    ">
	<path d="M39.179,18.855c0,0.039-0.055,0.141-0.164,0.305s-0.197,0.246-0.264,0.246c-0.031,0-0.075-0.016-0.132-0.047
		s-0.118-0.065-0.185-0.103s-0.102-0.056-0.105-0.056c-0.426-0.176-0.777-0.264-1.055-0.264c-0.793,0-1.189,0.516-1.189,1.547
		c0,0.473,0.104,0.871,0.311,1.195s0.456,0.561,0.747,0.709s0.558,0.223,0.8,0.223c0.203,0,0.392-0.035,0.565-0.105
		s0.362-0.164,0.565-0.281l0.082,0.17c-0.52,0.43-1.055,0.645-1.605,0.645c-0.316,0-0.644-0.065-0.981-0.196s-0.603-0.3-0.794-0.507
		c-0.121-0.145-0.216-0.347-0.284-0.606s-0.103-0.511-0.103-0.753c0-0.488,0.131-0.933,0.393-1.333s0.583-0.712,0.964-0.935
		s0.737-0.334,1.069-0.334c0.199,0,0.477,0.056,0.832,0.167S39.179,18.758,39.179,18.855z"/>
</g>
<g enable-background="new    ">
	<path d="M44.711,22.763l-0.012,0.182h-1.16c-0.102,0-0.184,0.002-0.246,0.006s-0.131,0.01-0.205,0.018s-0.146,0.015-0.217,0.021
		S42.731,23,42.66,23.004l-0.012-0.129c0.023-0.008,0.041-0.014,0.053-0.018s0.043-0.014,0.094-0.029
		c0.133-0.055,0.228-0.122,0.284-0.202s0.097-0.235,0.12-0.466s0.035-0.572,0.035-1.025c0-0.773-0.062-1.325-0.188-1.655
		s-0.41-0.495-0.855-0.495c-0.23,0-0.484,0.043-0.762,0.129s-0.482,0.164-0.615,0.234c0,0.066-0.003,0.132-0.009,0.196
		s-0.011,0.183-0.015,0.354l-0.053,1.412c0,0.09-0.001,0.172-0.003,0.246s-0.005,0.156-0.009,0.246c0,0.379,0.025,0.623,0.076,0.732
		c0.02,0.066,0.066,0.112,0.141,0.138s0.271,0.052,0.592,0.079v0.205c-0.129-0.016-0.402-0.023-0.82-0.023
		c-0.434,0-0.9,0.02-1.4,0.059l0.012-0.193c0.254-0.055,0.422-0.105,0.504-0.152s0.137-0.143,0.164-0.287s0.045-0.396,0.053-0.756
		c0.031-0.953,0.047-1.479,0.047-1.576l0.023-1.641c0.004-0.164,0.007-0.319,0.009-0.466s0.003-0.364,0.003-0.653
		c0-0.527-0.022-0.917-0.067-1.169s-0.155-0.378-0.331-0.378c-0.027,0-0.15,0.031-0.369,0.094v-0.223
		c-0.004,0,0.017-0.011,0.062-0.032s0.081-0.04,0.108-0.056l1.137-0.551l0.193-0.105l0.193,0.094
		c-0.066,0.324-0.115,0.71-0.146,1.157s-0.059,1.05-0.082,1.808l-0.035,1.189c0.461-0.199,0.835-0.346,1.122-0.439
		s0.563-0.141,0.829-0.141c0.375,0,0.648,0.114,0.82,0.343s0.278,0.508,0.319,0.838s0.062,0.765,0.062,1.304
		c0,0.102-0.001,0.194-0.003,0.278s-0.005,0.203-0.009,0.357s-0.009,0.302-0.015,0.442s-0.009,0.238-0.009,0.293
		c0,0.121,0.017,0.206,0.05,0.255s0.095,0.08,0.185,0.094S44.422,22.748,44.711,22.763z"/>
	<path d="M52.891,20.677c0,0.406-0.097,0.787-0.29,1.143s-0.467,0.642-0.82,0.858s-0.761,0.325-1.222,0.325
		c-0.348,0-0.706-0.076-1.075-0.229s-0.68-0.397-0.932-0.735s-0.378-0.769-0.378-1.292c0-0.344,0.063-0.655,0.19-0.935
		s0.302-0.521,0.524-0.724s0.482-0.359,0.779-0.469s0.615-0.164,0.955-0.164c0.309,0,0.601,0.057,0.876,0.17s0.517,0.27,0.724,0.469
		s0.37,0.435,0.489,0.706S52.891,20.365,52.891,20.677z M52.1,20.918c0-0.355-0.077-0.702-0.231-1.04s-0.367-0.613-0.639-0.826
		s-0.571-0.319-0.899-0.319c-0.266,0-0.504,0.072-0.715,0.217s-0.376,0.346-0.495,0.604s-0.179,0.545-0.179,0.861
		c0,0.363,0.072,0.725,0.217,1.084s0.347,0.654,0.606,0.885s0.546,0.346,0.858,0.346c0.273,0,0.521-0.075,0.744-0.226
		s0.4-0.364,0.533-0.642S52.1,21.269,52.1,20.918z"/>
	<path d="M58.797,22.957c-0.055-0.008-0.112-0.015-0.173-0.021s-0.113-0.01-0.158-0.012s-0.147-0.003-0.308-0.003h-0.457
		c-0.422,0-0.766,0.012-1.031,0.035v-0.205c0.043-0.012,0.108-0.023,0.196-0.035s0.157-0.024,0.208-0.038s0.076-0.032,0.076-0.056
		c0-0.039-0.062-0.134-0.188-0.284s-0.227-0.265-0.305-0.343c-0.32-0.324-0.611-0.611-0.873-0.861l-0.387-0.352
		c-0.027-0.031-0.085-0.083-0.173-0.155s-0.146-0.108-0.173-0.108c-0.066,0-0.1,0.068-0.1,0.205v0.627
		c0,0.367,0.003,0.63,0.009,0.788s0.019,0.275,0.038,0.352s0.053,0.124,0.1,0.144c0.094,0.039,0.281,0.078,0.562,0.117l-0.012,0.205
		c-0.203-0.031-0.451-0.047-0.744-0.047c-0.434,0-0.9,0.016-1.4,0.047v-0.193c0.184-0.02,0.321-0.048,0.413-0.085
		s0.158-0.094,0.199-0.17s0.067-0.175,0.079-0.296c0.031-0.27,0.053-0.705,0.064-1.307s0.021-1.196,0.026-1.784
		s0.009-1.05,0.009-1.386c0-0.871-0.037-1.443-0.111-1.717c-0.055-0.168-0.146-0.252-0.275-0.252c-0.062,0-0.132,0.014-0.208,0.041
		s-0.134,0.051-0.173,0.07l0.012-0.193c0.031-0.02,0.079-0.046,0.144-0.079s0.119-0.061,0.164-0.082s0.105-0.05,0.182-0.085
		s0.149-0.068,0.22-0.1c0.246-0.105,0.426-0.188,0.539-0.249s0.197-0.13,0.252-0.208h0.176c-0.043,0.141-0.081,0.411-0.114,0.812
		s-0.059,0.852-0.076,1.354s-0.031,0.982-0.041,1.441s-0.017,0.796-0.021,1.011l-0.012,0.803c0.078-0.027,0.253-0.131,0.524-0.311
		s0.511-0.366,0.718-0.56s0.311-0.351,0.311-0.472c0-0.16-0.145-0.248-0.434-0.264v-0.17h0.539c0.137,0,0.265,0.001,0.384,0.003
		s0.251,0.005,0.396,0.009c0.199,0,0.414-0.002,0.645-0.006s0.34-0.006,0.328-0.006l-0.023,0.217
		c-0.246,0.023-0.478,0.083-0.694,0.179s-0.526,0.276-0.929,0.542l-1.008,0.674c0.074,0.07,0.216,0.205,0.425,0.404
		s0.577,0.561,1.104,1.084c0.301,0.285,0.516,0.484,0.645,0.598s0.262,0.214,0.398,0.302s0.235,0.144,0.296,0.167
		s0.134,0.043,0.22,0.059V22.957z"/>
	<path d="M63.344,22.635l-0.861,0.346c-0.129,0.055-0.227,0.082-0.293,0.082c-0.094,0-0.184-0.058-0.27-0.173
		s-0.156-0.257-0.211-0.425c-0.719,0.398-1.273,0.598-1.664,0.598c-0.48,0-0.721-0.275-0.721-0.826c0-0.266,0.032-0.463,0.097-0.592
		s0.169-0.23,0.313-0.305c0.293-0.148,0.604-0.259,0.932-0.331s0.672-0.134,1.031-0.185l0.029-0.721
		c0.004-0.051,0.006-0.119,0.006-0.205c0-0.195-0.018-0.343-0.053-0.442s-0.096-0.192-0.182-0.278
		c-0.23-0.23-0.471-0.346-0.721-0.346c-0.121,0-0.243,0.034-0.366,0.103s-0.185,0.165-0.185,0.29c0,0.062,0.02,0.146,0.059,0.252
		l-0.721,0.322c-0.031-0.125-0.047-0.217-0.047-0.275c0-0.199,0.122-0.384,0.366-0.554s0.52-0.308,0.826-0.413
		s0.521-0.158,0.642-0.158c0.105,0,0.233,0.045,0.384,0.135s0.278,0.184,0.384,0.281c0.074,0.074,0.136,0.151,0.185,0.231
		s0.091,0.202,0.126,0.366s0.053,0.373,0.053,0.627c0,0.074-0.01,0.336-0.029,0.785l-0.023,0.439
		c-0.004,0.125-0.008,0.225-0.012,0.299s-0.008,0.143-0.012,0.205c0,0.16,0.021,0.332,0.062,0.516s0.13,0.275,0.267,0.275
		c0.16,0,0.363-0.055,0.609-0.164V22.635z M60.619,17.004c0,0.113-0.042,0.216-0.126,0.308s-0.19,0.138-0.319,0.138
		c-0.125,0-0.232-0.045-0.322-0.135s-0.135-0.193-0.135-0.311c0-0.121,0.044-0.228,0.132-0.319s0.196-0.138,0.325-0.138
		c0.133,0,0.24,0.046,0.322,0.138S60.619,16.883,60.619,17.004z M61.709,21.146c-0.055-0.004-0.135-0.006-0.24-0.006
		c-0.441,0-0.797,0.078-1.066,0.234s-0.404,0.344-0.404,0.562c0,0.176,0.048,0.342,0.144,0.498s0.228,0.234,0.396,0.234
		c0.188,0,0.566-0.141,1.137-0.422c-0.004-0.035-0.006-0.1-0.006-0.193C61.668,21.832,61.682,21.529,61.709,21.146z M62.483,17.004
		c0,0.117-0.045,0.221-0.135,0.311s-0.197,0.135-0.322,0.135c-0.121,0-0.226-0.044-0.313-0.132s-0.132-0.192-0.132-0.313
		c0-0.125,0.045-0.232,0.135-0.322s0.193-0.135,0.311-0.135c0.129,0,0.237,0.046,0.325,0.138S62.483,16.883,62.483,17.004z"/>
	<path d="M68.84,22.969c-0.242-0.039-0.582-0.059-1.02-0.059c-0.402,0-0.795,0.02-1.178,0.059v-0.17
		c0.367-0.07,0.588-0.182,0.662-0.334c0.047-0.094,0.08-0.257,0.1-0.489s0.033-0.461,0.041-0.686s0.012-0.429,0.012-0.612
		c0-0.348-0.015-0.632-0.044-0.853s-0.11-0.41-0.243-0.568s-0.34-0.237-0.621-0.237c-0.125,0-0.314,0.025-0.568,0.076
		s-0.553,0.166-0.896,0.346l-0.035,1.57c-0.008,0.43-0.012,0.666-0.012,0.709c0,0.203,0.012,0.408,0.035,0.615
		c0.016,0.133,0.065,0.229,0.149,0.287s0.29,0.105,0.618,0.141l-0.012,0.182c-0.215-0.023-0.543-0.035-0.984-0.035h-1.283
		l-0.012-0.193c0.211-0.039,0.365-0.08,0.463-0.123s0.162-0.092,0.193-0.146s0.053-0.129,0.064-0.223
		c0.031-0.215,0.053-0.479,0.064-0.791s0.018-0.629,0.018-0.949c0-0.449-0.015-0.756-0.044-0.92s-0.092-0.269-0.188-0.313
		s-0.274-0.081-0.536-0.108c0-0.051-0.004-0.088-0.012-0.111c0.145-0.035,0.362-0.115,0.653-0.24s0.444-0.195,0.46-0.211
		c0.004-0.012,0.042-0.035,0.114-0.07s0.122-0.053,0.149-0.053c0.059,0,0.096,0.057,0.111,0.17s0.023,0.301,0.023,0.562
		c0.43-0.242,0.783-0.415,1.061-0.519s0.543-0.155,0.797-0.155c0.379,0,0.655,0.083,0.829,0.249s0.281,0.368,0.322,0.606
		s0.062,0.553,0.062,0.943v1.395c0,0.551,0.025,0.852,0.076,0.902c0.027,0.027,0.127,0.061,0.299,0.1s0.271,0.064,0.299,0.076
		L68.84,22.969z"/>
	<path d="M74.699,22.787c-0.918,0.32-1.414,0.48-1.488,0.48c-0.121,0-0.182-0.314-0.182-0.943c-0.477,0.242-0.829,0.406-1.058,0.492
		s-0.476,0.129-0.741,0.129c-0.281,0-0.562-0.076-0.844-0.229s-0.511-0.374-0.688-0.665s-0.267-0.626-0.267-1.005
		c0-0.52,0.116-0.954,0.349-1.304s0.5-0.613,0.803-0.791s0.592-0.305,0.867-0.381s0.454-0.114,0.536-0.114
		c0.238,0,0.615,0.064,1.131,0.193c0.023-0.434,0.035-0.938,0.035-1.512c0-0.398-0.009-0.69-0.026-0.876s-0.051-0.314-0.1-0.387
		s-0.12-0.108-0.214-0.108c-0.145,0-0.291,0.021-0.439,0.064l-0.012-0.182c0.719-0.297,1.234-0.557,1.547-0.779l0.141,0.059
		c-0.082,0.531-0.141,1.208-0.176,2.03s-0.053,1.409-0.053,1.761c0,0.258-0.008,0.65-0.023,1.178s-0.023,0.924-0.023,1.189
		c0,1.117,0.072,1.676,0.217,1.676c0.082,0,0.318-0.062,0.709-0.188V22.787z M73.065,19.441c0-0.09-0.067-0.171-0.202-0.243
		s-0.283-0.128-0.445-0.167s-0.341-0.072-0.536-0.1s-0.309-0.041-0.34-0.041c-0.25,0-0.487,0.065-0.712,0.196
		s-0.404,0.31-0.539,0.536s-0.202,0.479-0.202,0.756c0,0.43,0.078,0.801,0.234,1.113s0.368,0.551,0.636,0.715
		s0.562,0.246,0.882,0.246c0.227,0,0.433-0.04,0.618-0.12s0.376-0.181,0.571-0.302L73.065,19.441z"/>
	<path d="M79.223,22.635l-0.861,0.346c-0.129,0.055-0.227,0.082-0.293,0.082c-0.094,0-0.184-0.058-0.27-0.173
		s-0.156-0.257-0.211-0.425c-0.719,0.398-1.273,0.598-1.664,0.598c-0.48,0-0.721-0.275-0.721-0.826c0-0.266,0.032-0.463,0.097-0.592
		s0.169-0.23,0.313-0.305c0.293-0.148,0.604-0.259,0.932-0.331s0.672-0.134,1.031-0.185l0.029-0.721
		c0.004-0.051,0.006-0.119,0.006-0.205c0-0.195-0.018-0.343-0.053-0.442s-0.096-0.192-0.182-0.278
		c-0.23-0.23-0.471-0.346-0.721-0.346c-0.121,0-0.243,0.034-0.366,0.103s-0.185,0.165-0.185,0.29c0,0.062,0.02,0.146,0.059,0.252
		l-0.721,0.322c-0.031-0.125-0.047-0.217-0.047-0.275c0-0.199,0.122-0.384,0.366-0.554s0.52-0.308,0.826-0.413
		s0.521-0.158,0.642-0.158c0.105,0,0.233,0.045,0.384,0.135s0.278,0.184,0.384,0.281c0.074,0.074,0.136,0.151,0.185,0.231
		s0.091,0.202,0.126,0.366s0.053,0.373,0.053,0.627c0,0.074-0.01,0.336-0.029,0.785l-0.023,0.439
		c-0.004,0.125-0.008,0.225-0.012,0.299s-0.008,0.143-0.012,0.205c0,0.16,0.021,0.332,0.062,0.516s0.13,0.275,0.267,0.275
		c0.16,0,0.363-0.055,0.609-0.164V22.635z M77.588,21.146c-0.055-0.004-0.135-0.006-0.24-0.006c-0.441,0-0.797,0.078-1.066,0.234
		s-0.404,0.344-0.404,0.562c0,0.176,0.048,0.342,0.144,0.498s0.228,0.234,0.396,0.234c0.188,0,0.566-0.141,1.137-0.422
		c-0.004-0.035-0.006-0.1-0.006-0.193C77.547,21.832,77.561,21.529,77.588,21.146z"/>
	<path d="M87.614,22.957c-0.055-0.008-0.112-0.015-0.173-0.021s-0.113-0.01-0.158-0.012s-0.147-0.003-0.308-0.003h-0.457
		c-0.422,0-0.766,0.012-1.031,0.035v-0.205c0.043-0.012,0.108-0.023,0.196-0.035s0.157-0.024,0.208-0.038s0.076-0.032,0.076-0.056
		c0-0.039-0.062-0.134-0.188-0.284s-0.227-0.265-0.305-0.343c-0.32-0.324-0.611-0.611-0.873-0.861l-0.387-0.352
		c-0.027-0.031-0.085-0.083-0.173-0.155s-0.146-0.108-0.173-0.108c-0.066,0-0.1,0.068-0.1,0.205v0.627
		c0,0.367,0.003,0.63,0.009,0.788s0.019,0.275,0.038,0.352s0.053,0.124,0.1,0.144c0.094,0.039,0.281,0.078,0.562,0.117l-0.012,0.205
		c-0.203-0.031-0.451-0.047-0.744-0.047c-0.434,0-0.9,0.016-1.4,0.047v-0.193c0.184-0.02,0.321-0.048,0.413-0.085
		s0.158-0.094,0.199-0.17s0.067-0.175,0.079-0.296c0.031-0.27,0.053-0.705,0.064-1.307s0.021-1.196,0.026-1.784
		s0.009-1.05,0.009-1.386c0-0.871-0.037-1.443-0.111-1.717c-0.055-0.168-0.146-0.252-0.275-0.252c-0.062,0-0.132,0.014-0.208,0.041
		s-0.134,0.051-0.173,0.07l0.012-0.193c0.031-0.02,0.079-0.046,0.144-0.079s0.119-0.061,0.164-0.082s0.105-0.05,0.182-0.085
		s0.149-0.068,0.22-0.1c0.246-0.105,0.426-0.188,0.539-0.249s0.197-0.13,0.252-0.208h0.176c-0.043,0.141-0.081,0.411-0.114,0.812
		s-0.059,0.852-0.076,1.354s-0.031,0.982-0.041,1.441s-0.017,0.796-0.021,1.011l-0.012,0.803c0.078-0.027,0.253-0.131,0.524-0.311
		s0.511-0.366,0.718-0.56s0.311-0.351,0.311-0.472c0-0.16-0.145-0.248-0.434-0.264v-0.17h0.539c0.137,0,0.265,0.001,0.384,0.003
		s0.251,0.005,0.396,0.009c0.199,0,0.414-0.002,0.645-0.006s0.34-0.006,0.328-0.006l-0.023,0.217
		c-0.246,0.023-0.478,0.083-0.694,0.179s-0.526,0.276-0.929,0.542l-1.008,0.674c0.074,0.07,0.216,0.205,0.425,0.404
		s0.577,0.561,1.104,1.084c0.301,0.285,0.516,0.484,0.645,0.598s0.262,0.214,0.398,0.302s0.235,0.144,0.296,0.167
		s0.134,0.043,0.22,0.059V22.957z"/>
	<path d="M90.456,22.98c-0.008,0-0.077-0.003-0.206-0.009s-0.263-0.013-0.401-0.021s-0.288-0.015-0.448-0.021
		s-0.324-0.009-0.492-0.009c-0.43,0-0.793,0.016-1.09,0.047v-0.182c0.289-0.051,0.494-0.138,0.615-0.261s0.199-0.315,0.234-0.577
		c0.031-0.262,0.065-0.852,0.103-1.77s0.056-1.736,0.056-2.455c0-1.031-0.053-1.619-0.158-1.764
		c-0.066-0.098-0.199-0.146-0.398-0.146c-0.047,0-0.084,0.002-0.111,0.006s-0.053,0.008-0.076,0.012s-0.049,0.008-0.076,0.012
		v-0.182c0.746-0.312,1.271-0.576,1.576-0.791h0.176c-0.121,0.461-0.197,1.297-0.229,2.508l-0.047,2.818
		c0,0.082-0.001,0.155-0.003,0.22s-0.003,0.136-0.003,0.214c0,0.406,0.007,0.784,0.021,1.134s0.038,0.575,0.073,0.677
		s0.152,0.179,0.352,0.231s0.377,0.087,0.534,0.103V22.98z"/>
	<path d="M95.044,22.635l-0.861,0.346c-0.129,0.055-0.227,0.082-0.293,0.082c-0.094,0-0.184-0.058-0.27-0.173
		s-0.156-0.257-0.211-0.425c-0.719,0.398-1.273,0.598-1.664,0.598c-0.48,0-0.721-0.275-0.721-0.826c0-0.266,0.031-0.463,0.096-0.592
		s0.17-0.23,0.314-0.305c0.293-0.148,0.604-0.259,0.932-0.331s0.672-0.134,1.031-0.185l0.029-0.721
		c0.004-0.051,0.006-0.119,0.006-0.205c0-0.195-0.018-0.343-0.053-0.442s-0.096-0.192-0.182-0.278
		c-0.23-0.23-0.471-0.346-0.721-0.346c-0.121,0-0.244,0.034-0.367,0.103s-0.184,0.165-0.184,0.29c0,0.062,0.02,0.146,0.059,0.252
		l-0.721,0.322c-0.031-0.125-0.047-0.217-0.047-0.275c0-0.199,0.121-0.384,0.365-0.554s0.52-0.308,0.826-0.413
		s0.521-0.158,0.643-0.158c0.105,0,0.232,0.045,0.383,0.135s0.279,0.184,0.385,0.281c0.074,0.074,0.135,0.151,0.184,0.231
		s0.092,0.202,0.127,0.366s0.053,0.373,0.053,0.627c0,0.074-0.01,0.336-0.029,0.785l-0.023,0.439
		c-0.004,0.125-0.008,0.225-0.012,0.299s-0.008,0.143-0.012,0.205c0,0.16,0.02,0.332,0.061,0.516s0.131,0.275,0.268,0.275
		c0.16,0,0.363-0.055,0.609-0.164V22.635z M93.409,21.146c-0.055-0.004-0.135-0.006-0.24-0.006c-0.441,0-0.797,0.078-1.066,0.234
		s-0.404,0.344-0.404,0.562c0,0.176,0.047,0.342,0.143,0.498s0.229,0.234,0.396,0.234c0.188,0,0.566-0.141,1.137-0.422
		c-0.004-0.035-0.006-0.1-0.006-0.193C93.368,21.832,93.382,21.529,93.409,21.146z"/>
	<path d="M98.477,21.72c0,0.137-0.029,0.282-0.086,0.437s-0.141,0.265-0.254,0.331c-0.324,0.207-0.592,0.341-0.803,0.401
		s-0.426,0.091-0.645,0.091c-0.078,0-0.189-0.01-0.334-0.029s-0.246-0.035-0.305-0.047s-0.16-0.039-0.305-0.082
		s-0.238-0.07-0.281-0.082c0.031-0.156,0.047-0.268,0.047-0.334c0-0.098-0.018-0.231-0.051-0.401s-0.064-0.296-0.096-0.378
		l0.205,0.012c0,0.074,0.062,0.195,0.189,0.363s0.299,0.319,0.514,0.454s0.449,0.202,0.703,0.202c0.184,0,0.367-0.039,0.551-0.117
		s0.275-0.248,0.275-0.51c0-0.449-0.312-0.812-0.938-1.09l-0.439-0.205c-0.562-0.262-0.844-0.59-0.844-0.984
		c0-0.18,0.064-0.368,0.193-0.565s0.314-0.36,0.559-0.489s0.521-0.193,0.83-0.193c0.188,0,0.5,0.029,0.938,0.088l0.193,0.996h-0.205
		c-0.035-0.137-0.117-0.267-0.244-0.39s-0.275-0.228-0.445-0.313s-0.314-0.129-0.436-0.129c-0.207,0-0.375,0.064-0.504,0.193
		s-0.193,0.293-0.193,0.492c0,0.16,0.047,0.288,0.141,0.384s0.271,0.208,0.533,0.337l0.357,0.17
		c0.324,0.152,0.602,0.331,0.832,0.536S98.477,21.357,98.477,21.72z"/>
	<path d="M102.356,21.72c0,0.137-0.029,0.282-0.086,0.437s-0.141,0.265-0.254,0.331c-0.324,0.207-0.592,0.341-0.803,0.401
		s-0.426,0.091-0.645,0.091c-0.078,0-0.189-0.01-0.334-0.029s-0.246-0.035-0.305-0.047s-0.16-0.039-0.305-0.082
		s-0.238-0.07-0.281-0.082c0.031-0.156,0.047-0.268,0.047-0.334c0-0.098-0.018-0.231-0.051-0.401s-0.064-0.296-0.096-0.378
		l0.205,0.012c0,0.074,0.062,0.195,0.189,0.363s0.299,0.319,0.514,0.454s0.449,0.202,0.703,0.202c0.184,0,0.367-0.039,0.551-0.117
		s0.275-0.248,0.275-0.51c0-0.449-0.312-0.812-0.938-1.09l-0.439-0.205c-0.562-0.262-0.844-0.59-0.844-0.984
		c0-0.18,0.064-0.368,0.193-0.565s0.314-0.36,0.559-0.489s0.521-0.193,0.83-0.193c0.188,0,0.5,0.029,0.938,0.088l0.193,0.996h-0.205
		c-0.035-0.137-0.117-0.267-0.244-0.39s-0.275-0.228-0.445-0.313s-0.314-0.129-0.436-0.129c-0.207,0-0.375,0.064-0.504,0.193
		s-0.193,0.293-0.193,0.492c0,0.16,0.047,0.288,0.141,0.384s0.271,0.208,0.533,0.337l0.357,0.17
		c0.324,0.152,0.602,0.331,0.832,0.536S102.356,21.357,102.356,21.72z"/>
	<path d="M105.55,22.91l-2.361,0.059l0.023-0.182c0.332-0.031,0.52-0.09,0.562-0.176c0.031-0.07,0.057-0.324,0.076-0.762
		s0.029-0.801,0.029-1.09c0-0.555-0.01-0.91-0.027-1.066s-0.051-0.264-0.102-0.322c-0.016-0.02-0.113-0.039-0.293-0.059
		s-0.27-0.045-0.27-0.076c0-0.062,0.035-0.102,0.105-0.117c0.465-0.145,0.92-0.4,1.365-0.768c0.027,0,0.064,0.008,0.111,0.023
		c-0.039,0.16-0.072,0.395-0.1,0.703s-0.051,0.633-0.068,0.973s-0.025,0.641-0.025,0.902c0,0.828,0.031,1.352,0.094,1.57
		c0.031,0.074,0.072,0.122,0.123,0.144s0.143,0.034,0.275,0.038c0.238,0.02,0.375,0.031,0.41,0.035L105.55,22.91z M104.975,15.961
		c0,0.125-0.043,0.232-0.127,0.322s-0.189,0.135-0.318,0.135c-0.125,0-0.232-0.045-0.322-0.135s-0.135-0.197-0.135-0.322
		c0-0.133,0.045-0.242,0.135-0.328s0.197-0.129,0.322-0.129s0.23,0.045,0.316,0.135S104.975,15.836,104.975,15.961z"/>
</g>
<g enable-background="new    ">
	<path d="M111.133,22.957c-0.055-0.008-0.112-0.015-0.173-0.021s-0.113-0.01-0.158-0.012s-0.147-0.003-0.308-0.003h-0.457
		c-0.422,0-0.766,0.012-1.031,0.035v-0.205c0.043-0.012,0.108-0.023,0.196-0.035s0.157-0.024,0.208-0.038s0.076-0.032,0.076-0.056
		c0-0.039-0.062-0.134-0.188-0.284s-0.227-0.265-0.305-0.343c-0.32-0.324-0.611-0.611-0.873-0.861l-0.387-0.352
		c-0.027-0.031-0.085-0.083-0.173-0.155s-0.146-0.108-0.173-0.108c-0.066,0-0.1,0.068-0.1,0.205v0.627
		c0,0.367,0.003,0.63,0.009,0.788s0.019,0.275,0.038,0.352s0.053,0.124,0.1,0.144c0.094,0.039,0.281,0.078,0.562,0.117l-0.012,0.205
		c-0.203-0.031-0.451-0.047-0.744-0.047c-0.434,0-0.9,0.016-1.4,0.047v-0.193c0.184-0.02,0.321-0.048,0.413-0.085
		s0.158-0.094,0.199-0.17s0.067-0.175,0.079-0.296c0.031-0.27,0.053-0.705,0.064-1.307s0.021-1.196,0.026-1.784
		s0.009-1.05,0.009-1.386c0-0.871-0.037-1.443-0.111-1.717c-0.055-0.168-0.146-0.252-0.275-0.252c-0.062,0-0.132,0.014-0.208,0.041
		s-0.134,0.051-0.173,0.07l0.012-0.193c0.031-0.02,0.079-0.046,0.144-0.079s0.119-0.061,0.164-0.082s0.105-0.05,0.182-0.085
		s0.149-0.068,0.22-0.1c0.246-0.105,0.426-0.188,0.539-0.249s0.197-0.13,0.252-0.208h0.176c-0.043,0.141-0.081,0.411-0.114,0.812
		s-0.059,0.852-0.076,1.354s-0.031,0.982-0.041,1.441s-0.017,0.796-0.021,1.011l-0.012,0.803c0.078-0.027,0.253-0.131,0.524-0.311
		s0.511-0.366,0.718-0.56s0.311-0.351,0.311-0.472c0-0.16-0.145-0.248-0.434-0.264v-0.17h0.539c0.137,0,0.265,0.001,0.384,0.003
		s0.251,0.005,0.396,0.009c0.199,0,0.414-0.002,0.645-0.006s0.34-0.006,0.328-0.006l-0.023,0.217
		c-0.246,0.023-0.478,0.083-0.694,0.179s-0.526,0.276-0.929,0.542l-1.008,0.674c0.074,0.07,0.216,0.205,0.425,0.404
		s0.577,0.561,1.104,1.084c0.301,0.285,0.516,0.484,0.645,0.598s0.262,0.214,0.398,0.302s0.235,0.144,0.296,0.167
		s0.134,0.043,0.22,0.059V22.957z"/>
</g>
<g enable-background="new    ">
	<path d="M115.01,19.898l-2.93,0.633c0.02,0.367,0.055,0.651,0.107,0.853s0.158,0.405,0.314,0.612
		c0.301,0.395,0.664,0.592,1.09,0.592c0.176,0,0.363-0.033,0.562-0.1s0.42-0.186,0.662-0.357l0.105,0.141
		c-0.68,0.488-1.283,0.732-1.811,0.732c-0.559,0-0.994-0.211-1.307-0.633s-0.469-0.906-0.469-1.453c0-0.559,0.119-1.022,0.357-1.392
		s0.506-0.638,0.803-0.806s0.521-0.252,0.674-0.252c0.176,0,0.357,0.028,0.547,0.085s0.375,0.165,0.557,0.325
		s0.334,0.379,0.455,0.656c0.035,0.059,0.068,0.098,0.1,0.117s0.088,0.029,0.17,0.029L115.01,19.898z M114.096,19.763
		c0-0.062-0.047-0.169-0.141-0.319s-0.229-0.288-0.402-0.413s-0.377-0.188-0.611-0.188c-0.293,0-0.502,0.154-0.625,0.463
		s-0.197,0.641-0.225,0.996l0.768-0.164c0.004-0.004,0.107-0.029,0.311-0.076s0.355-0.082,0.457-0.105
		c0.191-0.039,0.316-0.07,0.377-0.094S114.096,19.806,114.096,19.763z"/>
	<path d="M118.971,18.949c0,0.152-0.062,0.277-0.188,0.375s-0.275,0.156-0.451,0.176c0-0.27-0.119-0.404-0.357-0.404
		c-0.117,0-0.254,0.04-0.41,0.12s-0.279,0.159-0.369,0.237c-0.098,0.086-0.156,0.157-0.174,0.214s-0.027,0.198-0.031,0.425
		c0,0.066-0.002,0.127-0.004,0.182s-0.004,0.138-0.008,0.249s-0.01,0.225-0.016,0.34s-0.008,0.206-0.008,0.272
		c0,0.766,0.039,1.236,0.117,1.412c0.035,0.062,0.074,0.101,0.117,0.114s0.117,0.021,0.223,0.021h0.152l0.697-0.012l-0.012,0.252
		l-2.713,0.07l0.012-0.182c0.195-0.039,0.33-0.078,0.404-0.117s0.139-0.131,0.193-0.275s0.09-0.361,0.107-0.65
		s0.027-0.732,0.027-1.33c0-0.473-0.025-0.787-0.076-0.943s-0.178-0.234-0.381-0.234c-0.121,0-0.244,0.016-0.369,0.047l0.023-0.188
		l1.512-0.879c0.016,0.242,0.023,0.574,0.023,0.996l0.709-0.404c0.082-0.051,0.182-0.11,0.299-0.179s0.266-0.161,0.445-0.278
		c0.047,0.035,0.09,0.062,0.129,0.082c0.117,0.055,0.209,0.117,0.275,0.188S118.971,18.816,118.971,18.949z"/>
</g>
<g>
	<g>
		<defs>
			<rect id="SVGID_1_" x="0" y="0" width="179.857" height="53.15"/>
		</defs>
		<clipPath id="SVGID_2_">
			<use xlink:href="#SVGID_1_"  overflow="visible"/>
		</clipPath>
		<g clip-path="url(#SVGID_2_)">
			<g enable-background="new    ">
				<path fill="#901A1D" d="M9.99,9.972c-0.036,0.244-0.116,0.61-0.241,1.099c-0.125,0.489-0.271,0.933-0.438,1.332
					c-0.513-0.06-0.92-0.09-1.224-0.09c-0.185-0.006-0.356-0.01-0.514-0.013c-0.158-0.004-0.341-0.005-0.549-0.005H0.751
					l-0.018-0.277c0.351-0.071,0.607-0.148,0.768-0.232c0.161-0.083,0.282-0.228,0.362-0.433c0.08-0.206,0.131-0.514,0.152-0.925
					c0.021-0.411,0.031-1.004,0.031-1.778l0.018-3.932V3.744c0-0.863-0.025-1.462-0.076-1.796C1.938,1.615,1.832,1.396,1.671,1.292
					S1.239,1.13,0.858,1.117V0.804C1.609,0.81,2.1,0.816,2.332,0.822c0.232,0.007,0.426,0.013,0.581,0.019
					c1,0,1.659-0.012,1.975-0.036L4.87,1.153C4.459,1.189,4.152,1.238,3.95,1.301C3.747,1.363,3.601,1.496,3.512,1.698
					C3.458,1.829,3.42,2.157,3.396,2.681c-0.024,0.523-0.045,1.197-0.062,2.02C3.309,5.624,3.291,6.461,3.28,7.212
					c-0.012,0.75-0.018,1.495-0.018,2.233c0,0.674,0.018,1.171,0.054,1.492c0.036,0.322,0.095,0.524,0.179,0.607
					c0.102,0.078,0.27,0.135,0.505,0.17c0.235,0.036,0.737,0.054,1.506,0.054c0.596,0,1.126-0.034,1.59-0.103
					c0.465-0.068,0.843-0.152,1.135-0.25c0.292-0.099,0.519-0.195,0.679-0.291c0.381-0.232,0.644-0.628,0.787-1.188L9.99,9.972z"/>
				<path fill="#901A1D" d="M14.494,12.242l-3.601,0.09l0.036-0.277c0.506-0.048,0.792-0.137,0.858-0.269
					c0.047-0.106,0.086-0.494,0.116-1.161s0.044-1.221,0.044-1.662c0-0.846-0.013-1.388-0.04-1.626s-0.079-0.402-0.156-0.492
					c-0.024-0.029-0.173-0.059-0.447-0.089c-0.274-0.029-0.411-0.068-0.411-0.116c0-0.095,0.054-0.155,0.161-0.179
					c0.709-0.221,1.403-0.61,2.082-1.171c0.042,0,0.098,0.013,0.17,0.036c-0.06,0.244-0.11,0.602-0.152,1.072
					c-0.042,0.471-0.076,0.965-0.103,1.483s-0.04,0.977-0.04,1.376c0,1.263,0.047,2.062,0.143,2.395
					c0.047,0.113,0.11,0.187,0.188,0.219c0.077,0.033,0.217,0.053,0.42,0.059c0.363,0.029,0.572,0.048,0.625,0.054L14.494,12.242z
					 M13.618,1.644c0,0.19-0.064,0.354-0.192,0.491c-0.128,0.138-0.291,0.206-0.487,0.206c-0.19,0-0.354-0.068-0.491-0.206
					c-0.137-0.137-0.206-0.301-0.206-0.491c0-0.202,0.068-0.369,0.206-0.5s0.301-0.196,0.491-0.196c0.191,0,0.352,0.068,0.483,0.205
					C13.552,1.29,13.618,1.454,13.618,1.644z"/>
				<path fill="#901A1D" d="M20.06,11.402c-0.208,0.227-0.591,0.45-1.148,0.67c-0.557,0.221-1.059,0.331-1.505,0.331
					c-0.387,0-0.719-0.133-0.997-0.397c-0.277-0.266-0.415-0.723-0.415-1.372V9.731l0.044-3.476
					c-0.274-0.036-0.593-0.054-0.956-0.054l0.018-0.224c0.519-0.315,0.923-0.616,1.215-0.902s0.638-0.691,1.037-1.216l-0.089,1.608
					c0.512,0.048,1.072,0.072,1.68,0.072c0.292,0,0.611-0.006,0.957-0.019l-0.018,0.555c-0.31,0.035-0.628,0.054-0.956,0.054
					c-0.03,0-0.146-0.005-0.349-0.014s-0.406-0.019-0.612-0.027s-0.317-0.013-0.335-0.013c-0.113,0-0.198,0.01-0.254,0.031
					c-0.057,0.021-0.095,0.061-0.116,0.12s-0.036,0.173-0.045,0.34c-0.009,0.167-0.016,0.343-0.022,0.527l-0.045,2.788v0.25
					c0,0.471,0.076,0.854,0.228,1.152s0.46,0.447,0.925,0.447c0.393,0,0.968-0.173,1.725-0.519L20.06,11.402z"/>
				<path fill="#901A1D" d="M25.404,11.402c-0.208,0.227-0.591,0.45-1.148,0.67c-0.557,0.221-1.059,0.331-1.505,0.331
					c-0.387,0-0.719-0.133-0.997-0.397c-0.277-0.266-0.415-0.723-0.415-1.372V9.731l0.044-3.476
					c-0.274-0.036-0.593-0.054-0.956-0.054l0.018-0.224c0.519-0.315,0.923-0.616,1.215-0.902s0.638-0.691,1.037-1.216l-0.089,1.608
					c0.512,0.048,1.072,0.072,1.68,0.072c0.292,0,0.611-0.006,0.957-0.019l-0.018,0.555c-0.31,0.035-0.628,0.054-0.956,0.054
					c-0.03,0-0.146-0.005-0.349-0.014s-0.406-0.019-0.612-0.027s-0.317-0.013-0.335-0.013c-0.113,0-0.198,0.01-0.254,0.031
					c-0.057,0.021-0.095,0.061-0.116,0.12s-0.036,0.173-0.045,0.34c-0.009,0.167-0.016,0.343-0.022,0.527l-0.045,2.788v0.25
					c0,0.471,0.076,0.854,0.228,1.152s0.46,0.447,0.925,0.447c0.393,0,0.968-0.173,1.725-0.519L25.404,11.402z"/>
				<path fill="#901A1D" d="M31.703,7.649l-4.468,0.965c0.03,0.561,0.085,0.993,0.166,1.301c0.08,0.307,0.24,0.617,0.478,0.934
					c0.458,0.602,1.013,0.902,1.662,0.902c0.268,0,0.554-0.051,0.857-0.152c0.304-0.101,0.641-0.282,1.01-0.545l0.161,0.215
					c-1.037,0.744-1.957,1.117-2.761,1.117c-0.852,0-1.516-0.322-1.993-0.966c-0.477-0.643-0.715-1.382-0.715-2.216
					c0-0.852,0.182-1.56,0.545-2.122s0.771-0.973,1.224-1.229s0.795-0.385,1.028-0.385c0.268,0,0.546,0.044,0.835,0.13
					c0.289,0.087,0.572,0.252,0.849,0.496c0.277,0.244,0.508,0.578,0.693,1.001c0.053,0.089,0.104,0.148,0.152,0.179
					c0.047,0.029,0.134,0.044,0.259,0.044L31.703,7.649z M30.309,7.444c0-0.096-0.071-0.258-0.214-0.487s-0.347-0.439-0.612-0.63
					c-0.265-0.19-0.577-0.286-0.934-0.286c-0.447,0-0.764,0.235-0.952,0.706c-0.188,0.471-0.302,0.977-0.344,1.519l1.17-0.25
					c0.006-0.006,0.164-0.045,0.474-0.116c0.31-0.071,0.542-0.125,0.697-0.16c0.292-0.06,0.484-0.107,0.577-0.144
					C30.263,7.559,30.309,7.51,30.309,7.444z"/>
				<path fill="#901A1D" d="M37.744,6.202c0,0.232-0.095,0.423-0.286,0.571c-0.191,0.149-0.42,0.238-0.688,0.269
					c0-0.411-0.182-0.617-0.545-0.617c-0.179,0-0.388,0.062-0.626,0.184s-0.426,0.243-0.562,0.362
					C34.888,7.101,34.8,7.21,34.773,7.297c-0.027,0.086-0.043,0.302-0.049,0.647c0,0.102-0.001,0.193-0.004,0.277
					c-0.003,0.083-0.007,0.21-0.014,0.379c-0.006,0.17-0.013,0.343-0.022,0.519c-0.009,0.176-0.014,0.314-0.014,0.416
					c0,1.167,0.06,1.885,0.179,2.153c0.054,0.095,0.113,0.153,0.179,0.174c0.065,0.021,0.179,0.031,0.34,0.031h0.232l1.063-0.018
					l-0.018,0.384l-4.137,0.107l0.018-0.276c0.298-0.06,0.503-0.119,0.617-0.179s0.211-0.2,0.295-0.42
					c0.083-0.221,0.139-0.552,0.165-0.992c0.027-0.441,0.041-1.117,0.041-2.028c0-0.721-0.039-1.2-0.116-1.438
					c-0.078-0.238-0.271-0.357-0.581-0.357c-0.185,0-0.372,0.023-0.563,0.071l0.036-0.286l2.305-1.34
					c0.024,0.369,0.036,0.875,0.036,1.519l1.082-0.616c0.125-0.078,0.277-0.169,0.456-0.272c0.179-0.104,0.405-0.246,0.679-0.425
					c0.071,0.054,0.137,0.096,0.196,0.125c0.179,0.084,0.319,0.179,0.42,0.286C37.694,5.844,37.744,5.999,37.744,6.202z"/>
				<path fill="#901A1D" d="M44.66,11.822l-1.313,0.527c-0.196,0.083-0.345,0.125-0.447,0.125c-0.143,0-0.28-0.088-0.411-0.264
					c-0.131-0.176-0.239-0.392-0.322-0.647c-1.096,0.607-1.942,0.911-2.538,0.911c-0.732,0-1.099-0.42-1.099-1.26
					c0-0.405,0.049-0.706,0.147-0.902c0.098-0.197,0.257-0.352,0.478-0.465c0.447-0.227,0.92-0.395,1.42-0.505
					s1.025-0.204,1.573-0.281l0.045-1.1c0.006-0.077,0.009-0.182,0.009-0.312c0-0.298-0.027-0.522-0.081-0.675
					c-0.054-0.151-0.146-0.293-0.277-0.424c-0.352-0.352-0.718-0.527-1.099-0.527c-0.185,0-0.371,0.052-0.559,0.156
					C40,6.284,39.906,6.431,39.906,6.622c0,0.095,0.03,0.223,0.089,0.384l-1.099,0.491c-0.048-0.19-0.072-0.33-0.072-0.42
					c0-0.304,0.187-0.585,0.559-0.844c0.373-0.26,0.792-0.47,1.26-0.63c0.467-0.161,0.793-0.241,0.978-0.241
					c0.161,0,0.356,0.068,0.585,0.205s0.424,0.28,0.585,0.429c0.113,0.113,0.207,0.231,0.281,0.354s0.139,0.308,0.192,0.559
					c0.053,0.25,0.08,0.568,0.08,0.956c0,0.113-0.015,0.512-0.044,1.197l-0.036,0.67c-0.006,0.19-0.012,0.343-0.018,0.456
					s-0.012,0.217-0.018,0.312c0,0.244,0.031,0.506,0.094,0.786c0.062,0.28,0.198,0.42,0.406,0.42c0.244,0,0.554-0.083,0.929-0.25
					V11.822z M42.167,9.552c-0.083-0.006-0.206-0.009-0.367-0.009c-0.673,0-1.215,0.119-1.626,0.357s-0.617,0.524-0.617,0.857
					c0,0.269,0.073,0.521,0.219,0.76s0.347,0.357,0.604,0.357c0.286,0,0.864-0.215,1.733-0.644
					c-0.006-0.054-0.009-0.151-0.009-0.295C42.105,10.598,42.125,10.136,42.167,9.552z"/>
				<path fill="#901A1D" d="M50.021,11.402c-0.208,0.227-0.591,0.45-1.148,0.67c-0.557,0.221-1.059,0.331-1.505,0.331
					c-0.387,0-0.719-0.133-0.997-0.397c-0.277-0.266-0.415-0.723-0.415-1.372V9.731L46,6.256c-0.274-0.036-0.593-0.054-0.956-0.054
					l0.018-0.224c0.519-0.315,0.923-0.616,1.215-0.902s0.638-0.691,1.037-1.216l-0.089,1.608c0.512,0.048,1.072,0.072,1.68,0.072
					c0.292,0,0.611-0.006,0.957-0.019l-0.018,0.555c-0.31,0.035-0.628,0.054-0.956,0.054c-0.03,0-0.146-0.005-0.349-0.014
					s-0.406-0.019-0.612-0.027s-0.317-0.013-0.335-0.013c-0.113,0-0.198,0.01-0.254,0.031c-0.057,0.021-0.095,0.061-0.116,0.12
					s-0.036,0.173-0.045,0.34c-0.009,0.167-0.016,0.343-0.022,0.527l-0.045,2.788v0.25c0,0.471,0.076,0.854,0.228,1.152
					s0.46,0.447,0.925,0.447c0.393,0,0.968-0.173,1.725-0.519L50.021,11.402z"/>
				<path fill="#901A1D" d="M58.162,11.893c-0.673,0.185-1.355,0.405-2.046,0.661c-0.101-0.333-0.182-0.756-0.241-1.269
					c-1.459,0.745-2.472,1.117-3.038,1.117c-0.357,0-0.724-0.167-1.099-0.501c-0.375-0.333-0.563-0.977-0.563-1.93V9.749l0.072-2.01
					c0-0.054,0.001-0.104,0.004-0.147c0.003-0.045,0.004-0.104,0.004-0.175c0-0.519-0.131-0.777-0.393-0.777
					c-0.107,0-0.334,0.08-0.679,0.241V6.514l1.984-1.099c0.095-0.048,0.155-0.072,0.179-0.072c0.083,0,0.125,0.054,0.125,0.161
					l-0.107,1.537c-0.071,1.215-0.107,1.966-0.107,2.252c0,0.673,0.089,1.231,0.268,1.675c0.179,0.444,0.595,0.666,1.251,0.666
					c0.208,0,0.424-0.034,0.647-0.103c0.224-0.068,0.483-0.173,0.777-0.313c0.295-0.14,0.526-0.251,0.693-0.335
					c0.006-0.137,0.012-0.298,0.018-0.482s0.009-0.315,0.009-0.393l0.053-1.832c0.006-0.102,0.009-0.241,0.009-0.42
					c0-0.572-0.07-0.93-0.21-1.072c-0.14-0.144-0.445-0.224-0.916-0.241l-0.018-0.331l2.377-0.554
					c-0.03,0.536-0.061,1.047-0.094,1.532s-0.062,1.006-0.089,1.56s-0.04,0.965-0.04,1.233c0,0.869,0.056,1.477,0.169,1.822
					c0.31-0.012,0.644-0.083,1.001-0.214V11.893z"/>
				<path fill="#901A1D" d="M64.059,6.202c0,0.232-0.095,0.423-0.286,0.571c-0.191,0.149-0.42,0.238-0.688,0.269
					c0-0.411-0.182-0.617-0.545-0.617c-0.179,0-0.388,0.062-0.626,0.184s-0.426,0.243-0.562,0.362
					c-0.149,0.131-0.237,0.239-0.264,0.326c-0.027,0.086-0.043,0.302-0.049,0.647c0,0.102-0.001,0.193-0.004,0.277
					c-0.003,0.083-0.007,0.21-0.014,0.379c-0.006,0.17-0.013,0.343-0.022,0.519c-0.009,0.176-0.014,0.314-0.014,0.416
					c0,1.167,0.06,1.885,0.179,2.153c0.054,0.095,0.113,0.153,0.179,0.174c0.065,0.021,0.179,0.031,0.34,0.031h0.232l1.063-0.018
					L62.96,12.26l-4.137,0.107l0.018-0.276c0.298-0.06,0.503-0.119,0.617-0.179s0.211-0.2,0.295-0.42
					c0.083-0.221,0.139-0.552,0.165-0.992c0.027-0.441,0.041-1.117,0.041-2.028c0-0.721-0.039-1.2-0.116-1.438
					c-0.078-0.238-0.271-0.357-0.581-0.357c-0.185,0-0.372,0.023-0.563,0.071l0.036-0.286l2.305-1.34
					c0.024,0.369,0.036,0.875,0.036,1.519l1.082-0.616c0.125-0.078,0.277-0.169,0.456-0.272c0.179-0.104,0.405-0.246,0.679-0.425
					c0.071,0.054,0.137,0.096,0.196,0.125c0.179,0.084,0.319,0.179,0.42,0.286C64.009,5.844,64.059,5.999,64.059,6.202z"/>
				<path fill="#901A1D" d="M72.038,8.543c0,0.786-0.227,1.469-0.679,2.046c-0.453,0.578-1.005,1.013-1.657,1.305
					s-1.271,0.438-1.854,0.438c-0.304,0-0.712-0.081-1.224-0.241c-0.31-0.084-0.518-0.126-0.625-0.126
					c-0.113,0-0.214,0.02-0.304,0.059s-0.19,0.1-0.304,0.183c-0.072,0.048-0.119,0.072-0.143,0.072
					c-0.012,0-0.033-0.009-0.062-0.027c-0.03-0.018-0.045-0.032-0.045-0.045c0-0.018,0.014-0.075,0.041-0.174
					s0.055-0.207,0.085-0.326c0.149-0.834,0.223-2.826,0.223-5.978c0-1.037-0.012-2.002-0.036-2.896
					c-0.012-0.625-0.068-1.035-0.17-1.229c-0.101-0.193-0.333-0.29-0.697-0.29h-0.268V1.207c0.018-0.012,0.333-0.176,0.947-0.491
					c0.613-0.316,1.06-0.561,1.34-0.733l0.161,0.072c-0.048,0.631-0.083,1.021-0.107,1.17c-0.06,1.305-0.093,2.115-0.099,2.431
					l-0.054,2.547c0.56-0.286,1.025-0.488,1.394-0.607c0.37-0.119,0.736-0.179,1.099-0.179c0.512,0,1.004,0.132,1.475,0.397
					c0.47,0.265,0.849,0.636,1.135,1.112C71.895,7.402,72.038,7.941,72.038,8.543z M70.904,9.186c0-0.352-0.052-0.711-0.156-1.077
					c-0.104-0.366-0.261-0.707-0.469-1.022C70.07,6.77,69.804,6.51,69.483,6.304c-0.321-0.206-0.691-0.309-1.108-0.309
					c-0.548,0-1.159,0.203-1.832,0.607c0,0.078-0.002,0.164-0.005,0.26c-0.003,0.095-0.007,0.261-0.013,0.496
					s-0.013,0.495-0.022,0.781c-0.009,0.286-0.013,0.524-0.013,0.715v1.313c0,0.292,0.01,0.492,0.031,0.599
					c0.021,0.107,0.085,0.209,0.192,0.304c0.614,0.453,1.242,0.68,1.886,0.68c0.44,0,0.835-0.108,1.184-0.326
					c0.349-0.218,0.623-0.521,0.822-0.911C70.804,10.123,70.904,9.68,70.904,9.186z"/>
				<path fill="#901A1D" d="M79.562,11.822l-1.313,0.527c-0.196,0.083-0.345,0.125-0.447,0.125c-0.143,0-0.28-0.088-0.411-0.264
					c-0.131-0.176-0.239-0.392-0.322-0.647c-1.096,0.607-1.942,0.911-2.538,0.911c-0.732,0-1.099-0.42-1.099-1.26
					c0-0.405,0.049-0.706,0.147-0.902c0.098-0.197,0.257-0.352,0.478-0.465c0.447-0.227,0.92-0.395,1.42-0.505
					s1.025-0.204,1.573-0.281l0.045-1.1c0.006-0.077,0.009-0.182,0.009-0.312c0-0.298-0.027-0.522-0.081-0.675
					c-0.054-0.151-0.146-0.293-0.277-0.424c-0.352-0.352-0.718-0.527-1.099-0.527c-0.185,0-0.371,0.052-0.559,0.156
					c-0.188,0.104-0.281,0.252-0.281,0.442c0,0.095,0.03,0.223,0.089,0.384l-1.099,0.491c-0.048-0.19-0.072-0.33-0.072-0.42
					c0-0.304,0.187-0.585,0.559-0.844c0.373-0.26,0.792-0.47,1.26-0.63c0.467-0.161,0.793-0.241,0.978-0.241
					c0.161,0,0.356,0.068,0.585,0.205s0.424,0.28,0.585,0.429c0.113,0.113,0.207,0.231,0.281,0.354s0.139,0.308,0.192,0.559
					c0.053,0.25,0.08,0.568,0.08,0.956c0,0.113-0.015,0.512-0.044,1.197l-0.036,0.67c-0.006,0.19-0.012,0.343-0.018,0.456
					s-0.012,0.217-0.018,0.312c0,0.244,0.031,0.506,0.094,0.786c0.062,0.28,0.198,0.42,0.406,0.42c0.244,0,0.554-0.083,0.929-0.25
					V11.822z M77.07,9.552c-0.083-0.006-0.206-0.009-0.367-0.009c-0.673,0-1.215,0.119-1.626,0.357s-0.617,0.524-0.617,0.857
					c0,0.269,0.073,0.521,0.219,0.76s0.347,0.357,0.604,0.357c0.286,0,0.864-0.215,1.733-0.644
					c-0.006-0.054-0.009-0.151-0.009-0.295C77.007,10.598,77.028,10.136,77.07,9.552z"/>
				<path fill="#901A1D" d="M87.944,12.332c-0.369-0.06-0.888-0.09-1.555-0.09c-0.613,0-1.212,0.03-1.796,0.09v-0.26
					c0.56-0.107,0.896-0.276,1.01-0.509c0.071-0.144,0.122-0.392,0.152-0.746s0.05-0.703,0.062-1.046
					c0.012-0.343,0.018-0.653,0.018-0.934c0-0.53-0.022-0.964-0.067-1.3c-0.044-0.337-0.168-0.626-0.371-0.867
					s-0.519-0.361-0.947-0.361c-0.19,0-0.479,0.038-0.867,0.115c-0.387,0.078-0.843,0.254-1.367,0.527l-0.054,2.396
					c-0.012,0.655-0.018,1.016-0.018,1.081c0,0.31,0.018,0.622,0.053,0.938c0.024,0.203,0.1,0.349,0.228,0.438
					c0.128,0.089,0.442,0.16,0.943,0.214l-0.018,0.277c-0.328-0.036-0.828-0.054-1.501-0.054h-1.957l-0.018-0.295
					c0.322-0.06,0.557-0.122,0.706-0.188s0.247-0.14,0.295-0.224c0.048-0.083,0.081-0.196,0.098-0.339
					c0.048-0.328,0.081-0.73,0.099-1.207c0.018-0.477,0.027-0.959,0.027-1.447c0-0.685-0.022-1.152-0.067-1.403
					c-0.044-0.25-0.14-0.409-0.286-0.478s-0.418-0.124-0.818-0.165c0-0.078-0.006-0.135-0.018-0.17
					c0.22-0.054,0.552-0.176,0.996-0.366c0.444-0.191,0.678-0.298,0.702-0.322c0.006-0.018,0.064-0.054,0.174-0.107
					c0.11-0.053,0.186-0.08,0.228-0.08c0.089,0,0.146,0.087,0.17,0.259c0.024,0.173,0.036,0.459,0.036,0.858
					c0.655-0.369,1.194-0.633,1.617-0.791c0.423-0.157,0.828-0.236,1.215-0.236c0.578,0,1,0.126,1.265,0.379
					c0.265,0.254,0.429,0.562,0.491,0.925c0.062,0.364,0.094,0.844,0.094,1.439v2.126c0,0.84,0.039,1.299,0.116,1.376
					c0.042,0.042,0.194,0.093,0.456,0.152c0.262,0.06,0.414,0.099,0.456,0.116L87.944,12.332z"/>
			</g>
			<g enable-background="new    ">
				<path fill="#901A1D" d="M96.46,12.313c-0.084-0.012-0.172-0.022-0.264-0.031c-0.093-0.009-0.174-0.015-0.242-0.018
					s-0.225-0.005-0.469-0.005h-0.697c-0.643,0-1.167,0.019-1.572,0.054v-0.312c0.065-0.018,0.166-0.036,0.299-0.054
					c0.135-0.018,0.24-0.037,0.318-0.058c0.076-0.021,0.115-0.05,0.115-0.085c0-0.06-0.096-0.204-0.285-0.434
					c-0.191-0.229-0.346-0.403-0.465-0.522c-0.488-0.495-0.933-0.933-1.332-1.313l-0.59-0.536c-0.041-0.048-0.129-0.127-0.264-0.237
					c-0.133-0.11-0.221-0.165-0.264-0.165c-0.101,0-0.151,0.104-0.151,0.312v0.956c0,0.561,0.005,0.961,0.014,1.202
					s0.028,0.42,0.058,0.536c0.03,0.116,0.08,0.189,0.152,0.219c0.143,0.06,0.429,0.119,0.857,0.179l-0.018,0.312
					c-0.311-0.047-0.688-0.071-1.135-0.071c-0.661,0-1.373,0.024-2.136,0.071v-0.295c0.28-0.029,0.49-0.072,0.63-0.129
					s0.241-0.144,0.304-0.26c0.063-0.116,0.103-0.267,0.121-0.451c0.047-0.411,0.08-1.075,0.098-1.992
					c0.018-0.918,0.031-1.824,0.04-2.721s0.014-1.602,0.014-2.113c0-1.329-0.057-2.201-0.17-2.618
					c-0.083-0.257-0.224-0.385-0.42-0.385c-0.095,0-0.201,0.021-0.317,0.062c-0.116,0.042-0.204,0.078-0.264,0.107l0.018-0.295
					c0.047-0.029,0.121-0.069,0.219-0.12c0.099-0.051,0.182-0.093,0.25-0.125c0.068-0.033,0.161-0.076,0.277-0.13
					s0.228-0.104,0.335-0.152c0.375-0.16,0.649-0.287,0.822-0.38c0.173-0.092,0.301-0.197,0.384-0.316H91
					c-0.065,0.214-0.124,0.627-0.175,1.237s-0.089,1.299-0.115,2.064c-0.027,0.765-0.049,1.498-0.062,2.197
					c-0.016,0.7-0.025,1.214-0.031,1.542l-0.019,1.224c0.119-0.041,0.386-0.199,0.8-0.474c0.414-0.273,0.779-0.558,1.095-0.853
					s0.474-0.535,0.474-0.72c0-0.244-0.221-0.378-0.661-0.402V5.558h0.821c0.209,0,0.404,0.001,0.586,0.004
					c0.182,0.004,0.383,0.008,0.604,0.014c0.303,0,0.631-0.003,0.982-0.009s0.518-0.009,0.5-0.009l-0.035,0.33
					c-0.375,0.036-0.729,0.127-1.059,0.273c-0.331,0.146-0.803,0.421-1.417,0.826l-1.536,1.027c0.113,0.107,0.328,0.312,0.647,0.617
					c0.318,0.304,0.88,0.854,1.685,1.652c0.459,0.436,0.786,0.739,0.982,0.912c0.197,0.173,0.398,0.326,0.607,0.46
					s0.359,0.219,0.451,0.255c0.093,0.035,0.205,0.065,0.336,0.089V12.313z"/>
			</g>
			<g enable-background="new    ">
				<path fill="#901A1D" d="M102.336,7.649l-4.468,0.965c0.029,0.561,0.085,0.993,0.166,1.301c0.08,0.307,0.239,0.617,0.478,0.934
					c0.458,0.602,1.013,0.902,1.662,0.902c0.268,0,0.554-0.051,0.857-0.152c0.304-0.101,0.641-0.282,1.01-0.545l0.161,0.215
					c-1.037,0.744-1.957,1.117-2.762,1.117c-0.852,0-1.516-0.322-1.992-0.966c-0.477-0.643-0.715-1.382-0.715-2.216
					c0-0.852,0.182-1.56,0.545-2.122s0.771-0.973,1.225-1.229c0.452-0.256,0.795-0.385,1.027-0.385c0.268,0,0.547,0.044,0.836,0.13
					c0.289,0.087,0.571,0.252,0.848,0.496c0.277,0.244,0.508,0.578,0.693,1.001c0.053,0.089,0.104,0.148,0.152,0.179
					c0.047,0.029,0.133,0.044,0.258,0.044L102.336,7.649z M100.942,7.444c0-0.096-0.072-0.258-0.215-0.487s-0.348-0.439-0.611-0.63
					c-0.266-0.19-0.577-0.286-0.935-0.286c-0.446,0-0.764,0.235-0.952,0.706c-0.188,0.471-0.302,0.977-0.344,1.519l1.171-0.25
					c0.006-0.006,0.163-0.045,0.474-0.116c0.31-0.071,0.542-0.125,0.697-0.16c0.291-0.06,0.483-0.107,0.576-0.144
					C100.895,7.559,100.942,7.51,100.942,7.444z"/>
				<path fill="#901A1D" d="M111.083,12.332c-0.369-0.06-0.887-0.09-1.555-0.09c-0.613,0-1.212,0.03-1.795,0.09v-0.26
					c0.56-0.107,0.896-0.276,1.01-0.509c0.07-0.144,0.121-0.392,0.151-0.746s0.05-0.703,0.062-1.046
					c0.012-0.343,0.019-0.653,0.019-0.934c0-0.53-0.023-0.964-0.068-1.3c-0.044-0.337-0.168-0.626-0.37-0.867
					s-0.519-0.361-0.947-0.361c-0.19,0-0.479,0.038-0.866,0.115c-0.388,0.078-0.844,0.254-1.367,0.527l-0.055,2.396
					c-0.012,0.655-0.018,1.016-0.018,1.081c0,0.31,0.018,0.622,0.054,0.938c0.024,0.203,0.101,0.349,0.228,0.438
					c0.129,0.089,0.443,0.16,0.943,0.214l-0.018,0.277c-0.328-0.036-0.828-0.054-1.502-0.054h-1.957l-0.018-0.295
					c0.322-0.06,0.557-0.122,0.706-0.188s0.247-0.14,0.295-0.224c0.048-0.083,0.081-0.196,0.099-0.339
					c0.047-0.328,0.08-0.73,0.098-1.207s0.027-0.959,0.027-1.447c0-0.685-0.022-1.152-0.067-1.403
					c-0.044-0.25-0.14-0.409-0.286-0.478c-0.146-0.068-0.418-0.124-0.817-0.165c0-0.078-0.006-0.135-0.018-0.17
					c0.22-0.054,0.552-0.176,0.996-0.366c0.444-0.191,0.678-0.298,0.702-0.322c0.006-0.018,0.063-0.054,0.174-0.107
					c0.109-0.053,0.186-0.08,0.228-0.08c0.089,0,0.146,0.087,0.17,0.259c0.024,0.173,0.036,0.459,0.036,0.858
					c0.654-0.369,1.193-0.633,1.617-0.791c0.423-0.157,0.828-0.236,1.215-0.236c0.578,0,1,0.126,1.265,0.379
					c0.265,0.254,0.429,0.562,0.491,0.925c0.062,0.364,0.094,0.844,0.094,1.439v2.126c0,0.84,0.039,1.299,0.116,1.376
					c0.042,0.042,0.194,0.093,0.456,0.152s0.414,0.099,0.455,0.116L111.083,12.332z"/>
				<path fill="#901A1D" d="M114.257,11.527c0,0.09-0.051,0.164-0.152,0.224c-0.262,0.119-0.498,0.349-0.706,0.688
					c-0.083,0.138-0.17,0.206-0.259,0.206c-0.102,0-0.193-0.062-0.277-0.188c-0.107-0.197-0.201-0.34-0.281-0.429
					c-0.08-0.09-0.213-0.183-0.398-0.277c-0.083-0.06-0.137-0.102-0.16-0.125c-0.023-0.024-0.036-0.068-0.036-0.134
					c0-0.084,0.077-0.176,0.232-0.277c0.263-0.137,0.488-0.381,0.679-0.732c0.066-0.096,0.146-0.144,0.242-0.144
					c0.101,0,0.178,0.048,0.232,0.144c0.053,0.095,0.08,0.163,0.08,0.205c-0.006,0,0.049,0.076,0.165,0.228
					c0.116,0.152,0.255,0.27,0.415,0.354c0.107,0.048,0.172,0.086,0.193,0.116C114.245,11.414,114.257,11.462,114.257,11.527z"/>
				<path fill="#901A1D" d="M120.153,10.428c0,0.208-0.043,0.43-0.13,0.665s-0.216,0.404-0.389,0.505
					c-0.494,0.316-0.902,0.521-1.224,0.612c-0.322,0.093-0.65,0.139-0.983,0.139c-0.119,0-0.289-0.015-0.509-0.045
					c-0.221-0.029-0.375-0.054-0.465-0.071s-0.244-0.06-0.465-0.125s-0.363-0.107-0.429-0.125c0.048-0.238,0.071-0.408,0.071-0.51
					c0-0.148-0.025-0.353-0.076-0.612c-0.051-0.259-0.1-0.451-0.147-0.576l0.313,0.019c0,0.112,0.096,0.298,0.29,0.554
					c0.193,0.256,0.454,0.487,0.782,0.692c0.327,0.205,0.685,0.309,1.072,0.309c0.279,0,0.56-0.06,0.84-0.179
					c0.279-0.119,0.42-0.379,0.42-0.777c0-0.686-0.477-1.239-1.43-1.662l-0.67-0.313c-0.858-0.398-1.287-0.899-1.287-1.501
					c0-0.273,0.098-0.562,0.295-0.862c0.196-0.301,0.48-0.549,0.854-0.746c0.371-0.196,0.793-0.295,1.264-0.295
					c0.286,0,0.763,0.045,1.43,0.135l0.295,1.519h-0.312c-0.054-0.208-0.178-0.406-0.371-0.594c-0.193-0.188-0.42-0.348-0.679-0.479
					s-0.481-0.196-0.666-0.196c-0.315,0-0.571,0.098-0.769,0.295c-0.196,0.196-0.295,0.446-0.295,0.75
					c0,0.244,0.072,0.439,0.215,0.586c0.143,0.146,0.414,0.316,0.812,0.514l0.545,0.259c0.495,0.232,0.918,0.505,1.27,0.817
					C119.977,9.441,120.153,9.874,120.153,10.428z"/>
				<path fill="#901A1D" d="M127.149,7.649l-4.467,0.965c0.029,0.561,0.084,0.993,0.165,1.301c0.08,0.307,0.239,0.617,0.478,0.934
					c0.459,0.602,1.014,0.902,1.662,0.902c0.268,0,0.555-0.051,0.857-0.152c0.305-0.101,0.641-0.282,1.01-0.545l0.162,0.215
					c-1.037,0.744-1.957,1.117-2.762,1.117c-0.852,0-1.516-0.322-1.992-0.966c-0.477-0.643-0.715-1.382-0.715-2.216
					c0-0.852,0.182-1.56,0.545-2.122s0.771-0.973,1.224-1.229s0.796-0.385,1.028-0.385c0.268,0,0.546,0.044,0.835,0.13
					c0.289,0.087,0.571,0.252,0.849,0.496s0.508,0.578,0.693,1.001c0.053,0.089,0.104,0.148,0.151,0.179
					c0.048,0.029,0.134,0.044,0.259,0.044L127.149,7.649z M125.756,7.444c0-0.096-0.071-0.258-0.214-0.487
					c-0.144-0.229-0.348-0.439-0.612-0.63s-0.577-0.286-0.935-0.286c-0.446,0-0.764,0.235-0.951,0.706s-0.303,0.977-0.344,1.519
					l1.17-0.25c0.006-0.006,0.164-0.045,0.475-0.116c0.309-0.071,0.541-0.125,0.696-0.16c0.292-0.06,0.483-0.107,0.577-0.144
					C125.71,7.559,125.756,7.51,125.756,7.444z"/>
			</g>
		</g>
	</g>
</g>
</svg>
