<?xml version="1.0" encoding="utf-8"?>
<!-- Generator: Adobe Illustrator 24.1.0, SVG Export Plug-In . SVG Version: 6.00 Build 0)  -->
<svg version="1.1" id="Layer_1" xmlns="http://www.w3.org/2000/svg" xmlns:xlink="http://www.w3.org/1999/xlink" x="0px" y="0px"
	 viewBox="0 0 100 73" style="enable-background:new 0 0 100 73;" xml:space="preserve">
<style type="text/css">
	.st0{fill:#8A1702;}
</style>
<g>
	<path class="st0" d="M20.7,36.8h-2l-4.4-16.1l0.1,7.7v8.4h-1.6V17.3h2.1l4.2,15.6l0-7.4v-8.2h1.6V36.8z"/>
	<path class="st0" d="M30.4,17.3l-3.2,12.8v6.7h-1.7v-6.7l-3.2-12.8H24l2.3,10.3l2.4-10.3H30.4z"/>
	<path class="st0" d="M35.6,17.2l3.3,19.6h-1.6l-0.6-3.7h-4.2L32,36.8h-1.6l3.3-19.6H35.6z M34.6,20l-1.8,11.6h3.7L34.6,20z"/>
	<path class="st0" d="M48.5,36.9h-1.8l-3.2-19.6h1.7l2.4,16.2l2.5-16.2h1.6L48.5,36.9z"/>
	<path class="st0" d="M57.4,17.2l3.3,19.6h-1.6l-0.6-3.7h-4.2l-0.6,3.7h-1.6l3.3-19.6H57.4z M55.6,14.1V16h-1.4v-1.9H55.6z M56.4,20
		l-1.8,11.6h3.7L56.4,20z M57.3,16v-1.9h1.4V16H57.3z"/>
	<path class="st0" d="M68.4,28.2h-2.2v-1.6h3.8v6.9c0,2.3-1.1,3.4-3.4,3.4h-0.9c-2.3,0-3.4-1.1-3.4-3.4v-13c0-2.3,1.1-3.4,3.4-3.4
		h0.9c2.2,0,3.4,1.1,3.4,3.4v2.9h-1.6v-2.9c0-1.2-0.6-1.8-1.8-1.8h-0.7c-1.2,0-1.8,0.6-1.8,1.8v13.2c0,1.2,0.6,1.8,1.8,1.8h0.8
		c1.2,0,1.8-0.6,1.8-1.8V28.2z"/>
	<path class="st0" d="M77,17.2l3.3,19.6h-1.6l-0.6-3.7h-4.2l-0.6,3.7h-1.6L75,17.2H77z M76,20l-1.8,11.6h3.7L76,20z"/>
	<path class="st0" d="M87.7,27.5c1.2,0.3,1.9,1.3,1.9,2.8v6.6h-1.7v-6.5c0-1.4-0.7-2-2.1-2h-1.9v8.5h-1.7V17.3h3.9
		c2.3,0,3.4,1.1,3.4,3.4v3.7C89.5,26,88.9,27,87.7,27.5z M87.8,24.7v-4.1c0-1.2-0.6-1.8-1.8-1.8h-2.1v7.9h1.9
		C87.2,26.7,87.8,26.1,87.8,24.7z"/>
</g>
<path d="M13.1,47.6l-0.7,3.3c-0.1,0.4-0.1,0.6-0.1,0.8c0,0.2,0.1,0.4,0.2,0.6c0.1,0.1,0.3,0.2,0.4,0.2c0.2,0,0.3-0.1,0.5-0.2
	c0.1-0.1,0.4-0.3,0.7-0.6l0.1-0.1l0.1,0.1c-0.4,0.5-0.7,0.8-1,1C13,52.9,12.8,53,12.5,53c-0.3,0-0.6-0.1-0.8-0.3s-0.3-0.5-0.3-0.8
	c0-0.2,0-0.6,0.1-1.1l0.6-3.2h-0.9l0.1-0.3h0.9l0.6-2.7l0.9-0.4l-0.7,3h1.6l-0.1,0.3H13.1z M16.8,47.1l-0.9,3.2
	c-0.1,0.5-0.2,1-0.2,1.3c0,0.2,0,0.4,0.1,0.5c0.1,0.1,0.2,0.2,0.3,0.2c0.2,0,0.5-0.2,1-0.7l0.2,0.1l-0.1,0.1
	c-0.4,0.4-0.7,0.7-0.8,0.9S16,53,15.8,53c-0.2,0-0.4-0.1-0.5-0.3c-0.1-0.2-0.2-0.5-0.2-0.8c0-0.2,0-0.5,0.1-0.9l0.6-3.5L16.8,47.1z
	 M17.1,43.3c0.2,0,0.3,0.1,0.4,0.2c0.1,0.1,0.2,0.2,0.2,0.4c0,0.2-0.1,0.3-0.2,0.4c-0.1,0.1-0.2,0.2-0.4,0.2c-0.2,0-0.3-0.1-0.4-0.2
	c-0.1-0.1-0.2-0.3-0.2-0.4c0-0.2,0.1-0.3,0.2-0.4C16.8,43.3,16.9,43.3,17.1,43.3z M21.4,39l-2.6,11.4l-0.1,0.4
	c-0.1,0.4-0.1,0.7-0.1,0.9c0,0.2,0,0.4,0.1,0.5c0.1,0.1,0.2,0.2,0.3,0.2c0.2,0,0.5-0.2,1-0.7l0.2,0.1L20,51.9
	c-0.4,0.4-0.7,0.7-0.8,0.9S18.9,53,18.7,53c-0.2,0-0.4-0.1-0.5-0.3c-0.1-0.2-0.2-0.5-0.2-0.8c0-0.2,0-0.5,0.1-0.9l2.3-11.5L21.4,39z
	 M24.3,39l-2.6,11.4l-0.1,0.4c-0.1,0.4-0.1,0.7-0.1,0.9c0,0.2,0,0.4,0.1,0.5c0.1,0.1,0.2,0.2,0.3,0.2c0.2,0,0.5-0.2,1-0.7l0.2,0.1
	L23,51.9c-0.4,0.4-0.7,0.7-0.8,0.9S21.8,53,21.6,53c-0.2,0-0.4-0.1-0.5-0.3c-0.1-0.2-0.2-0.5-0.2-0.8c0-0.2,0-0.5,0.1-0.9l2.3-11.5
	L24.3,39z M34.2,39l-2.6,11.4c-0.1,0.6-0.2,1-0.2,1.3c0,0.2,0,0.4,0.1,0.5c0.1,0.1,0.2,0.2,0.3,0.2c0.2,0,0.4-0.1,0.6-0.4l0.3-0.3
	c0,0,0,0,0,0c0,0,0,0,0,0l0.1,0.1l-0.1,0.1c-0.3,0.3-0.4,0.4-0.4,0.4l-0.3,0.3c-0.2,0.2-0.3,0.3-0.4,0.3c-0.1,0-0.2,0.1-0.3,0.1
	c-0.2,0-0.4-0.1-0.5-0.3c-0.1-0.2-0.2-0.5-0.2-0.8c0-0.2,0-0.5,0.1-0.9l0.1-0.6c-0.2,0.4-0.4,0.9-0.8,1.4c-0.7,0.9-1.3,1.3-1.9,1.3
	c-0.4,0-0.7-0.1-0.9-0.4C27.1,52.3,27,52,27,51.5c0-0.7,0.2-1.3,0.5-2c0.3-0.7,0.8-1.2,1.3-1.7c0.5-0.4,1.1-0.7,1.6-0.7
	c0.4,0,0.7,0.1,1.1,0.3l1.6-8.1L34.2,39z M31.4,48.1c-0.1-0.2-0.2-0.3-0.4-0.4c-0.2-0.1-0.4-0.2-0.6-0.2c-0.3,0-0.6,0.1-1,0.4
	c-0.3,0.3-0.6,0.7-0.9,1.2c-0.2,0.4-0.4,0.8-0.5,1.2c-0.1,0.4-0.2,0.8-0.2,1.2c0,0.3,0.1,0.6,0.2,0.8c0.1,0.2,0.3,0.3,0.6,0.3
	c0.3,0,0.6-0.1,0.9-0.4c0.3-0.3,0.6-0.7,1-1.2c0.2-0.4,0.4-0.7,0.5-1.1c0.2-0.5,0.3-0.9,0.3-1.2L31.4,48.1z M37.5,51.4l0.2,0.1
	c-0.4,0.5-0.8,0.9-1.2,1.2c-0.4,0.2-0.8,0.4-1.3,0.4c-0.5,0-1-0.2-1.3-0.5c-0.3-0.4-0.5-0.8-0.5-1.4c0-0.6,0.2-1.2,0.5-1.8
	c0.3-0.6,0.7-1.1,1.2-1.5c0.5-0.4,0.9-0.6,1.4-0.6c0.3,0,0.5,0.1,0.7,0.2c0.2,0.2,0.3,0.4,0.3,0.6c0,0.5-0.3,1-0.8,1.5
	c-0.6,0.5-1.3,0.9-2.3,1.3c0,0.1,0,0.1,0,0.2c0,0.5,0.1,0.8,0.4,1.1c0.2,0.3,0.6,0.4,1,0.4c0.3,0,0.6-0.1,0.9-0.3
	C36.9,52.1,37.2,51.8,37.5,51.4z M34.3,50.6c0.7-0.3,1.3-0.7,1.6-1.1c0.3-0.3,0.5-0.5,0.6-0.8c0.2-0.3,0.2-0.6,0.2-0.8
	c0-0.3-0.1-0.5-0.4-0.5c-0.4,0-0.9,0.3-1.3,1C34.7,49.1,34.4,49.8,34.3,50.6z M40.2,47.6l-0.7,3.3c-0.1,0.4-0.1,0.6-0.1,0.8
	c0,0.2,0.1,0.4,0.2,0.6c0.1,0.1,0.3,0.2,0.4,0.2c0.2,0,0.3-0.1,0.5-0.2c0.1-0.1,0.4-0.3,0.7-0.6l0.1-0.1l0.1,0.1
	c-0.4,0.5-0.7,0.8-1,1c-0.3,0.2-0.5,0.3-0.8,0.3c-0.3,0-0.6-0.1-0.8-0.3c-0.2-0.2-0.3-0.5-0.3-0.8c0-0.2,0-0.6,0.1-1.1l0.6-3.2h-0.9
	l0.1-0.3h0.9l0.6-2.7l0.9-0.4l-0.7,3h1.6l-0.1,0.3H40.2z M46.7,47.6h-1l0.1-0.3h1l0.9-4.3c0.2-0.7,0.3-1.3,0.5-1.7
	c0.2-0.4,0.4-0.8,0.6-1.1c0.6-0.8,1.3-1.1,2.1-1.1c0.3,0,0.5,0,0.8,0.1L51.3,40c-0.3-0.4-0.6-0.6-1-0.6c-0.3,0-0.6,0.1-0.8,0.4
	c-0.2,0.2-0.4,0.6-0.5,1.2l-1.5,6.3h1.6l-0.1,0.3h-1.6l-1.4,5.6c-0.2,0.7-0.4,1.3-0.5,1.7c-0.2,0.4-0.4,0.7-0.7,1
	c-0.5,0.6-1.1,0.9-1.7,0.9c-0.3,0-0.6-0.1-0.8-0.2l0.5-0.7c0.3,0.2,0.6,0.3,0.9,0.3c0.5,0,0.9-0.3,1.1-0.8c0.2-0.4,0.4-1,0.6-1.9
	L46.7,47.6z M48.7,51c0-0.6,0.2-1.2,0.5-1.8c0.3-0.6,0.7-1.1,1.2-1.4c0.5-0.4,1-0.6,1.5-0.6c0.6,0,1,0.2,1.3,0.5
	c0.3,0.4,0.5,0.8,0.5,1.4c0,0.6-0.2,1.2-0.5,1.8c-0.3,0.6-0.7,1.1-1.2,1.5c-0.5,0.4-1,0.6-1.5,0.6c-0.6,0-1-0.2-1.4-0.6
	C48.9,52.1,48.7,51.6,48.7,51z M52.9,48.8c0-0.4-0.1-0.7-0.3-1c-0.2-0.3-0.4-0.4-0.7-0.4c-0.3,0-0.5,0.1-0.8,0.3
	c-0.3,0.2-0.5,0.4-0.7,0.8c-0.2,0.4-0.4,0.9-0.6,1.4c-0.2,0.5-0.2,1-0.2,1.4c0,0.5,0.1,0.9,0.3,1.1c0.2,0.3,0.5,0.4,0.8,0.4
	c0.6,0,1.1-0.4,1.5-1.2c0.2-0.4,0.4-0.9,0.5-1.4C52.9,49.7,52.9,49.3,52.9,48.8z M51.6,45.1c0.1,0,0.2,0,0.2,0.1
	c0.1,0,0.1,0.1,0.2,0.2c0,0.1,0.1,0.1,0.1,0.2c0,0.1,0,0.2-0.1,0.3C51.8,46,51.7,46,51.6,46c-0.1,0-0.2,0-0.3-0.1
	c-0.1-0.1-0.1-0.2-0.1-0.3c0-0.1,0-0.2,0.1-0.3C51.3,45.1,51.4,45.1,51.6,45.1z M53.1,45.1c0.1,0,0.2,0,0.2,0.1
	c0.1,0,0.1,0.1,0.2,0.2c0,0.1,0.1,0.1,0.1,0.2c0,0.1,0,0.2-0.1,0.3C53.4,46,53.2,46,53.1,46c-0.1,0-0.2,0-0.3-0.1
	c-0.1-0.1-0.1-0.2-0.1-0.3c0-0.1,0-0.2,0.1-0.3C52.9,45.1,53,45.1,53.1,45.1z M54.6,50.1c0.6-0.7,0.9-1.3,1.1-1.9
	c-0.5-0.3-0.8-0.7-0.8-1.3c0-0.3,0.1-0.5,0.2-0.6c0.1-0.2,0.3-0.2,0.5-0.2c0.2,0,0.4,0.1,0.5,0.3c0.1,0.2,0.2,0.4,0.2,0.7
	c0,0.2,0,0.4-0.1,0.7c0.2,0,0.3,0.1,0.5,0.1c0.4,0,0.7-0.1,1-0.4h0.5l-0.1,0.1c-0.5,0.9-0.9,1.7-1.2,2.6c-0.3,0.8-0.5,1.5-0.5,1.9
	c0,0.2,0,0.3,0.1,0.4c0.1,0.1,0.2,0.2,0.3,0.2c0.3,0,0.7-0.3,1.3-0.9l0.2,0.2c-0.2,0.2-0.5,0.5-0.9,0.8c-0.3,0.3-0.7,0.4-1,0.4
	c-0.3,0-0.5-0.1-0.6-0.3s-0.2-0.4-0.2-0.7c0-0.5,0.2-1.1,0.6-1.9c0.1-0.3,0.3-0.6,0.5-1c0.2-0.4,0.5-0.8,0.8-1.3l0.1-0.1
	c-0.2,0.2-0.4,0.3-0.6,0.4c-0.2,0.1-0.4,0.1-0.7,0.1c-0.1,0-0.2,0-0.4,0c-0.2,0.6-0.6,1.3-1.2,2L54.6,50.1z M55.4,46.8
	c0,0.3,0.2,0.6,0.6,0.8c0-0.2,0-0.3,0-0.4c0-0.2,0-0.4-0.1-0.5c-0.1-0.1-0.2-0.2-0.3-0.2c-0.1,0-0.1,0-0.2,0.1
	C55.4,46.6,55.4,46.7,55.4,46.8L55.4,46.8z M61,47.6l-1.4,5.5l0,0.1c-0.2,0.7-0.3,1.3-0.5,1.6c-0.2,0.4-0.4,0.7-0.7,1
	c-0.5,0.6-1.1,0.9-1.7,0.9c-0.3,0-0.6-0.1-0.8-0.2l0.5-0.7c0.3,0.2,0.6,0.3,0.9,0.3c0.6,0,1-0.4,1.2-1.1c0.2-0.5,0.3-1,0.5-1.6
	l1.3-5.9h-1l0.1-0.3h1l1-4.4c0.2-0.7,0.3-1.2,0.4-1.6c0.1-0.4,0.3-0.7,0.5-1c0.6-0.8,1.4-1.3,2.4-1.3c0.5,0,0.9,0.1,1.3,0.3l-2.5,11
	l-0.1,0.4c-0.1,0.4-0.1,0.7-0.1,0.9c0,0.2,0,0.4,0.1,0.5c0.1,0.1,0.2,0.2,0.3,0.2c0.2,0,0.5-0.2,1-0.7l0.2,0.1l-0.1,0.1
	c-0.4,0.4-0.7,0.7-0.8,0.9c-0.2,0.2-0.3,0.2-0.5,0.2c-0.2,0-0.4-0.1-0.5-0.3c-0.1-0.2-0.2-0.5-0.2-0.8c0-0.2,0-0.5,0.1-0.9l2.2-11.2
	c-0.3-0.2-0.6-0.3-1-0.3c-0.3,0-0.5,0.1-0.7,0.2c-0.2,0.1-0.3,0.3-0.5,0.7c-0.1,0.3-0.3,0.8-0.4,1.4L62,43.4l-0.9,3.9h1.6l-0.1,0.3
	H61z M67.2,47.1l-1,3.8c-0.1,0.3-0.1,0.6-0.1,0.9c0,0.2,0.1,0.4,0.2,0.6c0.1,0.1,0.3,0.2,0.6,0.2c0.6,0,1.1-0.5,1.7-1.4l0-0.1
	c0-0.1,0-0.1,0-0.2l0.6-3.5l1-0.4l-0.9,3.2c-0.1,0.5-0.2,1-0.2,1.3c0,0.2,0,0.4,0.1,0.5c0.1,0.1,0.2,0.2,0.3,0.2
	c0.2,0,0.5-0.2,1-0.7l0.2,0.1l-0.1,0.1c-0.4,0.4-0.7,0.7-0.8,0.9c-0.2,0.2-0.3,0.2-0.5,0.2c-0.2,0-0.4-0.1-0.5-0.3
	c-0.1-0.2-0.2-0.5-0.2-0.8c0-0.1,0-0.2,0-0.3c-0.7,0.9-1.4,1.4-2,1.4c-0.3,0-0.6-0.1-0.8-0.3c-0.2-0.2-0.3-0.5-0.3-0.8
	c0-0.2,0-0.6,0.1-0.9l0.7-3.5L67.2,47.1z M73.1,47.6l-0.7,3.3c-0.1,0.4-0.1,0.6-0.1,0.8c0,0.2,0.1,0.4,0.2,0.6
	c0.1,0.1,0.3,0.2,0.4,0.2c0.2,0,0.3-0.1,0.5-0.2c0.1-0.1,0.4-0.3,0.7-0.6l0.1-0.1l0.1,0.1c-0.4,0.5-0.7,0.8-1,1
	c-0.3,0.2-0.5,0.3-0.8,0.3c-0.3,0-0.6-0.1-0.8-0.3c-0.2-0.2-0.3-0.5-0.3-0.8c0-0.2,0-0.6,0.1-1.1l0.6-3.2h-0.9l0.1-0.3h0.9l0.6-2.7
	l0.9-0.4l-0.7,3h1.6l-0.1,0.3H73.1z M75,53l1-5.5l0.9-0.4l-0.8,3.6c0.5-1.2,1.1-2,1.6-2.6c0.5-0.6,1.1-0.9,1.5-0.9
	c0.2,0,0.4,0.1,0.6,0.2c0.2,0.2,0.2,0.4,0.2,0.6c0,0.2,0,0.4-0.1,0.6l-0.1,0.4l-0.3,1.2l-0.1,0.4c-0.1,0.4-0.1,0.7-0.1,0.9
	c0,0.2,0,0.4,0.1,0.5c0.1,0.1,0.2,0.2,0.3,0.2c0.2,0,0.5-0.2,1-0.7l0.2,0.1l-0.1,0.1c-0.4,0.4-0.7,0.7-0.8,0.9S79.6,53,79.5,53
	c-0.2,0-0.4-0.1-0.5-0.3c-0.1-0.2-0.2-0.5-0.2-0.8c0-0.2,0-0.5,0.1-0.9l0.4-2.1c0.1-0.3,0.1-0.6,0.1-0.7c0-0.1,0-0.2-0.1-0.3
	c-0.1-0.1-0.2-0.1-0.3-0.1c-0.5,0-1,0.5-1.7,1.5c-0.3,0.5-0.6,0.9-0.8,1.4c-0.2,0.5-0.4,1.1-0.7,1.9l-0.1,0.3L75,53z M87,47.1
	L86,50.7c-0.1,0.4-0.1,0.7-0.1,0.9c0,0.2,0,0.4,0.1,0.5c0.1,0.1,0.2,0.2,0.3,0.2c0.2,0,0.5-0.2,0.9-0.7l0.1,0.1l-0.1,0.1
	c-0.3,0.4-0.6,0.7-0.8,0.8S86.2,53,86,53c-0.2,0-0.4-0.1-0.5-0.3c-0.2-0.2-0.2-0.5-0.2-0.8c0-0.2,0.1-0.7,0.2-1.4l0.1-0.4
	c-0.2,0.6-0.6,1.1-1,1.6c-0.7,0.9-1.3,1.3-2,1.3c-0.4,0-0.7-0.1-0.9-0.4c-0.2-0.3-0.3-0.6-0.3-1.1c0-0.6,0.2-1.3,0.5-1.9
	c0.4-0.7,0.8-1.2,1.3-1.7c0.5-0.4,1-0.7,1.5-0.7c0.5,0,0.9,0.2,1.2,0.6l0.1-0.4L87,47.1z M85.8,48.3c-0.1-0.2-0.2-0.4-0.4-0.6
	c-0.2-0.1-0.4-0.2-0.6-0.2c-0.3,0-0.6,0.1-0.9,0.4c-0.3,0.3-0.6,0.6-0.9,1.1c-0.2,0.4-0.4,0.8-0.5,1.2c-0.1,0.5-0.2,0.8-0.2,1.1
	c0,0.3,0.1,0.6,0.2,0.8c0.1,0.2,0.3,0.3,0.5,0.3c0.3,0,0.6-0.1,0.9-0.4c0.3-0.3,0.7-0.7,1-1.2c0.2-0.3,0.4-0.6,0.5-0.9
	c0.1-0.3,0.2-0.7,0.4-1.3L85.8,48.3z"/>
</svg>
