<?xml version="1.0" encoding="utf-8"?>
<!-- Generator: Adobe Illustrator 15.1.0, SVG Export Plug-In . SVG Version: 6.00 Build 0)  -->
<!DOCTYPE svg PUBLIC "-//W3C//DTD SVG 1.1//EN" "http://www.w3.org/Graphics/SVG/1.1/DTD/svg11.dtd">
<svg version="1.1" id="Layer_1" xmlns="http://www.w3.org/2000/svg" xmlns:xlink="http://www.w3.org/1999/xlink" x="0px" y="0px"
	 width="800px" height="600px" viewBox="0 0 800 600" enable-background="new 0 0 800 600" xml:space="preserve">
<g>
	<path fill="#231F20" d="M370.36,577.35c-40.299,0-72.821,2.121-101.808,5.656c-1.414,0,0-3.535,0.707-4.242
		c63.63-5.656,68.579-4.949,68.579-116.655v-212.1c0-111.706-4.242-110.999-69.286-118.069c-0.707,0-1.414-2.828,0-2.828
		c28.987,3.535,49.49,4.949,89.789,4.949c16.261,0,61.509-2.828,84.133-2.828c74.942,0,137.865,34.643,137.865,101.808
		c0,43.127-45.248,90.496-108.878,101.102v1.413c91.203-1.413,150.591,44.542,150.591,108.879
		c0,76.355-63.63,136.451-165.438,136.451C433.283,580.885,386.621,577.35,370.36,577.35z M409.245,336.262
		c86.961,0,122.311-25.451,122.311-94.737c0-74.942-43.834-101.101-106.05-101.101c-10.605,0-18.382,0-30.401,2.121
		c-4.949,21.917-7.07,53.025-7.07,106.757v216.342c0,97.566,7.07,106.05,61.509,106.05c79.184,0,120.897-28.279,120.897-115.948
		c0-72.113-51.611-120.19-161.196-115.948C408.538,339.797,408.538,336.262,409.245,336.262z"/>
</g>
<g>
	<path fill="#8B0E04" d="M507.364,492.948c-26.784,0-66.216-4.464-119.785-4.464c-73.656,0-154.752,2.232-208.321,5.952
		c-1.488,0,0-4.464,0.744-4.464c77.376-8.185,78.864-4.464,78.864-122.761V144.011c0-117.552-3.72-116.809-72.168-124.249
		c-0.744,0-2.232-2.976-0.744-2.976c31.249,3.72,65.473,5.208,107.137,5.208c31.248,0,67.704-2.232,90.024-5.208
		c1.488,0,1.488,2.976,0.744,2.976c-71.424,5.952-72.168,11.16-72.168,124.249v223.201c0,96.721,8.184,105.648,47.616,105.648h40.92
		c117.553,0,119.785-8.928,129.457-52.824c0,0,3.72-0.744,3.72,0c-2.232,19.344-5.952,45.384-10.416,61.008
		C520.013,491.46,516.292,492.948,507.364,492.948z"/>
</g>
</svg>
