<?xml version="1.0" encoding="utf-8"?>
<!-- Generator: Adobe Illustrator 25.2.0, SVG Export Plug-In . SVG Version: 6.00 Build 0)  -->
<svg version="1.1" id="Layer_1" xmlns="http://www.w3.org/2000/svg" xmlns:xlink="http://www.w3.org/1999/xlink" x="0px" y="0px"
	 viewBox="0 0 469 600" style="enable-background:new 0 0 469 600;" xml:space="preserve">
<style type="text/css">
	.st0{fill:#FFFFFF;}
</style>
<g>
	<path class="st0" d="M203.4,577.3c-40.3,0-72.8,2.1-101.8,5.7c-1.4,0,0-3.5,0.7-4.2c63.6-5.7,68.6-4.9,68.6-116.7V250
		c0-111.7-4.2-111-69.3-118.1c-0.7,0-1.4-2.8,0-2.8c29,3.5,49.5,4.9,89.8,4.9c16.3,0,61.5-2.8,84.1-2.8
		c74.9,0,137.9,34.6,137.9,101.8c0,43.1-45.2,90.5-108.9,101.1v1.4c91.2-1.4,150.6,44.5,150.6,108.9c0,76.4-63.6,136.5-165.4,136.5
		C266.3,580.9,219.6,577.3,203.4,577.3z M242.2,336.3c87,0,122.3-25.5,122.3-94.7c0-74.9-43.8-101.1-106-101.1
		c-10.6,0-18.4,0-30.4,2.1c-4.9,21.9-7.1,53-7.1,106.8v216.3c0,97.6,7.1,106.1,61.5,106.1c79.2,0,120.9-28.3,120.9-115.9
		c0-72.1-51.6-120.2-161.2-115.9C241.5,339.8,241.5,336.3,242.2,336.3z"/>
</g>
<g>
	<path class="st0" d="M340.4,492.9c-26.8,0-66.2-4.5-119.8-4.5c-73.7,0-154.8,2.2-208.3,6c-1.5,0,0-4.5,0.7-4.5
		c77.4-8.2,78.9-4.5,78.9-122.8V144c0-117.6-3.7-116.8-72.2-124.2c-0.7,0-2.2-3-0.7-3C50.2,20.5,84.4,22,126.1,22
		c31.2,0,67.7-2.2,90-5.2c1.5,0,1.5,3,0.7,3c-71.4,6-72.2,11.2-72.2,124.2v223.2c0,96.7,8.2,105.6,47.6,105.6h40.9
		c117.6,0,119.8-8.9,129.5-52.8c0,0,3.7-0.7,3.7,0c-2.2,19.3-6,45.4-10.4,61C353,491.5,349.3,492.9,340.4,492.9z"/>
</g>
</svg>
