<?xml version="1.0" encoding="utf-8"?>
<!-- Generator: Adobe Illustrator 25.2.0, SVG Export Plug-In . SVG Version: 6.00 Build 0)  -->
<svg version="1.1" id="Lager_1" xmlns="http://www.w3.org/2000/svg" xmlns:xlink="http://www.w3.org/1999/xlink" x="0px" y="0px"
	 viewBox="0 0 107.6 94.8" style="enable-background:new 0 0 107.6 94.8;" xml:space="preserve">
<style type="text/css">
	.st0{fill:#002458;}
</style>
<g>
	<g>
		<path class="st0" d="M27.2,59.5h-0.7c0-0.6-0.2-3.1-3.2-3.1c-1.7,0-2.7,1.1-2.7,2.4c0,1.2,0.6,2,2.3,2.7l1.8,0.8
			c1.4,0.7,3,1.7,3,3.7c0,2.5-1.6,4.3-5,4.3c-0.3,0-2.1,0-3.6-0.5L19,66.6h0.6c0.2,1.8,1.7,3.1,3.4,3.1c1.7,0,3.2-1,3.2-2.7
			c0-1.8-1.4-2.4-2.5-3l-2.2-1c-1.5-0.7-2.6-1.8-2.6-3.4c0-2.1,1.8-3.9,4.5-3.9c1.3,0,2.5,0.3,3.7,0.5V59.5z"/>
		<path class="st0" d="M33.2,70.3l-3.3-8.2c-0.6-1.4-0.9-1.7-1.6-1.7v-0.5c0.6,0,1.3,0,2.1,0c0.7,0,1.4,0,2,0v0.5
			c-0.5,0-1,0.1-1,0.6c0,0.1,0,0.3,0.1,0.5l2.4,6l1.8-5.6c0.2-0.5,0.3-0.9,0.3-1.2c0-0.3-0.2-0.5-0.8-0.5v-0.5c0.4,0,0.9,0,1.4,0
			c0.5,0,1.1,0,1.5,0v0.5c-0.8,0-1.3,0.3-1.8,1.8l-2.8,8.2H33.2z"/>
		<path class="st0" d="M41.5,67.6c0,1.8,0.2,1.9,1.5,1.9c1.6,0,2.8-0.4,3-2l0.4,0.1c-0.1,0.8-0.1,1.7-0.1,2.5c-2.8,0-4.5,0-5.6,0
			c-0.8,0-1.4,0-1.9,0v-0.5c1.1,0,1.2-0.2,1.2-2v-5.2c0-1.8,0-2-1.2-2V60c0.5,0,1.1,0,1.9,0c1.1,0,2.6,0,5.1,0c0,0.8,0,1.6,0.1,2.5
			l-0.5,0c-0.1-1.4-0.8-1.9-2.7-1.9c-0.3,0-0.6,0-1.2,0v3.9c0.3,0,0.6,0,0.8,0c1.4,0,2-0.3,2-1.3l0.5,0c0,0.6,0,1.1,0,1.7
			c0,0.6,0,1.1,0,1.7l-0.5,0c0-1.1-0.6-1.4-2-1.4c-0.2,0-0.5,0-0.8,0V67.6z"/>
		<path class="st0" d="M49.5,70.1c-0.5,0-1.1,0-1.6,0v-0.5c1.1,0,1.2-0.2,1.2-2l0.1-5.2c0-0.2,0-0.4,0-0.5c0-1.1-0.2-1.5-1.2-1.5V60
			c0.4,0,0.8,0,1.1,0c0.4,0,0.8,0,1.3,0l6.6,7.4L57,62.4c0-1.8-0.1-2-1.2-2V60c0.6,0,1.1,0,1.6,0c0.5,0,1,0,1.5,0v0.5
			c-1.1,0-1.2,0.3-1.2,2l-0.1,7.9h-0.2l-7.6-8.7l0,5.9c0,1.8,0,2,1.2,2v0.5C50.5,70.1,50,70.1,49.5,70.1z"/>
		<path class="st0" d="M66.7,60c0,0.8,0,1.7,0.1,2.5l-0.4,0c-0.2-1.9-1.6-2.5-2.5-2.5c-1.1,0-1.9,0.6-1.9,1.5c0,0.9,0.7,1.5,2.5,2.6
			c1.9,1.1,2.7,1.6,2.7,3.1c0,1.7-1.3,3-3.8,3c-0.7,0-1.9-0.3-2.7-0.5c0-0.9,0-1.7-0.1-2.6l0.5,0c0.3,1.9,1.8,2.6,2.7,2.6
			c1.1,0,2-0.8,2-1.7c0-1.2-1.2-1.7-2.9-2.7c-1.9-1.2-2.1-1.7-2.1-2.7c0-1.7,1.2-3.1,3.6-3.1C65,59.6,65.9,59.7,66.7,60z"/>
		<path class="st0" d="M75.1,61.5c0.3-0.3,0.4-0.6,0.4-0.7c0-0.1,0-0.1,0-0.2c-0.1-0.2-0.3-0.2-0.7-0.2V60c0.6,0,1.2,0,1.8,0
			c0.6,0,1.2,0,1.8,0v0.5c-0.9,0-1.3,0.2-2.6,1.4L73.5,64l3.5,4.5c0.8,1.1,1.4,1.2,1.9,1.2v0.5c-0.5,0-1,0-1.5,0c-0.5,0-1,0-1.5,0
			c0-0.3,0-0.5-0.4-0.9l-3.2-4l-0.7,0.7v1.8c0,1.8,0,2,1.2,2v0.5c-0.6,0-1.3,0-2,0c-0.7,0-1.3,0-2,0v-0.5c1.1,0,1.2-0.2,1.2-2v-5.2
			c0-1.8,0-2-1.2-2V60c0.6,0,1.3,0,2,0c0.7,0,1.3,0,2,0v0.5c-1.2,0-1.2,0.2-1.2,2v2.6L75.1,61.5z"/>
		<path class="st0" d="M82.4,65.9l1.4-3.8l1.6,3.8H82.4z M82.1,66.5h3.6l0.8,2c0.1,0.2,0.1,0.4,0.1,0.6c0,0.6-0.6,0.6-1.1,0.6v0.5
			c0.6,0,1.3,0,2.1,0c0.7,0,1.5,0,2.3,0v-0.5c-1,0-1.2-0.3-1.8-1.7l-3.7-8.4h-0.2l-3.5,8.4c-0.6,1.4-1,1.8-2,1.8v0.5
			c0.6,0,1.2,0,1.8,0s1.2,0,1.7,0v-0.5c-0.8,0-1.1-0.2-1.1-0.6c0-0.3,0.1-0.6,0.3-1.1L82.1,66.5z"/>
		<g>
			<path class="st0" d="M13.4,83.5H9.3l1.9-5.5L13.4,83.5z M4.4,90.1c0.5,0,1.2-0.1,2-0.1c0.9,0,1.8,0,2.5,0.1v-0.6H8.4
				c-0.6,0-0.8-0.3-0.8-0.6c0-0.4,0.2-1,0.3-1.4L9,84.3h4.7l1.5,3.6c0.1,0.2,0.3,0.7,0.3,1c0,0.4-0.4,0.6-1,0.6h-0.5v0.6
				c0.7,0,1.7-0.1,2.8-0.1c1,0,2,0,2.7,0.1v-0.6H19c-0.9,0-1.5-0.8-2-1.9l-5.1-12.3h-0.4L6.8,87.4c-0.6,1.7-1.1,2.2-2.2,2.2H4.4
				V90.1z"/>
			<path class="st0" d="M26.1,81.5c0.3-0.3,0.4-0.6,0.4-0.7c0-0.1,0-0.1,0-0.2c-0.1-0.2-0.3-0.2-0.7-0.2V80c0.6,0,1.2,0,1.8,0
				c0.6,0,1.2,0,1.8,0v0.5c-0.9,0-1.3,0.2-2.6,1.4L24.5,84l3.5,4.5c0.8,1.1,1.4,1.2,1.9,1.2v0.5c-0.5,0-1,0-1.5,0c-0.5,0-1,0-1.5,0
				c0-0.3,0-0.5-0.4-0.9l-3.2-4l-0.7,0.7v1.8c0,1.8,0,2,1.2,2v0.5c-0.6,0-1.3,0-2,0c-0.7,0-1.3,0-2,0v-0.5c1.1,0,1.2-0.2,1.2-2v-5.2
				c0-1.8,0-2-1.2-2V80c0.6,0,1.3,0,2,0c0.7,0,1.3,0,2,0v0.5c-1.2,0-1.2,0.2-1.2,2v2.6L26.1,81.5z"/>
			<path class="st0" d="M33.4,85.9l1.4-3.8l1.6,3.8H33.4z M33.2,86.5h3.6l0.8,2c0.1,0.2,0.1,0.4,0.1,0.6c0,0.6-0.6,0.6-1.1,0.6v0.5
				c0.6,0,1.3,0,2.1,0c0.7,0,1.5,0,2.3,0v-0.5c-1,0-1.2-0.3-1.9-1.7l-3.7-8.4h-0.2l-3.5,8.4c-0.6,1.4-1,1.8-2,1.8v0.5
				c0.6,0,1.2,0,1.8,0c0.6,0,1.2,0,1.7,0v-0.5c-0.8,0-1.1-0.2-1.1-0.6c0-0.3,0.1-0.6,0.3-1.1L33.2,86.5z"/>
			<path class="st0" d="M50.1,85.2c0,3.4-2.2,4.4-4.6,4.4c0,0-0.1,0-0.1,0c-0.9,0-1.2-0.2-1.2-2v-7.1c0.6,0,1-0.1,1.3-0.1
				C49.2,80.5,50.1,83.4,50.1,85.2z M52.1,84.9c0-1.9-1.1-3.7-2.8-4.5c-0.9-0.4-2.3-0.5-3.5-0.5c-0.4,0-0.8,0-1.1,0
				c-0.4,0-0.6,0-1.1,0c-0.6,0-1.2,0-2,0v0.5c1.1,0,1.2,0.2,1.2,2v5.2c0,1.8,0,2-1.2,2v0.5c0.7,0,1.4,0,2,0c0.7,0,1.3,0,2.1,0
				c0.6,0,1.1,0.1,1.6,0.1c1,0,1.8-0.2,2.9-0.9C51.3,88.5,52.1,87,52.1,84.9z"/>
			<path class="st0" d="M56.3,87.6c0,1.8,0.2,1.9,1.5,1.9c1.6,0,2.8-0.4,3-2l0.4,0.1c-0.1,0.8-0.1,1.7-0.1,2.5c-2.8,0-4.5,0-5.6,0
				c-0.8,0-1.4,0-1.9,0v-0.5c1.1,0,1.2-0.2,1.2-2v-5.2c0-1.8,0-2-1.2-2V80c0.5,0,1.1,0,1.9,0c1.1,0,2.6,0,5.1,0c0,0.8,0,1.6,0.1,2.5
				l-0.5,0c-0.1-1.4-0.8-1.9-2.7-1.9c-0.3,0-0.6,0-1.2,0v3.9c0.3,0,0.6,0,0.8,0c1.4,0,2-0.3,2-1.3l0.5,0c0,0.6,0,1.1,0,1.7
				c0,0.6,0,1.1,0,1.7l-0.5,0c0-1.1-0.6-1.4-2-1.4c-0.2,0-0.5,0-0.8,0V87.6z"/>
			<path class="st0" d="M73.6,90.1c-0.7,0-1.4,0-2.1,0v-0.5c1.1,0,1.2-0.2,1.2-1.6c0-0.1,0-0.3,0-0.4l-0.2-5.9l-3.7,8.6h-0.3
				l-3.8-8.8l0.1,6c0,1.8,0,2,1.2,2v0.5c-0.6,0-1.1,0-1.6,0c-0.5,0-1.1,0-1.6,0v-0.5c1.1,0,1.2-0.2,1.2-2l0.1-5.2c0-0.2,0-0.4,0-0.6
				c0-1.3-0.2-1.5-1.2-1.5V80c0.5,0,1,0,1.5,0c0.5,0,1,0,1.4,0l3.3,7.8l3.5-7.8c0.5,0,0.9,0,1.4,0c0.5,0,0.9,0,1.3,0v0.5
				c-1,0-1.2,0.2-1.2,1.6c0,0.1,0,0.3,0,0.5l0.1,5.2c0,1.8,0,2,1.2,2v0.5C75,90.1,74.3,90.1,73.6,90.1z"/>
			<path class="st0" d="M80.3,87.6c0,1.8,0,2,1.2,2v0.5c-0.6,0-1.3,0-2,0c-0.7,0-1.3,0-2,0v-0.5c1.1,0,1.2-0.2,1.2-2v-5.2
				c0-1.8,0-2-1.2-2V80c0.6,0,1.3,0,2,0c0.7,0,1.3,0,2,0v0.5c-1.2,0-1.2,0.2-1.2,2V87.6z"/>
			<path class="st0" d="M86,87.6c0,1.8,0.2,1.9,1.5,1.9c1.6,0,2.8-0.4,3-2l0.4,0.1c-0.1,0.8-0.1,1.7-0.1,2.5c-2.8,0-4.5,0-5.6,0
				c-0.8,0-1.4,0-1.9,0v-0.5c1.1,0,1.2-0.2,1.2-2v-5.2c0-1.8,0-2-1.2-2V80c0.5,0,1.1,0,1.9,0c1.1,0,2.6,0,5.1,0c0,0.8,0,1.6,0.1,2.5
				l-0.5,0c-0.1-1.4-0.8-1.9-2.7-1.9c-0.3,0-0.6,0-1.2,0v3.9c0.3,0,0.6,0,0.8,0c1.4,0,2-0.3,2-1.3l0.5,0c0,0.6,0,1.1,0,1.7
				c0,0.6,0,1.1,0,1.7l-0.5,0c0-1.1-0.6-1.4-2-1.4c-0.2,0-0.5,0-0.8,0V87.6z"/>
			<path class="st0" d="M93.8,90.1c-0.5,0-1.1,0-1.6,0v-0.5c1.1,0,1.2-0.2,1.2-2l0.1-5.2c0-0.2,0-0.4,0-0.5c0-1.1-0.2-1.5-1.2-1.5
				V80c0.4,0,0.8,0,1.1,0c0.4,0,0.8,0,1.3,0l6.6,7.4l-0.1-4.9c0-1.8-0.1-2-1.2-2V80c0.6,0,1.1,0,1.6,0c0.5,0,1,0,1.5,0v0.5
				c-1.1,0-1.2,0.3-1.2,2l-0.1,7.9h-0.2l-7.6-8.7l0,5.9c0,1.8,0,2,1.2,2v0.5C94.9,90.1,94.4,90.1,93.8,90.1z"/>
		</g>
	</g>
	<g>
		<path class="st0" d="M49.6,16.7c0,0,1.3,2,1.3,2.1c0,0,0.1,0,0.1,0c0,0,0-1,0-1.5c0-0.2-0.1-0.3-0.2-0.4c-0.1-0.1-0.1-0.2,0-0.2
			h0.9c0,0,0.1,0.1,0,0.2c-0.3,0.2-0.4,0.5-0.4,0.9c0,0,0,2.4,0,2.5c0,0,0,0.1-0.1,0.1c0,0-0.3,0-0.3,0c0,0-0.1,0-0.1-0.1
			c0,0-0.4-0.7-0.8-1.4c-0.4-0.6-0.7-1.2-0.7-1.2c0,0-0.1,0-0.1,0c0,0.1,0,1.9,0,2c0,0.1,0.2,0.3,0.3,0.3c0.1,0.1,0.1,0.2-0.1,0.2
			c0,0-0.3,0-0.5,0c-0.2,0-0.5,0-0.5,0c-0.1,0-0.1-0.1-0.1-0.2c0.3-0.2,0.5-0.3,0.5-0.6c0-0.7,0-1.4,0-2.1c0-0.1,0-0.1,0-0.2
			c0-0.1-0.2-0.3-0.3-0.4c-0.1,0,0-0.2,0.1-0.2c0,0,0.8,0,0.9,0S49.6,16.6,49.6,16.7z"/>
		<path class="st0" d="M53.2,16.6l0.6,0c0.1,0,0.1,0.1,0.1,0.2c-0.1,0.1-0.3,0.2-0.3,0.3c0,0,0,0.1,0,0.3c0,0.1,0,2.3,0,2.3
			c0,0.3,0.3,0.3,0.3,0.4c0.1,0.1,0,0.2-0.1,0.2l-0.3,0l-1,0c-0.1,0-0.1-0.1-0.1-0.2c0.1-0.1,0.3-0.1,0.4-0.3
			c0.1-0.2,0.1-0.4,0.1-0.7l0-0.6l0-1.3c0-0.2-0.2-0.3-0.4-0.4c-0.1,0,0-0.2,0.1-0.2L53.2,16.6z"/>
		<path class="st0" d="M55.3,16.6c0.3,0,0.6,0,0.7,0c0.1,0,0.1,0.1,0,0.2c-0.2,0.1-0.3,0.1-0.3,0.4c0,0.3,0,2.6,0,2.6
			c0,0.1,0,0.1,0.1,0.2c0.6,0.1,1.2,0,1.5-0.6c0-0.1,0.2-0.1,0.2,0.1c-0.1,0.2-0.3,0.7-0.3,0.7c0,0,0,0.1-0.1,0.1
			c-0.1,0-2.3,0-2.3,0c-0.2,0-0.2-0.2,0-0.2c0.1,0,0.2-0.2,0.2-0.3c0-0.4,0-0.7,0-1.2c0-0.7,0-1.2,0-1.3c0-0.3-0.3-0.4-0.3-0.5
			c-0.1,0-0.1-0.2,0-0.2C54.7,16.6,55,16.6,55.3,16.6z"/>
		<path class="st0" d="M58.7,16.6c0.3,0,0.7,0,0.7,0c0.1,0,0.1,0.1,0,0.2c-0.2,0.1-0.4,0.1-0.4,0.4c0,0.1,0,0.8,0,1.5
			c0,0.6,0,1.1,0,1.1c0,0.1,0,0.2,0.1,0.2c0.6,0.1,1.2-0.1,1.5-0.6c0-0.1,0.2-0.1,0.2,0.1c-0.1,0.2-0.3,0.7-0.3,0.8
			c0,0-0.1,0.1-0.2,0.1c0,0-0.6,0-1.1,0c-0.6,0-1.2,0-1.2,0c-0.2,0-0.2-0.2,0-0.2c0.1,0,0.3-0.1,0.3-0.3c0-0.4,0-0.7,0-1.2
			c0-0.7,0-1.2,0-1.3c0-0.3-0.3-0.4-0.4-0.5c-0.1,0-0.1-0.2,0-0.2C58.1,16.6,58.3,16.6,58.7,16.6z"/>
		<path class="st0" d="M63.8,16.7c0.1,0.2,0.2,0.5,0.2,0.7c0.1,0.1-0.1,0.2-0.2,0.1c-0.1-0.1-0.3-0.4-0.5-0.5
			c-0.2,0-0.6-0.1-0.9-0.1c-0.1,0-0.1,0-0.1,0.1c0,0.3,0,0.8,0,1.1c0,0,0,0.1,0.1,0.1c0,0,0.2,0,0.3,0c0.1,0,0.2-0.1,0.2-0.2
			c0-0.1,0-0.2,0.2-0.2c0.1,0,0.1,0.1,0.1,0.2c0,0,0,0,0,0.4c0,0.4,0,0.5,0,0.5c0,0.1,0,0.1-0.1,0.1c-0.1,0-0.1-0.3-0.2-0.4
			c0,0-0.1-0.1-0.1-0.1c-0.1,0-0.3,0-0.3,0c-0.1,0,0,0,0,0s0,0.5,0,0.8c0,0.4,0.1,0.6,0.9,0.5c0.5,0,0.7-0.3,0.9-0.6
			c0.1-0.2,0.3-0.1,0.2,0C64.1,19.7,64,20,63.9,20c-0.1,0.2-0.1,0.2-0.3,0.2c0,0-2.1,0-2.2,0c-0.1,0-0.1,0-0.1-0.1
			c0-0.1,0.1-0.1,0.2-0.2c0.1-0.1,0.1-0.1,0.1-0.3c0,0,0-0.7,0-1.3c0-0.5,0-1,0-1.1c0-0.2-0.5-0.4-0.5-0.4c0-0.1,0-0.2,0.1-0.2
			c0,0,0.3,0,0.6,0c0.6,0,1.6,0,1.7,0C63.7,16.6,63.8,16.6,63.8,16.7z"/>
		<path class="st0" d="M55.6,21.5c0.1,0.3,0.1,0.8,0.1,0.8c0,0,0.1,0.2,0,0.2c-0.1,0-0.2-0.2-0.2-0.2c-0.2-0.2-0.4-0.5-0.8-0.5
			c-0.6,0-0.6,0.8-0.6,1.3c0,0.9,0.2,1.4,0.7,1.4c0.5,0,0.6-0.4,0.7-0.7c0.1-0.2,0.2-0.3,0.3-0.2c0.1,0,0.1,0.1,0.1,0.4
			c-0.1,0.3-0.4,0.6-0.6,0.8c-0.5,0.2-1,0.2-1.3-0.1c-0.7-0.4-0.7-1.4-0.5-2.1c0.2-0.5,0.6-1.1,1.2-1.1c0.3,0,0.6,0.3,0.9,0
			C55.5,21.4,55.6,21.3,55.6,21.5z"/>
		<path class="st0" d="M59.4,21.5c0.1,0,0.1,0.1,0.1,0.1c-0.1,0.1-0.2,0.1-0.2,0.2c0,0,0,2.2,0,2.3c0,0.1,0.1,0.3,0.2,0.3
			c0,0,0.1,0.1,0.1,0.1c0,0,0,0.1-0.1,0.1h-1.3c-0.1,0-0.1-0.1,0-0.2c0.1-0.1,0.4-0.1,0.4-0.3c0-0.2,0-1,0-1c0,0,0-0.1-0.1-0.1
			c0,0-0.2,0-0.5,0c-0.2,0-0.5,0-0.5,0c0,0,0,0,0,0.1c0,0,0,1,0,1.1c0,0.2,0.2,0.2,0.3,0.2c0.1,0,0,0.2,0,0.2s-1.1,0-1.1,0
			c-0.1,0-0.1-0.1,0-0.2c0.1-0.1,0.2-0.1,0.3-0.2c0-0.1,0-0.3,0-0.3s0-1.9,0-2c0-0.2-0.2-0.3-0.3-0.4c0,0-0.1-0.2,0.1-0.2h1
			c0.1,0,0.1,0.1,0,0.2c-0.1,0.1-0.2,0.2-0.2,0.3c0,0.3,0,0.7,0,0.7s0,0.1,0.1,0.1c0,0,0.3,0,0.5,0c0.2,0,0.5,0,0.5,0
			c0,0,0.1,0,0.1-0.1c0-0.1,0-0.6,0-0.6s0-0.2,0-0.3c0-0.1-0.1-0.1-0.2-0.1c-0.1,0-0.1-0.2,0.1-0.1H59.4z"/>
		<path class="st0" d="M52.3,22.2c0.3,0.5,0.3,1.4,0,2c-0.3,0.4-0.6,0.6-1.2,0.6c-0.7,0-1.3-0.6-1.4-1.2c-0.1-0.3-0.1-0.9,0.2-1.5
			c0.3-0.5,0.8-0.7,1.3-0.7C51.8,21.4,52.2,21.9,52.3,22.2z M51.1,21.9c-0.4,0-0.6,0.4-0.6,0.8c-0.1,0.9,0.2,1.7,0.7,1.7
			c0.4,0,0.6-0.4,0.6-0.7C51.9,23,51.7,21.9,51.1,21.9z"/>
		<path class="st0" d="M47.2,16.6c0,0.1,0,0.2,0.1,0.2c0,0.1,0.1,0.1,0.1,0.2c0.1,0.1,0.1,0.2,0,0.3c-0.1,0-0.1,0-0.2-0.1
			c-0.1-0.1-0.1-0.2-0.2-0.2c-0.2-0.1-0.5-0.2-0.8-0.1c-0.1,0-0.3,0.2-0.3,0.3c-0.1,0.2,0.1,0.4,0.3,0.5c0.5,0.4,1.5,0.5,1.4,1.4
			c0,0.3-0.1,0.6-0.4,0.8c-0.3,0.2-0.6,0.3-0.9,0.2c-0.3,0-0.6-0.2-0.9-0.1c-0.1,0.1-0.1,0.2-0.3,0.2c-0.1,0-0.1-0.1-0.1-0.2
			c0,0,0-0.2-0.1-0.3c0-0.2-0.1-0.3-0.1-0.4c0-0.1,0-0.2,0.2-0.1c0.3,0.2,0.3,0.2,0.6,0.3c0.3,0.2,0.8,0.3,1.1,0.1
			c0.1-0.1,0.1-0.2,0.2-0.4c0-0.1,0-0.2,0-0.3c-0.1-0.3-0.6-0.4-1-0.7c-0.3-0.2-0.6-0.5-0.7-0.8c-0.1-0.4,0.1-0.7,0.4-0.9
			c0.3-0.2,1,0,1.1-0.2C47,16.5,47.2,16.4,47.2,16.6z"/>
		<path class="st0" d="M49,26c0,0.2,0.1,0.3,0.2,0.4c0.1,0.1,0.1,0.2,0,0.3c-0.1,0-0.2,0-0.2-0.1c-0.1-0.1-0.1-0.2-0.2-0.2
			c-0.2-0.1-0.5-0.2-0.8-0.1c-0.1,0-0.3,0.2-0.3,0.3c-0.1,0.2,0.1,0.4,0.3,0.5c0.5,0.4,1.5,0.5,1.5,1.4c0,0.3-0.1,0.6-0.4,0.8
			c-0.3,0.2-0.6,0.3-1,0.2c-0.3,0-0.6-0.2-0.9-0.1c-0.1,0.1-0.1,0.2-0.3,0.2c-0.1,0-0.1-0.1-0.1-0.2c0-0.1-0.1-0.6-0.1-0.7
			c0-0.1,0-0.2,0.2-0.1c0.3,0.2,0.3,0.2,0.6,0.3c0.3,0.2,0.8,0.3,1.1,0.1c0.1-0.1,0.2-0.2,0.2-0.4c0-0.1,0-0.2,0-0.3
			c-0.1-0.3-0.7-0.4-1-0.7c-0.3-0.2-0.6-0.5-0.7-0.8c-0.1-0.4,0.1-0.7,0.4-1c0.3-0.2,1,0,1.2-0.2C48.8,25.9,48.9,25.8,49,26z"/>
		<path class="st0" d="M59.2,25.9c0.3,0,0.5,0,0.5,0c0.1,0,0.1,0.1,0,0.2c-0.1,0.1-0.2,0.2-0.2,0.3c0,0.4,0,0.8,0,1.2c0,0,0,0,0,0.1
			c0,0,0,0.1,0.1,0c0,0,1.2-1.3,1.2-1.3c0.1-0.1,0-0.2,0-0.2c0,0,0-0.1,0-0.1c0.1,0,0.7,0,0.8,0c0.1,0,0.1,0.1,0.1,0.1
			c0,0-0.2,0.2-0.4,0.4c-0.3,0.3-0.6,0.7-0.8,0.9c-0.1,0.1-0.1,0.1,0,0.2c0,0,0.2,0.3,0.3,0.6c0.2,0.4,0.5,1,0.5,1
			c0.1,0.2,0.2,0.2,0.2,0.3c0.2,0.1,0.1,0.2,0,0.2c-0.1,0-1.1,0-1.1,0c0,0-0.1-0.1,0-0.2c0.1-0.1,0.3-0.2,0.2-0.4
			c0-0.1-0.1-0.3-0.3-0.6c-0.1-0.2-0.2-0.3-0.3-0.5c0,0,0,0-0.1,0c-0.1,0.1-0.2,0.3-0.4,0.4c0,0.1,0,0.1,0,0.1c0,0.1,0,0.8,0,0.8
			c0,0.1,0.1,0.2,0.2,0.2c0.1,0.1,0,0.2-0.1,0.2c0,0-0.3,0-0.5,0c-0.2,0-0.5,0-0.5,0c-0.1,0-0.2-0.1,0-0.2c0.1-0.1,0.3-0.1,0.3-0.4
			c0-0.1,0-0.6,0-1.2c0-0.7,0-1.5,0-1.5c0-0.2-0.2-0.3-0.2-0.3c-0.1,0,0-0.2,0.1-0.2C58.8,25.9,59,25.9,59.2,25.9z"/>
		<path class="st0" d="M51.1,25.9c0,0,0.1,0,0.1,0.1c0.3,0.6,0.6,1.1,0.9,1.7l0.1-0.1l1-1.6c0,0,0-0.1,0.1-0.1c0.3,0,0.7,0,0.8,0
			c0.1,0,0.1,0.1,0.1,0.1c0,0.1-0.2,0.1-0.2,0.2c-0.1,0.1-0.1,0.2-0.1,0.2c0,0,0,0.8,0,1.4c0,0.5,0,1,0,1c0,0.2,0,0.3,0.3,0.5
			c0,0,0,0.2-0.1,0.2c0,0-1.2,0-1.2,0c-0.1,0-0.1,0-0.1-0.1c0-0.1,0.2-0.1,0.3-0.3c0.2-0.3,0.1-1,0.1-1s0-0.8,0-0.9
			c0-0.1,0-0.1-0.1,0c-0.3,0.4-0.6,0.9-0.9,1.3c0,0.1-0.1,0.1-0.2,0c-0.3-0.5-0.9-1.3-0.9-1.4c-0.1,0-0.1,0.1-0.1,0.1
			c0,0.6-0.1,1.2,0.1,1.8c0.1,0.2,0.2,0.3,0.3,0.3c0.1,0,0.1,0.1,0.1,0.1c0,0,0,0.1-0.1,0.1c0,0-0.3,0-0.5,0c-0.2,0-0.5,0-0.5,0
			c-0.1,0-0.1,0-0.1-0.1c0-0.1,0.1-0.1,0.2-0.2c0.1-0.1,0.1-0.3,0.1-0.4c0-0.2,0.1-1.3,0-2c0-0.2,0-0.3-0.1-0.4
			c-0.1-0.3-0.3-0.3-0.4-0.3c-0.1-0.1-0.1-0.2,0-0.2C50.2,25.9,51.1,25.9,51.1,25.9z"/>
		<path class="st0" d="M56.2,25.9C56.2,25.9,56.3,25.9,56.2,25.9c0.1,0,0.2,0,0.2,0c0.1,0,0.1,0,0.1,0.1c0.1,0.2,0.3,0.9,0.6,1.6
			c0.2,0.4,0.3,0.9,0.5,1.2c0.1,0.3,0.2,0.4,0.3,0.5c0.1,0.1,0.1,0.1,0.2,0.2c0,0.1,0,0.1-0.1,0.1h-1c-0.1,0-0.2-0.1-0.1-0.2
			c0.1-0.1,0.1-0.2,0.1-0.3c0-0.1,0-0.2-0.1-0.3c0-0.1-0.1-0.1-0.1-0.1h-1c0,0,0,0-0.1,0c-0.1,0.2-0.2,0.3-0.1,0.5
			c0.1,0.1,0.1,0.1,0.1,0.1c0.1,0,0.1,0.1-0.1,0.1h-0.9c-0.1,0-0.1-0.1,0-0.2c0.1-0.1,0.2-0.1,0.2-0.2c0-0.1,0-0.1,0.1-0.2
			c0-0.1,0.2-0.7,0.4-1.4C55.8,26.9,56.1,26.1,56.2,25.9C56.1,25.9,56.2,25.9,56.2,25.9z M55.9,28.3l0.6,0c0,0,0.1,0,0-0.1
			c-0.1-0.3-0.2-0.7-0.4-1c0,0,0,0,0,0C56.1,27.6,56,27.9,55.9,28.3C55.9,28.3,55.9,28.3,55.9,28.3z"/>
	</g>
	<path class="st0" d="M77.8,30.8c-0.3-0.1-2.1-1-4.2-1c-2.1,0.1-3.4,1.2-3.6,1.4c-0.2,0.2-0.6,0.4-0.8,0.6c-0.1,0.1-0.2,0.1-0.3,0.2
		c-0.1,0-0.1,0,0-0.1c0.1-0.2,0.4-0.9,0.8-1.7c0.3-0.7,0.9-1.1,2.2-1.4c1.3-0.3,2.6-0.7,3.2-1.3c1-1,2.5-3.9,2.5-3.9
		s0.2-0.3-0.2-0.2c-0.4,0.1-2.1,0.2-3.8,1.5c-1.7,1.3-2.8,3.4-3,3.7c-0.2,0.3-0.5,0.5-0.7,0.7c0,0-0.1,0-0.1,0c0-0.2,0-0.9-0.1-1.3
		c-0.1-0.4,1.1-1.5,1.1-1.5l0.5-0.4c0,0,0,0,0.1,0c0.1,0,0.2,0,0.2,0c0.4,0,0.6-0.3,0.6-0.7c0-0.4-0.3-0.6-0.6-0.6
		c-0.4,0-0.7,0.3-0.7,0.6c0,0.1,0,0.2,0.1,0.3c0,0,0,0.1,0,0.1c-0.3,0.3-0.9,0.8-1.2,1c-0.1,0.1-0.1,0.1-0.1-0.1
		c0.1-0.2,0.2-0.5,0.3-0.9c0.4-1,0.9-1.3,1.4-1.6c0.5-0.2,1.1-0.3,2.4-1.8c1.4-1.8,0.7-4.9,0.7-4.9s0-0.5-0.3-0.1
		c-0.3,0.4-1.4,1.4-1.8,2.5c-0.4,1.2-0.2,2.3-0.6,3.2c-0.2,0.4-0.6,0.7-0.7,0.8c0,0-0.1,0,0,0c0.1-0.2,0.5-0.8,0.6-1.2
		c0.3-0.8,0.5-1.9,0.1-3.7c-0.1-0.4,0.7-1,0.9-1.2c0.2-0.3,0.7-0.9,0.9-2.1c0.2-1.2-0.3-2.3-0.4-2.4c0,0-0.1-0.4-0.4,0
		c-0.2,0.4-1,1.7-1.2,2.2c-0.2,0.5-0.3,1.6-0.2,2.1l0.1,0.5c0,0,0,0.1,0,0c-0.1-0.3-0.6-1.2-0.6-1.4c-0.1-0.2,0.1-0.7,0.3-1.1
		c0.2-0.4,0.7-1.1,0.8-1.8c0.1-0.8,0.2-1.8,0-2.2c0,0-0.1-0.4-0.3-0.1c-0.3,0.3-0.9,1.1-1,1.5c-0.5,1.3-0.2,2.5-0.2,2.6
		c0,0.3-0.9-1.6-0.7-2.2c0.1-0.5,0.7-1.7,0.6-2.5c-0.1-0.8-0.6-1.6-1.2-2.4c-0.4-0.6-0.4-0.4-0.6-0.2c-0.2,0.3-0.7,1.4-0.6,2.1
		c0.1,1,0.8,2.1,0.9,2.4c0.1,0.1,0.1,0.1,0,0c-0.6-0.7-1.4-1.3-1.6-1.9c-0.2-0.6-0.1-2.2-0.9-3.4c-0.8-1.2-1.8-1.8-1.8-1.8
		s-0.3-0.3-0.4,0.2c-0.1,0.5-0.3,2.2,0.3,3.1c0.6,0.9,1.2,1.4,1.5,1.6c0.3,0.2,0.8,0.4,1,0.8c0,0-1-0.2-1.9-0.6
		c-0.8-0.4-1.3-0.6-1.7-1.9c-0.3-0.9-1.1-2.6-2-3.4c-1-0.8-2.7-1.7-3-1.7c0,0-0.5-0.2-0.3,0.2c0.1,0.4,0.6,2.3,1.4,3.3
		c0.1,0.1,0.1,0.1,0,0.1c-0.6-0.3-2.3-1.3-2.8-1.8c0,0,0-0.1,0-0.1c0-0.1,0-0.1,0-0.2c0-0.4-0.3-0.7-0.7-0.7c-0.4,0-0.7,0.3-0.7,0.6
		c0,0.4,0.3,0.6,0.7,0.6c0.1,0,0.2,0,0.3-0.1c0,0,0.1,0,0.1,0c0.4,0.3,2.4,1.6,2.9,1.8c0,0,0.2,0.1,0,0.1c-0.1,0-0.2,0-0.4,0
		c-0.4,0-1.8-0.1-3.4,0.7c0,0-0.2,0.1-0.1,0.2c0,0.1,0.2,0.2,0.2,0.2s1.7,1.3,3.1,1.3c1.1,0,2-0.2,2.5-0.4c0.6-0.3,1-0.3,1.4,0
		l0.6,0.6c0,0,0,0.1-0.1,0c-0.3-0.1-1-0.3-1.8-0.2c-1.1,0-2.5,0.7-2.8,0.8c0,0-0.2,0.2,0.2,0.3c0.4,0.1,1.3,0.7,2.9,0.8
		c0.9,0.1,2-0.4,2.4-0.6c0.4-0.1,0.5-0.1,0.8,0.1c0.6,0.2,1.6,0.5,1.9,0.6c0.6,0.2,1,0.5,1.3,1c0.3,0.5,0.8,1.4,0.9,1.5
		c0.1,0.1-1.4-1.5-2.8-1.9c-0.7-0.2-2.6-0.3-3.4-0.1c-0.3,0.1-0.4,0.1-0.1,0.4c0.3,0.4,1.5,1.6,2.8,2c0.8,0.2,1.8,0.3,2.2,0.2
		c0.5-0.1,1-0.2,1.3,0c0.4,0.2,1,1.4,1.3,2.1c0,0-1.2-1.4-2.3-1.7c-0.7-0.2-1.8-0.2-2.1-0.1c0,0-0.4,0.1-0.2,0.4
		c0.2,0.3,1.3,1.5,2.2,1.7c0.9,0.2,1.6,0.2,1.9,0.2c0.3,0,0.8,0.1,1.2,1c0.3,0.8,0.1,2.1,0.1,2.5c-0.1,0.4-0.1,0.7-0.3,0.3
		c-0.1-0.4-0.4-2-1.5-2.8c-1.1-0.8-2.2-1.2-2.5-1.3c0,0-0.3-0.1-0.3,0.2c0.1,0.2,0.2,2,1,2.9c0.2,0.2,0.8,1.2,2.2,1.4
		c0.3,0.1,1,0.1,1,0.1c0.1,0.2-0.3,1-0.5,1.2c0,0-0.1,0-0.1,0c-0.1-0.1-0.2-0.2-0.4-0.5c-0.4-0.5-1.2-1.1-1.8-1.4
		c-0.6-0.3-2-0.6-2.4-0.6c0,0-0.7-0.1-0.3,0.4c0.4,0.5,1,1.3,1.9,1.7c0.8,0.4,1.5,0.3,1.9,0.3c0.3,0,0.9,0.3,1,0.4
		c0.1,0.1-0.7,1.6-1,2.4c0,0.1-0.1,0.1-0.1,0.1c-0.1-0.2-0.2-0.5-0.3-0.8c0,0,0,0,0-0.1c0.2-0.1,0.4-0.4,0.4-0.6
		c0-0.4-0.3-0.6-0.6-0.6c-0.4,0-0.6,0.3-0.6,0.7c0,0.3,0.2,0.6,0.5,0.6c0,0,0,0,0.1,0.1c0.1,0.4,0.8,2,0.8,3.2c0,1-0.1,1.7-0.7,2.6
		c-0.1,0.1-0.1,0.2-0.2,0.3c0,0.1-0.1,0-0.1,0c-0.1-0.2-0.2-0.8-0.2-1c0-0.3,0.2-0.9,0.2-1.5c0-0.9-0.3-1.6-1-2.6
		c-0.7-1.1-1.7-2.2-3.2-2.8c0,0-0.4-0.3-0.4,0.2c0,0.5-0.1,2.9,0.8,4.2c1.4,1.9,3.3,3,3.4,3.6c0.2,0.7-0.1,1-0.4,1.4
		c-0.4,0.5-1.5,1.5-2,1.9c-0.1,0.1-0.2,0.1-0.2,0c0-0.3,0.1-1.1,0.1-1.3c0,0,0-0.1,0.1-0.1c0.3-0.1,0.5-0.3,0.5-0.6
		c0-0.4-0.3-0.7-0.6-0.7c-0.4,0-0.7,0.3-0.7,0.7c0,0.2,0.1,0.4,0.3,0.6c0,0,0,0.1,0,0.1c0,0.4-0.1,1.7-0.3,2c0,0-1,1.9-2.4,2.6
		c-0.4,0.2-0.3-0.1-0.1-0.3c0.2-0.2,1.7-1.5,1.9-3c0.2-1.5-0.5-2.7-0.5-2.7s-0.1-0.4-0.4-0.1c-0.3,0.4-1.4,1.4-1.6,2.6
		c-0.2,0.9,0,1.8,0.2,2.4c0.2,0.7-0.2,1.4-1.3,1.8c0,0,0.8-0.6,0.9-1.2c0.1-0.5,0.1-1-0.1-1.3c0,0-0.1-0.2-0.3,0
		c-0.2,0.1-0.5,0.2-0.9,1.1c-0.3,0.6,0.1,1.4-0.3,1.6c-0.6,0.3-1.7,0.5-2.5,0.8c-0.1,0-0.2,0-0.1-0.1c0.3-0.3,1.1-0.8,1.6-1.5
		c1.1-1.5,2.6-4.4,0.4-5.5c-1.5-0.7-2.9-0.3-4.6,0c-2,0.4-3.3-0.3-4.3,0.4c-1.2,0.9-0.7,2.7-0.2,3.8c0.6,1.1,1.5,2.1,2,2.5
		c0.1,0.1,0.1,0.2,0,0.1c-0.6-0.2-2.3-0.8-2.7-1.1c-0.6-0.4,0-1.1,0-1.7c0-0.8-0.6-1.3-0.8-1.5c0,0-0.2-0.2-0.3,0.1
		c-0.1,0.2-0.4,0.7-0.4,1.2c0,0.4,0.3,1.1,0.6,1.5c0,0.1,0.1,0.1,0,0.1c-0.3-0.1-0.8-0.4-1-0.7c-0.3-0.3,0.7-1.9,0.4-3.5
		c-0.3-1.6-1.4-2.4-1.5-2.5c-0.1-0.1-0.2-0.3-0.4,0.1c-0.1,0.3-0.9,1.8-0.7,3c0.2,1.1,1.2,2,1.3,2.1C45.9,37,46,37,46,37.1
		c0,0,0,0.1-0.1,0.1c-0.2-0.1-0.8-0.5-1.3-1.2c-0.7-0.8-0.8-1.2-1.1-1.6c0,0-0.2-0.6-0.1-0.9c0,0,0-0.1,0.1-0.1
		c0.1,0,0.5-0.2,0.5-0.6c0-0.4-0.3-0.7-0.7-0.7c-0.4,0-0.6,0.3-0.6,0.7c0,0.3,0.1,0.5,0.3,0.6c0,0,0.1,0,0.1,0.1
		c0,0.2,0,0.4,0.1,0.6c0,0.1,0,0.1-0.1,0.1c-0.3-0.1-1-0.4-1.4-0.9c-0.5-0.7-0.8-1.5-0.8-1.8c0-0.3-0.1-1.2,0.7-1.6
		c0.4-0.2,2.3-0.6,3.7-2.9c0.9-1.5,1-3.1,1.1-3.5c0.1-0.4,0-0.4-0.7-0.3c-0.8,0.2-2.3,0.7-3.2,2.2c-1,1.5-1.3,3.8-1.4,4
		c0,0.2-0.2,0.3-0.2,0.2c-0.1-0.3,0-0.9-0.1-1.5c-0.1-0.7-0.4-1.6,0-2.6c0,0,0,0,0.1-0.1c0.3,0,0.5-0.3,0.5-0.7
		c0-0.4-0.3-0.7-0.6-0.7c-0.4,0-0.7,0.3-0.7,0.7c0,0.2,0.1,0.4,0.2,0.5c0,0,0.1,0,0,0.1c0,0.2-0.1,0.7-0.1,0.9c0,0,0,0-0.1,0
		c-0.2-0.2-0.8-1.2-1.1-1.6c-0.2-0.3,0.2-0.8,0.4-1c0.3-0.3,1-0.7,1.9-0.4c0.9,0.3,1.6-0.4,1.9-0.6c0.2-0.2,1.2-1.1,1.3-1.3
		c0.1-0.1,0.3-0.2,0.3-0.2s0.2-0.2-0.4-0.2c-0.5,0-1.6-0.1-2.2,0.3c-0.6,0.4-1.1,1.1-1.8,1.3c-0.7,0.2-1.4,0.8-1.8,1.1
		c0,0-0.1,0.1-0.1,0c-0.1-0.1-0.3-0.5-0.2-0.7c0.1-0.2,0.1-0.5,0.7-0.8c0.5-0.2,1.9-0.4,3-1.7c1.1-1.3,1.4-2.8,1.4-2.8
		s0-0.3-0.3-0.2c-0.4,0.1-1.6,0.3-2.9,1.4c-1.3,1.1-1.4,2.6-1.6,2.9c-0.1,0.2-0.2,0.3-0.3,0.4c0,0-0.1,0-0.1,0c0-0.3,0-1.1,0.4-2.2
		C39,18.2,39,18,39,17.8c0.1-0.2,0.1-0.3,0.8-0.2c0.8,0.1,1.9-0.4,2.3-0.5c0.4-0.1,1.6-0.8,2-1.3c0,0,0.3-0.3-0.1-0.3
		c-0.4,0-1.3-0.3-2.3,0c-0.7,0.2-1.3,0.8-1.7,1.2C39.5,17,39.5,17,39.3,17c-0.2,0,0.1-0.8,0.3-1.4c0.2-0.5,0.6-0.8,0.8-0.9
		c0.2-0.1,0.6-0.1,1,0c0.4,0.1,1.9,0.4,3.3-0.1c1.4-0.5,2.7-1.6,2.8-1.7c0,0,0.4-0.3,0-0.4c-0.4-0.1-1.7-0.7-3.5-0.3
		c-1.7,0.3-2.9,1.6-3.1,1.7c-0.1,0.1-0.3,0.2-0.4,0.2c-0.1,0,0-0.4,0.8-1c0.4-0.3,2.3-1.6,3.8-2.1c0,0,0.1,0,0.1,0
		c0.2,0.1,0.6,0.5,1,0.7c0.6,0.3,1.8,0.8,4.7,0c0,0-1-1.5-2.5-1.6c-1.5-0.1-1.8,0.7-2.7,0.5c0,0,0,0,0-0.1c0.3-0.3,1.5-1.3,2-1.5
		c0.6-0.2,1.5,0.8,2.2,1c0,0,0.8,0.3,1.5,0.1c0.7-0.1,2.3-0.7,2.6-0.9c0,0,0.3-0.1,0-0.3c-0.3-0.3-0.8-0.9-1.9-1.2
		c-0.8-0.2-1.9,0.1-2.3,0.2c-0.1,0,0,0,0,0l2.6-1.1c0,0,0,0,0.1,0c0.1,0.1,0.3,0.2,0.5,0.2c0.4,0,0.7-0.3,0.7-0.6
		c0-0.4-0.3-0.6-0.7-0.6c-0.4,0-0.7,0.3-0.7,0.6c0,0.1,0,0.1-0.1,0.1c-0.4,0.1-1.3,0.5-1.7,0.7c-0.4,0.1-0.8,0.3-1,0.4
		c-0.1,0-0.1,0,0,0C49.8,7.4,50,7.2,50,7.2c0.1-0.1,1.9-1.9,2.1-3.4c0,0,0.1-0.2-0.2-0.2c-0.3,0-2.4,0.4-3.4,1.4
		c-1,0.9-1.2,1.9-1.7,3c-0.7,1.5-1.4,1.9-1.7,2.1c-0.4,0.3-2.7,1.4-2.7,1.4s0.1-0.3,0.3-0.5c0.2-0.2,1.6-1.1,2.1-1.8
		c0.5-0.8,1.1-2.8,1.1-3.8c0,0,0-0.4-0.3-0.2c-0.4,0.2-1.9,0.7-2.6,1.9c-0.7,1.2-0.9,2.8-1.1,3.6c-0.2,0.8-0.1,1-1.1,1.9
		c0,0-0.4,0.5-0.1-0.1c0.2-0.4,0.6-1,0.6-2.1c0-1.2-0.5-2.2-0.5-2.2s-0.1-0.2-0.3,0c0,0-1.3,1.4-1.3,2.8c0,1.8,1.1,2.1,0.7,2.7
		c-0.3,0.5-0.7,1.2-0.9,1.5c-0.1,0.1-0.1,0.1-0.1,0c0.1-0.5,0.2-1.5,0-2.2c-0.2-0.9-0.9-2-0.9-2.1c-0.1-0.1-0.1-0.3-0.3,0
		c-0.2,0.3-1,1-0.1,2.7c0.9,1.7,1,2.3,0.8,3.7c0,0.4-0.2,1-0.3,1.4c0,0,0,0.1,0,0c0-0.1,0-0.2,0-0.4c0-0.6,0.1-1.8-0.1-2.8
		c-0.2-1-1-2.6-1.3-3.1c-0.1-0.2-0.2-0.5-0.5,0c-0.3,0.5-1.1,2.1-0.7,3.5c0.3,1.3,1.2,2.4,1.7,2.8c0.6,0.6,0.5,0.9,0.3,1.6
		c-0.3,1.5-0.3,2.5,0,3.2c0,0,0,0.1,0,0c-0.2-0.2-0.6-0.7-0.4-1.7c0.2-1.4-0.1-1.9-0.3-2.4c-0.4-0.9-1.2-2-1.6-2.4
		c-0.2-0.2-0.3-0.2-0.5,0.2c-0.1,0.3-0.7,2.4,0.1,4c0.8,1.6,1.7,2.4,2.7,3.2c1.2,0.9,2.2,2.4,2.3,3.5c0.1,0.5,0.1,1,0.1,1
		s-0.9-0.8-1.1-1.1c-0.3-0.6-0.4-1.8-2.6-3.5c-1.6-1.2-2.9-1.7-3.5-1.9c-0.3-0.1-0.6-0.2-0.5,0.3c0.1,0.5,0.3,2.3,1.8,3.5
		c1.2,1,2.4,1.5,3.3,1.8C38,28,38.5,28,39.4,29c0,0,0.4,0.4,0.3,1.7v0.3c0,0,0,0.1-0.3,0c-0.4-0.2-0.5-0.4-1.2-1.2
		c-0.7-0.8-1.7-1.2-2.8-1.4c-0.7-0.2-2.6-0.3-4,0c0,0-0.7,0.1-0.4,0.4c0.3,0.4,1.8,2.3,2.9,2.7c1.2,0.4,3.2,0.4,4.4,0
		c0.4-0.1,0.9-0.3,1.4,0.1c0,0,0.3,1.2,0.7,1.7c0,0,0.1,0.1,0,0.1c-0.1,0-0.2,0.1-0.4,0.1c-0.4,0.1-1.8-0.8-3.5-0.7
		c-1.7,0.1-3.6,1-3.8,1.1c0,0-0.3,0.2,0,0.3c0.4,0.2,2.1,1,3.6,1c1.5,0,2.2-0.7,2.3-0.8c0.4-0.2,0.8-0.5,1.1-0.6
		c0.2-0.1,0.6-0.1,0.7-0.1c0,0,0.1,0,0.1,0c0.1,0.1,0.4,0.3,0.3,0.4c-0.1,0.1-0.2,0.2-0.4,0.2c0,0-0.1,0-0.1,0
		c-0.1-0.2-0.3-0.2-0.5-0.2c-0.4,0-0.7,0.3-0.7,0.6c0,0.4,0.3,0.6,0.7,0.6c0.4,0,0.7-0.3,0.7-0.6c0,0,0-0.1,0-0.1
		c0.3-0.1,0.6-0.2,0.6-0.2c0.4-0.1,1.1-0.1,1.7,1c0.6,1.1,1.3,1.7,1.3,1.7s-1.7-0.7-3.1-0.9s-2.9,0.4-3.4,0.6c0,0-0.4,0.1,0,0.3
		c0.3,0.2,1.2,1.2,3,1.5c1,0.2,2.6,0,3.3-0.3c0.7-0.3,1-0.6,1.3-0.3c0.4,0.3,1.4,0.9,1.4,0.9s-1.7-0.1-2.6-0.1
		c-1.5,0.1-2.3,0.4-3.3,0.7c-1,0.4-1.7,0.8-2.1,1c0,0-0.6,0.3,0.1,0.6c0.8,0.3,2.5,1.1,4.5,0.6c1.5-0.3,2.3-0.8,3.1-1.5
		c0.8-0.6,1.3-0.5,1.7-0.5c0.4,0,1.3,0.4,1.7,0.5c0.1,0,0.1,0.1,0,0c-0.5,0-2.2,0-3,0.3c-1,0.4-2,1.5-2.5,1.8c0,0-0.4,0.2,0,0.4
		c0.4,0.1,2.1,0.4,3.6-0.4c1.5-0.8,1.6-1.3,2.1-1.5c0.6-0.2,1-0.4,2.2,0.2c0,0,0.1,0,0,0.2c-0.2,0.2-1.6,1.7-2.8,2.3
		c-1,0.6-2.5,1.1-3.7,2.4c-0.1,0.1-0.2,0.2-0.3,0.3c-0.1,0.1,1.8,1.1,1.9,1c0.1-0.1,0.8-1,2.2-2c0.6-0.5,1.2-0.8,1.9-1.3
		c0.4-0.4,0.7-0.7,0.9-1c0.1-0.2,0.3-0.5,0.4-0.7c0-0.1,0.1-0.1,0.1,0c0,0.4,0,1.9-0.3,2.4c-0.4,0.8-0.9,1.2-1.4,1.7
		c-0.2,0.3-0.7,1.2-0.9,1.6c-0.2,0.3,1.9,0.7,2,0.4c0.1-0.5,0.3-1.3,1-2.1c0.7-0.8,0.8-1.9,0.8-2.5c0-0.5-0.1-1.5-0.1-1.9
		c0-0.1,0-0.1,0.1-0.1c0.2,0,0.5-0.1,0.5,0.1c0.1,0.4-0.2,0.6,0,1.1c0.3,1,0.8,1.3,0.9,2c0.1,0.8-0.1,1.5,0.2,2.5
		c0.4,1,0.9,1.4,1,1.5c0.2,0.1,1.9-0.7,1.7-0.9c-0.1-0.2-0.7-0.9-1.1-1.7c-0.4-0.8-0.1-1.7-0.5-2.4c-0.3-0.5-0.9-1.1-1.1-1.4
		c-0.1-0.3-0.2-0.5-0.2-0.6c0-0.1,0-0.1,0.1-0.1c0.3,0.1,1.4,0.6,1.9,1c0.5,0.4,0.5,0.9,0.9,1.4c0.4,0.5,3.4,2.5,3.6,2.6
		c0.2,0.1,1.8-1.4,1.6-1.5c-0.2-0.1-0.5-0.3-0.9-0.6c-0.4-0.2-0.9-0.5-1.5-0.8c-0.6-0.4-1.5-0.7-2.3-1.5c-0.4-0.4-1.5-1-2.3-1.2
		c0,0,0,0,0-0.1c0.3-0.1,1.2-0.5,1.7-0.7c0,0,0.1,0,0.1,0c0.1,0.3,0.7,1.4,1.3,1.9c0.8,0.5,2.3,1,2.7,0.9c0,0,0.7,0.1,0.3-0.3
		c-0.4-0.4-0.7-1.4-1.9-2.2c-0.6-0.4-1.3-0.3-1.5-0.3c-0.2,0-0.3-0.1-0.4-0.2c0,0,0-0.1,0-0.1c0.2-0.1,0.9-0.4,1.2-0.5
		c0.2-0.1,0.4-0.1,0.5-0.2c0,0,0.1,0,0.1,0c0.2,0.3,1.4,1.9,2.2,2.3c0.9,0.4,3,1.1,5.3,0.5l0.4-0.1c0,0,0.2-0.1,0-0.3
		c-0.3-0.3-1.6-1.8-3.6-2.3c-2-0.5-3-0.1-3.4-0.2c-0.3-0.1-0.4-0.1-0.5-0.2c-0.1-0.1,0-0.1,0.1-0.2c0.1,0,0.9-0.3,1.3-0.6
		c0.2-0.1,0.4-0.2,0.5-0.3c0.1-0.1,0.2-0.1,0.2,0c0.3,0.3,1.4,1.2,2.6,1.2c1.4,0,2.8-0.1,4.3-1.4c0,0,0.3-0.2,0-0.4
		c-0.3-0.2-1.9-1-3.4-0.9c-1.5,0.1-2.9,1-3.1,1c-0.1,0,0.7-1.2,1.2-1.6c0,0,0-0.1,0.2-0.1c0.1,0,1.2,0,1.5,0c0,0,0.1,0,0.1,0.1
		c0.1,0.2,0.3,0.4,0.6,0.4c0.4,0,0.7-0.3,0.7-0.7c0-0.4-0.3-0.6-0.7-0.6c-0.3,0-0.5,0.1-0.6,0.4c0,0-0.1,0.1-0.1,0.1
		c-0.2,0-0.7,0.1-1.1,0c0,0-0.1-0.1,0-0.2c0.1-0.1,0.3-0.3,0.6-0.6c0,0,0.1,0,0.1,0c0.2,0,0.6,0,1,0.1c0.5,0.1,2.1,1.4,4.1,1.4
		c2,0,2.9-0.4,3.3-0.6c0,0,0.3-0.1,0-0.3c-0.3-0.3-1.4-1.6-3.2-1.8c-1.8-0.2-3.1,0.6-3.3,0.7c-0.3,0.1-0.6,0.2-1.3,0
		c0,0,0-0.1,0-0.1c0.3-0.3,1-1,1.3-1.4c0.4-0.5,1-0.7,1.4-0.6c0.4,0,3.1,0.9,4.4,0.6c1.3-0.3,3.3-1.3,4-2
		C77.8,31.1,78.1,31,77.8,30.8z M53,5.9C53.1,5.9,53.1,5.9,53,5.9c0.1,0.3,0.2,0.6,0.4,0.7c0,0,0,0,0,0c-0.1,0-0.4,0.1-0.6-0.1
		C52.7,6.3,53,6,53,5.9z M50.9,34.9c0.7-0.5,1.7-0.1,3.1,0c1.3,0,3-0.9,3.7-0.2c0.7,0.8-0.8,3.2-1.3,3.8c-0.5,0.6-1,1-1.1,1.1
		c-0.1,0.1-0.2,0.1-0.3,0c-0.2-0.1-0.5-0.3-1-0.3c-0.5,0-0.8,0.1-1,0.2c-0.1,0-0.2,0-0.2-0.1c-0.1-0.1-0.6-0.6-0.9-1
		C51.5,37.8,49.9,35.6,50.9,34.9z M51.2,37.9c0.5,0.8,0.9,1.1,1.4,1.7c0,0,0,0.1,0,0.1c0,0-0.1,0.1-0.1,0.2c0,0-0.1,0.1-0.1,0
		c-0.3-0.2-1.2-0.8-1.7-1.6c-2-2.6-0.8-2.6-0.6-2.8C50.1,35.6,50.1,36.3,51.2,37.9z M56,39.4c1.2-1.2,1.8-2.5,2-3
		c0-0.1,0.1-0.2,0.2-0.2c0.1,0,1.1-0.3,1.1-0.3s-0.6,1.6-1.6,2.7c-1.3,1.4-2.8,2.1-2.8,2.1S55.4,39.9,56,39.4z M54.7,39.9
		c0.1,0.1,0.1,0.2,0.1,0.2c-0.5,0.5-0.5,0.7-0.6,0.9c0,0.1-0.1,0.1-0.2,0.1c-0.2,0.1-0.5,0.1-0.6,0c-0.1,0-0.2-0.1-0.3-0.1
		c-0.4-0.5-0.4-1.2,0.4-1.3C54.2,39.6,54.5,39.8,54.7,39.9z M52.6,41.7c0,0,0.2-0.2,0.3-0.1c0.1,0.1,0,0.3,0,0.3s-0.2,0.6-0.5,1
		c-0.3,0.4-0.7,0.9-1.2,1.2c-0.6,0.4-1.3,0.9-1.8,1.3c-0.6,0.5-1,0.8-1.3,1.1c-0.2,0.2-0.5,0.5-0.6,0.6c-0.1,0.1-1.4-0.5-1.3-0.7
		c0.1-0.1,0.6-0.7,1.8-1.4c0.5-0.3,1.5-0.6,2.4-1.3C52,42.4,52.6,41.7,52.6,41.7z M53.9,33.5 M53.3,42c0-0.1,0-0.3,0.2-0.4
		c0.2,0,0.2,0.2,0.3,0.3c0,0,0.4,2,0,3.4c-0.1,0.4-0.4,0.8-0.8,1.3c-0.4,0.5-0.7,1.5-0.8,1.6c0,0.1-1.3-0.1-1.2-0.2
		c0.1-0.2,0.1-0.4,0.6-1.1c0.5-0.8,0.9-0.9,1.4-1.8c0.4-0.8,0.4-1.8,0.4-1.8L53.3,42z M55.7,41.5c0.1-0.1,0.3,0,0.3,0
		c1.4,0.5,2,0.9,2.4,1.2c0.4,0.3,0.4,0.4,0.8,0.7c0.5,0.4,1,0.6,1.6,0.9c0.5,0.3,2.2,1.2,2.3,1.3c0.1,0.1-1,1.1-1.1,1
		c-0.1-0.1-2.7-1.8-3.2-2.2c-0.5-0.4-0.4-0.9-1-1.4c-0.4-0.4-1.7-1-2.2-1.2C55.7,41.7,55.6,41.6,55.7,41.5z M51.3,4.2
		c0,0,0.1,0.1,0,0.2c-0.1,0.1-0.6,0.6-0.6,0.6s0.2,0,0.2,0.2c0,0.2-0.4,0.3-0.6,0.4C50.1,5.7,50,5.8,50,5.8s-0.1,0.1,0,0.1
		c0.1,0,0.2,0.1,0.2,0.2c0,0.1-0.1,0.2-0.4,0.3c-0.3,0.1-0.7,0.2-0.8,0.3c-0.1,0,0,0.1,0,0.1c0.1,0,0.4,0.2-0.1,0.4
		c-0.5,0.2-0.9,0.4-1.1,0.5c-0.2,0.1-0.4,0.3-0.5,0.4c-0.2,0.1-0.4,0.1-0.2-0.1c0-0.1,0.2-0.4,0.3-0.6c0.1-0.2,0.3-0.8,0.4-0.9
		c0-0.1,0.1-0.2,0.3-0.2c0.1,0,0.1,0.4,0.1,0.4s0,0.1,0.1,0c0.1-0.1,0.6-1,0.6-1.1c0.1-0.1,0.2-0.3,0.4-0.2c0.1,0.1,0.1,0.2,0.1,0.3
		c0,0,0,0.1,0.1,0c0.1-0.1,0.5-0.8,0.6-0.9c0.1-0.2,0.2-0.3,0.3-0.3c0.1,0,0.1,0.1,0.1,0.2c0,0,0,0.1,0.1,0c0.1,0,0.6-0.4,0.6-0.4
		C51.2,4.2,51.3,4.2,51.3,4.2z M58.8,4.8c0.1,0,0.6,0.4,0.6,0.4c0.1,0,0.1,0,0.1,0c0,0,0-0.2,0.1-0.2c0.1,0,0.3,0.1,0.3,0.3
		c0.1,0.2,0.5,0.9,0.6,0.9c0.1,0.1,0.1,0,0.1,0c0,0-0.1-0.2,0-0.3c0.2-0.1,0.3,0.1,0.4,0.2c0.1,0.1,0.5,0.9,0.6,1.1
		c0.1,0.1,0.1,0,0.1,0s0-0.4,0.1-0.4C61.9,6.9,62,7,62,7.1c0,0.1,0.3,0.7,0.3,0.9c0.1,0.2,0.2,0.5,0.2,0.5c0.1,0.3,0,0.3-0.2,0.2
		c-0.1-0.1-0.3-0.2-0.4-0.4c-0.2-0.1-0.6-0.3-1.1-0.5c-0.6-0.3-0.2-0.4,0-0.4c0.1,0,0.1,0,0.1-0.1c-0.1,0-0.4-0.2-0.8-0.3
		c-0.3-0.1-0.4-0.3-0.4-0.4c0-0.1,0.1-0.1,0.2-0.2c0.1,0,0-0.1,0-0.1s-0.2-0.1-0.3-0.2C59.4,6,59.1,5.9,59,5.7
		c0-0.2,0.2-0.2,0.2-0.2s-0.5-0.5-0.6-0.6c-0.1-0.1,0-0.2,0-0.2C58.7,4.7,58.8,4.7,58.8,4.8z M63.6,13.4c0.1,0,0.5,0,0.5,0.1
		c0.1,0,0.1,0,0,0c0,0-0.1-0.1,0-0.2c0.1-0.1,0.3,0,0.4,0.1c0.2,0.1,0.8,0.5,0.9,0.5c0.1,0,0.1,0,0,0c0,0-0.2-0.2-0.1-0.3
		c0.1-0.1,0.3,0,0.4,0c0.1,0.1,0.9,0.6,1,0.6c0.1,0.1,0.1,0,0.1,0s-0.2-0.3-0.1-0.4c0.1-0.1,0.2,0,0.3,0.1c0.1,0,0.5,0.4,0.7,0.6
		c0.1,0.1,0.4,0.3,0.5,0.4c0.2,0.2,0.1,0.3-0.1,0.2c-0.1,0-0.3-0.1-0.5-0.1c-0.2,0-0.6,0-1.2,0c-0.5,0-0.3-0.3-0.2-0.3
		c0.1,0,0.1-0.1,0-0.1c-0.1,0-0.4,0-0.8,0.1c-0.3,0.1-0.5,0-0.5-0.1c0-0.1,0-0.2,0.1-0.2c0.1-0.1,0-0.1,0-0.1s-0.2,0-0.4,0
		c-0.2,0-0.5,0-0.7-0.1c-0.1-0.1,0.1-0.2,0.1-0.2s-0.6-0.2-0.8-0.3c-0.2-0.1-0.1-0.2-0.1-0.2C63.3,13.4,63.5,13.4,63.6,13.4z
		 M46.6,12.9c0,0,0,0.1-0.1,0.2c-0.2,0.1-0.8,0.2-0.8,0.2s0.2,0.1,0.1,0.2c-0.1,0.1-0.5,0.1-0.7,0.1c-0.2,0-0.4,0-0.4,0
		s-0.1,0,0,0.1c0.1,0.1,0.2,0.2,0.1,0.2c-0.1,0.1-0.2,0.2-0.5,0.1c-0.3-0.1-0.7-0.1-0.8-0.1c-0.1,0-0.1,0.1,0,0.1
		c0.1,0,0.3,0.4-0.2,0.3c-0.5-0.1-1-0.1-1.2-0.1c-0.2,0-0.5,0.1-0.5,0.1c-0.2,0-0.3-0.1-0.1-0.2c0.1,0,0.3-0.2,0.5-0.4
		c0.2-0.1,0.7-0.5,0.7-0.5c0.1,0,0.2-0.1,0.3-0.1c0.1,0.1-0.1,0.4-0.1,0.4s-0.1,0.1,0,0c0.1-0.1,0.9-0.5,1-0.6
		c0.1-0.1,0.3-0.1,0.4,0c0.1,0.1,0,0.2-0.1,0.3c0,0,0,0.1,0,0c0.1,0,0.8-0.4,0.9-0.5c0.2-0.1,0.3-0.2,0.4-0.1c0.1,0.1,0,0.2,0,0.2
		c0,0,0,0,0,0c0.1,0,0.7,0,0.7,0C46.5,12.9,46.6,12.8,46.6,12.9z M43.3,21.5c0,0.1-0.2,0.1-0.4,0.1c-0.2,0-0.3-0.2-0.3-0.3
		c0-0.1,0.2-0.1,0.4-0.1C43.2,21.3,43.4,21.4,43.3,21.5z M42.8,22c0,0.1-0.2,0.1-0.5,0.1c-0.2-0.1-0.4-0.2-0.4-0.3
		c0-0.1,0.2-0.1,0.5-0.1C42.6,21.7,42.8,21.8,42.8,22z M42,22.5c0,0.1-0.3,0.2-0.5,0.1c-0.3-0.1-0.5-0.2-0.4-0.4
		c0-0.1,0.3-0.2,0.5-0.1C41.9,22.2,42.1,22.3,42,22.5z M66.1,21.9c0.2-0.1,0.3,0,0.4,0.1c0,0.1-0.1,0.2-0.3,0.3
		c-0.2,0.1-0.3,0-0.4-0.1C65.8,22.1,65.9,21.9,66.1,21.9z M66.8,22.2c0.2-0.1,0.5,0,0.5,0.1c0,0.1-0.1,0.3-0.4,0.3
		c-0.2,0.1-0.5,0-0.5-0.1C66.4,22.4,66.6,22.3,66.8,22.2z M67.6,22.7c0.3-0.1,0.5-0.1,0.5,0.1c0,0.1-0.1,0.3-0.4,0.4
		c-0.3,0.1-0.5,0.1-0.5-0.1C67.1,22.9,67.3,22.7,67.6,22.7z M37.8,31.1c-0.2,0-0.7,0.1-1,0.2c-0.3,0.1-0.4-0.1-0.4-0.2
		c0-0.1,0.4-0.3,0.5-0.3c0.1-0.1,0.1-0.1-0.1-0.1c-0.1,0-0.3,0-0.5,0c-0.2,0-0.8,0.2-0.9,0.2c-0.1,0-0.5,0.1-0.6-0.1
		c-0.1-0.2,0.2-0.3,0.4-0.4c0.1-0.1,0-0.1-0.1-0.1c-0.1,0-0.4,0.1-0.7,0.1c-0.3,0-0.6,0-0.8-0.1c-0.2,0-0.6-0.1-0.5-0.3
		c0-0.1,0.2-0.2,0.3-0.2c0.1,0,0-0.1-0.1-0.1c-0.1,0-1.2-0.5-1.3-0.5c0,0-0.3-0.1-0.2-0.3c0.1-0.1,0.2-0.1,0.4,0
		c0.1,0,1.5,0.4,1.6,0.4c0.1,0,0.2,0,0.2,0c0-0.1,0-0.1,0-0.2c0-0.1,0.1-0.1,0.2,0c0.1,0,0.3,0.2,0.6,0.4c0.3,0.2,0.6,0.3,0.7,0.3
		c0.1,0,0.1,0,0.1-0.1c-0.1-0.1-0.2-0.2-0.1-0.3c0.1,0,0.2-0.1,0.5,0.2c0.3,0.3,0.7,0.5,0.9,0.6c0.2,0.1,0.1,0,0.1-0.1
		c0,0-0.3-0.2-0.1-0.4c0.2-0.2,0.5,0.3,0.9,0.7c0.4,0.4,0.5,0.5,0.5,0.5C38.3,31,38,31,37.8,31.1z M43.4,38c-0.1,0-0.5,0.2-0.7,0.2
		c-0.2,0.1-0.3,0-0.3-0.1c0-0.1,0.3-0.2,0.4-0.3c0.1-0.1,0-0.1-0.1-0.1c-0.1,0-0.2,0-0.4,0.1c-0.2,0-0.6,0.2-0.7,0.3
		c-0.1,0-0.4,0.1-0.5,0c-0.1-0.1,0.1-0.2,0.2-0.3c0.1-0.1,0,0-0.1,0c-0.1,0-0.3,0.1-0.5,0.1c-0.2,0-0.4,0-0.6,0
		c-0.2,0-0.4,0-0.4-0.1c0-0.1,0.2-0.1,0.2-0.2c0.1,0,0,0-0.1-0.1c-0.1,0-1-0.2-1-0.2c0,0-0.2-0.1-0.2-0.2c0-0.1,0.2-0.1,0.3-0.1
		c0.1,0,1.1,0.1,1.2,0c0.1,0,0.1,0,0.1-0.1c0,0,0-0.1,0-0.1c0,0,0.1-0.1,0.2,0c0.1,0,0.3,0.1,0.5,0.2c0.2,0.1,0.5,0.1,0.5,0.1
		c0.1,0,0.1,0,0-0.1c-0.1,0-0.1-0.1-0.1-0.2c0,0,0.1-0.1,0.4,0.1c0.3,0.2,0.6,0.3,0.7,0.3c0.2,0,0.1,0,0,0c0,0-0.2-0.1-0.1-0.3
		c0.1-0.1,0.4,0.2,0.7,0.3c0.4,0.2,0.4,0.3,0.4,0.3C43.8,37.9,43.6,38,43.4,38z M64.3,38.5c0,0,0-0.2,0.4-0.3
		c0.5-0.2,0.7-0.5,0.8-0.4c0.1,0.1-0.1,0.3-0.2,0.3c0,0-0.1,0.1,0.1,0.1c0.2,0,0.5-0.1,0.8-0.3c0.3-0.2,0.4-0.1,0.4-0.1
		c0.1,0.1,0,0.2-0.1,0.2c-0.1,0,0,0.1,0,0.1c0.1,0,0.3,0,0.6-0.1c0.2-0.1,0.4-0.2,0.5-0.2c0.1,0,0.2-0.1,0.2,0
		c0,0.1-0.1,0.2-0.1,0.2c0,0.1,0,0,0.1,0.1c0.1,0,1.2,0,1.3,0c0.1,0,0.3,0,0.3,0.1c0,0.1-0.1,0.2-0.2,0.2c-0.1,0-1,0.2-1.1,0.2
		c-0.1,0-0.3,0-0.2,0c0.1,0,0.2,0.2,0.2,0.2c0,0.2-0.1,0.1-0.2,0.1c-0.2,0-0.4-0.1-0.6-0.1c-0.2-0.1-0.5-0.1-0.5-0.1
		c-0.1,0-0.2-0.1-0.1,0c0.1,0.1,0.3,0.2,0.2,0.4c-0.1,0.1-0.4,0-0.5,0c-0.1,0-0.5-0.3-0.7-0.4c-0.2-0.1-0.2-0.1-0.3,0
		c-0.1,0-0.1,0-0.1,0.1c0.1,0.1,0.3,0.2,0.3,0.3c0,0.1-0.1,0.2-0.3,0.1c-0.2-0.1-0.6-0.3-0.7-0.4C64.6,38.7,64.3,38.6,64.3,38.5z
		 M36,22.2c-0.1-0.1-0.4-0.4-0.5-0.6c-0.2-0.2-0.1-0.3,0-0.3c0.1,0,0.3,0.2,0.4,0.2c0.1,0.1,0.1,0,0.1-0.1c0-0.1-0.1-0.2-0.2-0.3
		c-0.1-0.1-0.5-0.5-0.5-0.5c-0.1-0.1-0.3-0.3-0.2-0.4c0.1-0.1,0.3,0,0.4,0.1c0.1,0.1,0-0.1,0-0.1c0-0.1-0.2-0.4-0.3-0.6
		c-0.1-0.2-0.5-0.6-0.4-0.8c0-0.1,0.3,0.1,0.4,0.1c0,0,0-0.1,0-0.2c0-0.1-0.2-1-0.2-1c0,0,0-0.2,0.1-0.2c0.1,0,0.1,0.1,0.2,0.2
		c0,0.1,0.4,1.1,0.4,1.2c0.1,0.1,0.1,0.1,0.1,0.1c0.1,0,0.1-0.2,0.1-0.2c0.1,0,0.1,0.1,0.1,0.2c0,0.1,0,0.3,0,0.5
		c0,0.2,0.1,0.5,0.1,0.6c0,0.1,0.1,0.1,0.1,0c0-0.1,0.1-0.2,0.2-0.2c0.1,0,0.1,0.1,0.1,0.4c-0.1,0.3,0,0.6,0,0.8
		c0,0.2,0.1,0.1,0.1,0c0,0,0-0.3,0.2-0.2c0.2,0.1-0.1,0.4-0.1,0.8c0,0.4,0.1,0.5,0,0.6C36.3,22.6,36.1,22.3,36,22.2z M72.4,22.9
		c-0.1-0.1,0-0.2,0-0.6c0-0.4-0.2-0.8,0-0.9c0.2-0.1,0.2,0.2,0.2,0.2c0,0,0.1,0.2,0.1,0c0-0.2,0.1-0.5,0-0.8c-0.1-0.3,0-0.4,0.1-0.4
		c0.1,0,0.2,0.1,0.2,0.2c0,0.1,0,0.1,0.1,0c0-0.1,0.1-0.3,0.1-0.5c0-0.2,0-0.4,0-0.5c0-0.1,0-0.2,0.1-0.2c0.1,0,0.1,0.2,0.1,0.2
		c0,0,0,0,0.1-0.1c0.1-0.1,0.4-1,0.5-1.1c0-0.1,0.1-0.2,0.2-0.2c0.1,0,0.1,0.2,0.1,0.2c0,0-0.2,0.8-0.2,0.9c0,0.1-0.1,0.3,0,0.3
		c0.1,0,0.3-0.2,0.4-0.1c0.1,0.2-0.3,0.5-0.4,0.7c-0.1,0.2-0.3,0.5-0.3,0.6c0,0.1-0.1,0.2,0,0.1c0.1-0.1,0.3-0.2,0.4-0.1
		c0.1,0.1-0.1,0.4-0.2,0.4c-0.1,0.1-0.4,0.4-0.6,0.5c-0.1,0.1-0.2,0.2-0.2,0.3c0,0.1,0,0.1,0.1,0.1c0.1-0.1,0.3-0.2,0.4-0.1
		c0.1,0,0.1,0.1,0,0.3c-0.2,0.2-0.4,0.4-0.5,0.5C72.7,22.8,72.5,23,72.4,22.9z M42.5,9.8c0-0.1,0-0.5,0-0.8c0-0.2,0.1-0.3,0.2-0.2
		c0.1,0.1,0.1,0.3,0.2,0.4c0,0.1,0.1,0.1,0.1,0c0-0.1,0-0.1,0.1-0.3c0-0.2,0-0.7,0-0.8c0-0.1,0-0.4,0.2-0.4c0.2,0,0.2,0.3,0.2,0.4
		c0,0.1,0.1,0,0.1-0.1c0-0.1,0.2-0.3,0.2-0.5c0.1-0.2,0.1-0.5,0.1-0.6c0.1-0.1,0.1-0.3,0.3-0.3c0.1,0,0.1,0.1,0.1,0.2
		c0,0.1,0,0.1,0.1,0c0.1-0.1,0.6-0.8,0.7-0.9c0,0,0.2-0.2,0.3-0.1c0.1,0.1,0,0.2-0.1,0.3c-0.1,0.1-0.6,1.1-0.6,1.2
		c0,0.1,0,0.1,0,0.1c0,0,0.2-0.1,0.2,0c0,0,0,0.2-0.1,0.2c0,0.1-0.2,0.2-0.4,0.4c-0.2,0.2-0.3,0.4-0.4,0.5c0,0.1,0,0.1,0,0.1
		c0.1,0,0.2-0.1,0.3,0c0,0.1,0.1,0.1-0.3,0.3c-0.3,0.2-0.5,0.4-0.6,0.5c-0.1,0.1,0,0.1,0,0.1c0,0,0.2-0.2,0.3,0
		c0.1,0.2-0.3,0.3-0.7,0.5c-0.4,0.3-0.5,0.4-0.6,0.3C42.4,10.3,42.5,10,42.5,9.8z M69.6,21.8c-0.1-0.1-0.4-0.2-0.6-0.2
		c-0.2-0.1-0.2-0.2-0.1-0.2c0.1-0.1,0.3,0,0.4,0c0.1,0,0.1-0.1,0-0.1c0-0.1-0.1-0.1-0.2-0.1c-0.1-0.1-0.5-0.2-0.6-0.2
		c-0.1,0-0.3-0.1-0.3-0.3c0-0.1,0.3-0.1,0.3-0.1c0.1,0,0-0.1-0.1-0.1c-0.1,0-0.2-0.2-0.4-0.3c-0.2-0.1-0.3-0.2-0.4-0.3
		c-0.1-0.1-0.2-0.2-0.2-0.3c0-0.1,0.1,0,0.1,0c0,0,0.1,0,0,0c0-0.1-0.5-0.7-0.5-0.7c0,0-0.1-0.2,0-0.2c0.1,0,0.2,0,0.2,0.1
		c0.1,0.1,0.7,0.7,0.8,0.8c0.1,0.1,0.1,0.1,0.1,0c0,0,0-0.1,0-0.2c0,0,0.1,0,0.2,0.1c0,0.1,0.1,0.2,0.2,0.4c0.1,0.2,0.2,0.4,0.3,0.4
		c0,0,0.1,0,0.1,0c0-0.1,0-0.2,0.1-0.2c0,0,0.1,0,0.2,0.3c0.1,0.3,0.2,0.5,0.3,0.6c0.1,0.1,0.1,0,0.1,0c0,0-0.1-0.2,0.1-0.3
		c0.2,0,0.2,0.3,0.3,0.7c0.1,0.3,0.2,0.5,0.1,0.5C70,22,69.7,21.9,69.6,21.8z M49.1,41.4c-0.1,0.1-0.3,0.3-0.4,0.5
		c-0.1,0.1-0.2,0.1-0.3,0c0-0.1,0.1-0.3,0.1-0.3c0-0.1,0-0.1-0.1,0c-0.1,0-0.1,0.1-0.2,0.2c-0.1,0.1-0.3,0.4-0.4,0.5
		c0,0.1-0.2,0.3-0.3,0.2c-0.1-0.1,0-0.3,0.1-0.3c0-0.1-0.1,0-0.1,0c0,0-0.2,0.1-0.4,0.2c-0.1,0.1-0.3,0.3-0.4,0.3
		c-0.1,0.1-0.3,0.1-0.3,0c0-0.1,0-0.1,0-0.1c0,0,0-0.1,0,0c-0.1,0-0.8,0.2-0.8,0.2c0,0-0.2,0-0.2-0.1c0-0.1,0.1-0.1,0.2-0.2
		c0.1,0,0.9-0.4,0.9-0.4c0.1-0.1,0.1-0.1,0.1-0.1c0,0-0.1,0-0.1-0.1c0,0,0.1-0.1,0.1-0.1c0.1,0,0.2,0,0.4,0c0.2,0,0.4-0.1,0.4-0.1
		c0,0,0.1-0.1,0-0.1c-0.1,0-0.2-0.1-0.2-0.1c0,0,0-0.1,0.3-0.1c0.3,0,0.5,0,0.7,0c0.1,0,0-0.1,0-0.1c0,0-0.2,0-0.2-0.2
		c0-0.2,0.4,0,0.7,0c0.3,0,0.5,0,0.5,0.1C49.3,41.1,49.1,41.3,49.1,41.4z M59.5,41.1c0.1,0,0.4,0,0.5,0c0.2,0,0.2,0.1,0.2,0.2
		c0,0.1-0.2,0.1-0.3,0.1c-0.1,0,0,0.1,0,0.1c0.1,0,0.1,0,0.2,0.1c0.1,0,0.5,0,0.5,0c0.1,0,0.3,0,0.3,0.1c0,0.1-0.2,0.1-0.3,0.1
		c-0.1,0,0,0.1,0.1,0.1c0,0,0.2,0.1,0.4,0.2c0.2,0,0.3,0.1,0.4,0.1c0.1,0.1,0.2,0.1,0.2,0.2c0,0.1-0.1,0-0.1,0.1c0,0-0.1,0,0,0
		c0,0,0.6,0.4,0.6,0.5c0,0,0.1,0.1,0.1,0.2c-0.1,0.1-0.1,0-0.2,0c-0.1,0-0.7-0.4-0.8-0.4c-0.1,0-0.1,0-0.1,0c0,0,0,0.1,0,0.1
		c0,0-0.1,0-0.2,0c-0.1,0-0.1-0.2-0.2-0.3c-0.1-0.1-0.3-0.2-0.3-0.3c0,0-0.1,0,0,0c0,0,0,0.1,0,0.2c0,0-0.1,0-0.2-0.2
		c-0.1-0.2-0.3-0.4-0.4-0.4c-0.1-0.1-0.1,0,0,0c0,0,0.1,0.2,0,0.2c-0.1,0.1-0.2-0.2-0.4-0.5c-0.2-0.2-0.2-0.3-0.2-0.4
		C59.1,41,59.4,41,59.5,41.1z M39.2,20.8c0-0.1,0.2-0.4,0.2-0.6c0.1-0.2,0.2-0.2,0.2-0.1c0.1,0.1,0,0.3,0,0.4c0,0.1,0.1,0.1,0.1,0
		c0.1,0,0.1-0.1,0.1-0.2c0.1-0.1,0.2-0.5,0.2-0.6c0-0.1,0.1-0.3,0.3-0.3c0.1,0,0.1,0.3,0.1,0.4c0,0.1,0.1,0,0.1-0.1
		c0-0.1,0.2-0.2,0.3-0.4c0.1-0.2,0.2-0.3,0.3-0.4c0.1-0.2,0.2-0.3,0.3-0.2c0.1,0,0,0.1,0,0.2c0,0.1,0,0.1,0,0c0.1,0,0.7-0.5,0.7-0.5
		c0,0,0.2-0.1,0.2,0c0,0.1,0,0.2-0.1,0.2c-0.1,0.1-0.7,0.7-0.8,0.8c0,0.1-0.1,0.1,0,0.1c0,0,0.2,0,0.2,0.1c0,0.1-0.2,0.2-0.2,0.2
		s-0.2,0.1-0.4,0.1C41,19.8,40.8,20,40.7,20c0,0,0,0.1,0,0.1c0.1,0,0.2,0,0.2,0.1c0,0,0,0.1-0.3,0.2c-0.3,0.1-0.5,0.2-0.6,0.3
		c-0.1,0.1,0,0.1,0,0.1c0,0,0.2-0.1,0.3,0.1c0,0.2-0.3,0.2-0.7,0.3c-0.3,0.1-0.5,0.2-0.5,0.1C39,21.2,39.1,20.9,39.2,20.8z
		 M70.6,15.1c0-0.1-0.1-0.4-0.1-0.5c0-0.2,0-0.2,0.1-0.2c0.1,0,0.1,0.2,0.2,0.2c0,0.1,0.1,0,0.1,0c0-0.1,0-0.1,0-0.2
		c0-0.1-0.1-0.4-0.1-0.5c0-0.1-0.1-0.3,0-0.3c0.1,0,0.2,0.1,0.2,0.2c0,0.1,0,0,0-0.1c0,0,0-0.2,0-0.4c0-0.2,0-0.3,0-0.4
		c0-0.1,0-0.3,0.1-0.3c0,0,0.1,0.1,0.1,0.1c0,0,0,0.1,0,0c0,0,0.2-0.7,0.3-0.7c0,0,0.1-0.1,0.1-0.1c0.1,0,0,0.1,0,0.2
		c0,0.1-0.2,0.8-0.2,0.9c0,0.1,0,0.1,0,0.1c0,0,0.1-0.1,0.2-0.1c0.1,0.1-0.1,0.2-0.1,0.2s-0.1,0.1-0.2,0.2c-0.1,0.1-0.1,0.3-0.1,0.4
		c0,0,0,0.1,0,0c0,0,0.1-0.1,0.2,0c0,0,0.1,0.1-0.1,0.3c-0.2,0.2-0.3,0.4-0.3,0.5c0,0.1,0,0.1,0,0c0,0,0.1-0.2,0.2,0
		c0.1,0.1-0.2,0.3-0.3,0.5c-0.2,0.2-0.2,0.3-0.3,0.3C70.6,15.4,70.6,15.2,70.6,15.1z M66.7,10.6c0,0-0.2-0.1-0.5-0.3
		c-0.3-0.3-0.8-0.4-0.6-0.5c0.1-0.2,0.3,0,0.3,0c0,0,0.1,0.1,0-0.1c-0.1-0.1-0.3-0.4-0.6-0.5C65,9,65,8.9,65,8.8
		c0.1-0.1,0.2,0,0.3,0c0.1,0,0.1,0,0,0c0-0.1-0.1-0.3-0.3-0.4C64.8,8.2,64.7,8,64.6,8c0-0.1-0.1-0.2,0-0.2c0,0,0.2,0,0.2,0
		c0,0,0,0,0-0.1c0-0.1-0.3-0.9-0.3-1c-0.1-0.1-0.1-0.2,0-0.3c0.1-0.1,0.2,0.1,0.2,0.1c0,0,0.3,0.7,0.4,0.8c0,0.1,0.1,0.3,0.1,0.3
		c0-0.1,0-0.5,0.1-0.5c0.2,0,0.2,0.2,0.3,0.3c0.1,0.1,0.1,0.4,0.1,0.6c0,0.2,0.1,0.4,0.2,0.5c0,0.1,0.1,0.2,0.1,0.1
		c0-0.1,0-0.4,0.2-0.3c0.2,0,0.2,0.3,0.2,0.4c0,0.1-0.1,0.6-0.1,0.7c0,0.2,0,0.2,0,0.3c0,0.1,0.1,0.1,0.1,0c0-0.1,0.1-0.3,0.2-0.4
		c0.1,0,0.2,0,0.2,0.2c0,0.2,0,0.6,0,0.7C66.8,10.3,66.8,10.6,66.7,10.6z M70.3,31.9c0,0,0.1-0.2,0.5-0.5c0.5-0.3,0.8-0.7,1-0.5
		c0.2,0.2-0.1,0.4-0.1,0.4c0,0-0.1,0.1,0.1,0.1c0.2,0,0.6-0.2,0.9-0.5c0.4-0.3,0.4-0.2,0.5-0.2c0.1,0,0,0.3-0.1,0.3
		c-0.1,0.1,0,0.1,0,0.1c0.1,0,0.4-0.1,0.7-0.2c0.3-0.1,0.5-0.3,0.6-0.3c0.1,0,0.2,0,0.2,0.1c0,0.1-0.1,0.1,0,0.2c0,0.1,0,0,0.2,0.1
		c0.1,0,1.5-0.1,1.6-0.1c0.1,0,0.3,0,0.4,0.1c0.1,0.1-0.2,0.2-0.2,0.2c0,0-1.2,0.3-1.3,0.4c-0.1,0-0.1,0,0,0.1
		c0.1,0,0.2,0.1,0.1,0.2c0,0.1-0.3,0.2-0.5,0.2c-0.2,0-0.5,0.1-0.8,0c-0.3,0-0.6-0.1-0.7-0.2c-0.1,0-0.3,0-0.1,0
		c0.1,0.1,0.4,0.2,0.3,0.4c-0.1,0.2-0.5,0.1-0.6,0c-0.1,0-0.7-0.3-0.9-0.4c-0.2-0.1-0.4-0.1-0.5-0.1c-0.1,0-0.2,0-0.1,0.1
		c0.1,0.1,0.5,0.3,0.5,0.4c0,0.1-0.1,0.3-0.4,0.2c-0.3-0.1-0.8-0.3-0.9-0.3C70.5,32.2,70.3,32.1,70.3,31.9z M71.9,27.7
		c0.1-0.1,0.3-0.6,0.4-0.8c0.1-0.3,0.3-0.2,0.3-0.2c0.1,0.1,0,0.4-0.1,0.6c0,0.1,0,0.1,0.1,0c0.1-0.1,0.2-0.2,0.3-0.4
		c0.1-0.2,0.3-0.7,0.3-0.8c0-0.1,0.2-0.4,0.4-0.4c0.2,0,0.1,0.3,0.1,0.5c0,0.1,0.1,0,0.1-0.1c0.1-0.1,0.3-0.3,0.4-0.5
		c0.2-0.2,0.3-0.5,0.5-0.6c0.1-0.1,0.4-0.3,0.5-0.2c0.1,0,0,0.1,0,0.2c0,0.1,0,0.1,0.1,0c0.1,0,1-0.7,1.1-0.7c0.1,0,0.2-0.1,0.3,0
		c0,0.1-0.1,0.2-0.2,0.3c-0.1,0.1-1.1,0.9-1.1,1c-0.1,0.1-0.1,0.1-0.1,0.2c0,0.1,0.1,0,0.2,0.1c0,0.1,0,0.1-0.1,0.2
		c-0.1,0.1-0.3,0.1-0.6,0.2c-0.3,0.1-0.5,0.3-0.6,0.4c-0.1,0.1-0.1,0.1,0,0.1c0.1,0,0.3,0,0.3,0.1c0,0.1,0,0.2-0.4,0.3
		c-0.4,0.1-0.7,0.3-0.9,0.4c-0.2,0.1,0,0.1,0,0.1c0,0,0.3-0.1,0.3,0.1c0,0.3-0.5,0.2-1,0.4c-0.5,0.2-0.6,0.1-0.6,0.1
		C71.7,28.1,71.8,27.8,71.9,27.7z M71.8,17.6c0-0.1-0.1-0.4-0.1-0.6c0-0.2,0.1-0.2,0.1-0.2c0.1,0,0.1,0.3,0.2,0.3c0,0.1,0,0,0.1,0
		c0-0.1,0-0.2,0-0.3c0-0.1-0.1-0.5-0.1-0.6c0-0.1,0-0.3,0.1-0.4c0.1-0.1,0.2,0.1,0.2,0.2c0,0.1,0,0,0-0.1c0-0.1,0-0.3,0-0.4
		c0-0.2,0-0.3,0-0.4c0-0.1,0-0.4,0.2-0.4c0.1,0,0,0.1,0.1,0.2c0,0,0,0,0.1,0c0-0.1,0.2-0.8,0.2-0.8c0,0,0.1-0.2,0.2-0.1
		c0.1,0,0,0.2,0,0.2c0,0.1-0.1,0.8-0.1,0.9c0,0.1,0,0.2,0,0.2c0,0,0.1-0.1,0.2,0c0,0,0,0.1,0,0.2c0,0.1-0.1,0.2-0.2,0.4
		c-0.1,0.2-0.2,0.4-0.2,0.4c0,0.1,0,0.1,0,0c0,0,0.1-0.1,0.2,0c0,0.1,0.1,0.1-0.1,0.3c-0.2,0.2-0.3,0.4-0.3,0.5c0,0.1,0,0.1,0,0
		c0,0,0.1-0.2,0.2,0c0.1,0.1-0.2,0.3-0.4,0.6c-0.2,0.3-0.3,0.3-0.3,0.3C71.8,17.9,71.8,17.7,71.8,17.6z M37.4,27.2
		c0,0-0.2,0.1-0.6-0.1c-0.5-0.2-1-0.1-0.9-0.4c0-0.3,0.3-0.1,0.3-0.1c0,0,0.2,0,0-0.1c-0.2-0.1-0.5-0.3-0.9-0.4
		c-0.4-0.1-0.4-0.2-0.4-0.3c0-0.1,0.2-0.1,0.3-0.1c0.1,0,0.1,0,0-0.1c0-0.1-0.3-0.3-0.6-0.4C34.4,25.1,34.1,25,34,25
		c-0.1-0.1-0.1-0.1-0.1-0.2c0-0.1,0.1,0,0.2-0.1c0-0.1,0,0-0.1-0.2c-0.1-0.1-1-1-1.1-1.1c-0.1-0.1-0.2-0.2-0.2-0.3
		c0-0.1,0.2,0,0.3,0c0,0,1,0.7,1.1,0.7c0.1,0,0.1,0,0.1,0c0-0.1-0.1-0.2,0-0.2c0.1,0,0.3,0.1,0.4,0.2c0.1,0.1,0.4,0.3,0.5,0.6
		c0.1,0.2,0.3,0.5,0.3,0.6c0,0.1,0.1,0.2,0.1,0.1c0-0.1-0.1-0.4,0.1-0.5c0.2,0,0.4,0.3,0.4,0.4c0,0.1,0.2,0.7,0.3,0.8
		c0.1,0.2,0.2,0.3,0.3,0.4c0.1,0.1,0.1,0.1,0.1,0c0-0.1-0.1-0.5,0-0.6c0.1-0.1,0.2-0.1,0.3,0.2c0.1,0.3,0.3,0.7,0.4,0.8
		C37.5,26.9,37.6,27.2,37.4,27.2z M45.8,40.3c-0.2,0.2-0.6,0.5-0.7,0.5c-0.1,0,0.1-0.2,0.1-0.2s0-0.1-0.3,0.1
		c-0.3,0.3-0.7,0.4-0.8,0.4c-0.1-0.1-0.1-0.1,0-0.2c0-0.1,0-0.1-0.1-0.1c-0.1,0-0.2,0.1-0.3,0.2c-0.1,0.1-0.7,0.4-0.8,0.3
		c-0.1,0-0.1-0.1,0-0.2c0.1-0.1,0-0.1-0.2-0.1c-0.1,0-0.4,0.2-0.5,0.3s-0.3,0.1-0.4,0.1c-0.1,0,0-0.2-0.1-0.2c0-0.1-0.2,0.1-0.5,0.2
		c-0.3,0.1-0.4,0.1-0.4,0.1c0,0,0-0.1,0-0.2c-0.1,0-0.5,0-0.7,0c-0.2,0-0.4-0.1-0.4-0.2c0-0.1,0.1-0.1,0.3-0.1
		c0.2,0,0.9-0.1,0.9-0.1c0.1,0,0.2-0.1,0.2-0.1c0,0-0.2-0.1-0.1-0.2c0-0.1,0.1-0.1,0.2,0c0.1,0,0.7,0.1,0.8,0.1c0.1,0,0.3,0,0.2-0.1
		c0-0.1-0.1-0.1-0.1-0.2c0-0.1,0.3,0,0.4,0c0.1,0,0.9,0.1,1,0c0.1,0,0.1-0.1,0.1-0.1c0,0-0.2,0-0.2-0.2c0.1-0.2,0.5,0,0.8,0
		c0.2,0,0.5,0,0.5,0.1c0.1,0,0.1-0.1,0.1-0.1c0,0-0.1-0.1-0.1-0.2c0.1-0.1,0.2-0.1,0.3,0c0.1,0,0.5,0.2,0.9,0.2
		c0.1,0,0.3-0.1,0.4,0.1C46.3,39.8,45.9,40.1,45.8,40.3z M36.9,17.8c-0.1-0.1-0.4-0.5-0.4-0.6c0-0.1,0.2,0.1,0.2,0.1s0.1,0-0.1-0.2
		c-0.2-0.2-0.4-0.6-0.3-0.6c0-0.1,0.1-0.1,0.2,0c0.1,0,0.1,0,0.1-0.1c0-0.1-0.1-0.1-0.2-0.3c-0.1-0.1-0.3-0.6-0.3-0.6
		c0,0,0.1-0.1,0.1,0c0.1,0.1,0.1,0,0.1-0.1c0-0.1-0.2-0.3-0.2-0.4c-0.1-0.1-0.1-0.2-0.1-0.3c0,0,0.1,0,0.2-0.1c0,0,0-0.2-0.1-0.4
		c-0.1-0.2-0.2-0.3-0.1-0.4c0,0,0.1,0.1,0.1,0c0-0.1,0-0.4,0-0.5c0-0.1,0-0.3,0.1-0.3c0.1,0,0.1,0.1,0.1,0.2c0,0.1,0.1,0.6,0.1,0.7
		c0,0.1,0.1,0.2,0.1,0.2c0,0,0.1-0.1,0.1-0.1c0.1,0,0.1,0.1,0,0.2c0,0.1-0.1,0.6-0.1,0.7c0,0.1,0,0.2,0.1,0.2c0,0,0.1-0.1,0.2-0.1
		c0.1,0,0,0.2,0,0.3c0,0.1,0,0.8,0,0.9c0,0.1,0.1,0.1,0.1,0.1c0,0,0-0.2,0.2-0.1c0.1,0.1,0,0.4,0,0.6c0,0.2,0,0.4,0,0.4
		c0,0.1,0.1,0.1,0.1,0.1c0,0,0.1-0.1,0.2-0.1c0.1,0,0.1,0.1,0,0.2c0,0.1-0.1,0.4-0.1,0.7c0,0.1,0.1,0.2-0.1,0.3
		C37.3,18.2,37.1,18,36.9,17.8z M62.1,40.3c0.1-0.1,0.2-0.1,0.3-0.1c0.4,0,0.7,0,0.8-0.1c0.1,0,0.3-0.1,0.4,0
		c0.1,0.2-0.1,0.2-0.1,0.3c0,0,0,0,0,0.1c0.1,0,0.3,0,0.5,0c0.2,0,0.7-0.1,0.7,0c0,0.2-0.1,0.2-0.2,0.2c0,0,0,0.1,0.1,0.2
		c0.1,0,0.7,0.1,0.9,0c0.1,0,0.3-0.1,0.3,0c0,0.1-0.1,0.2-0.1,0.2c-0.1,0,0,0.1,0.1,0.1c0.1,0,0.6,0.1,0.8,0c0.1,0,0.2,0,0.2,0
		c0,0.1,0,0.2-0.1,0.2c0,0,0,0.1,0.1,0.1c0.1,0,0.7,0.2,0.8,0.3c0.1,0,0.3,0.1,0.2,0.2c0,0.1-0.2,0.1-0.4,0.1
		c-0.1,0-0.7-0.1-0.8-0.1c-0.1,0,0.1,0.1,0.1,0.2c0,0-0.2,0-0.4-0.1c-0.2-0.1-0.4-0.2-0.4-0.1c0,0.1,0,0.1-0.1,0.1
		c-0.1,0-0.2,0-0.3-0.1c-0.1-0.1-0.4-0.3-0.4-0.3c-0.1,0-0.2,0-0.1,0.1c0.1,0.1,0,0.1-0.1,0.1c-0.1,0-0.5-0.2-0.6-0.4
		c-0.1-0.1-0.2-0.2-0.3-0.2c-0.1-0.1-0.1-0.1-0.1,0.1c0,0.1,0,0.2-0.1,0.2c-0.1,0.1-0.5-0.1-0.7-0.4c-0.2-0.3-0.2-0.1-0.2-0.1
		s0.1,0.2,0,0.2c-0.1,0-0.5-0.4-0.6-0.6C62.3,40.8,62,40.4,62.1,40.3z M68.8,8.8c0.1,0,0.1,0.2,0.2,0.5C69,9.6,69,9.6,69.1,9.7
		c0,0.1,0.1,0.1,0.1,0c0.1-0.1,0.1-0.1,0.2-0.1c0.1,0.1,0.1,0.2,0.1,0.6c-0.1,0.3-0.1,0.5-0.1,0.5c0,0.1,0.1,0.1,0.1,0
		c0.1-0.1,0.1-0.1,0.1,0c0,0,0,0.7-0.1,0.9c-0.1,0.2,0,0.2,0,0.1c0,0,0.1-0.1,0.2,0c0.1,0-0.1,0.3-0.2,0.6c-0.1,0.3-0.2,0.4-0.2,0.4
		c-0.1,0-0.2-0.2-0.3-0.3c-0.1-0.2-0.2-0.4-0.3-0.5c-0.1-0.1,0-0.2,0-0.2c0,0,0.2,0,0.2,0.1c0,0,0,0,0-0.1c0,0-0.3-0.6-0.4-0.7
		c0-0.1-0.2-0.3-0.1-0.4c0.1-0.1,0.2,0,0.2,0c0,0,0.1,0,0,0c0-0.1-0.2-0.5-0.2-0.6c0-0.1-0.1-0.2,0-0.3c0.1,0,0.2,0,0.2,0
		c0,0,0,0,0-0.1c0-0.1-0.1-0.4-0.1-0.5C68.7,9.1,68.7,8.8,68.8,8.8z M40.6,9c0,0.1,0,0.4-0.1,0.5c0,0.1,0,0.1,0,0.1
		c0,0,0.1-0.1,0.2-0.1c0.1,0,0,0.2,0,0.3c0,0.1-0.2,0.5-0.2,0.6c0,0.1,0,0.1,0.1,0c0,0,0.2-0.1,0.3,0c0.1,0.1-0.1,0.3-0.1,0.4
		c0,0.1-0.4,0.7-0.4,0.7c0,0.1,0,0.1,0,0c0,0,0.1-0.1,0.2,0c0,0,0.1,0.1,0,0.2c-0.1,0.1-0.2,0.4-0.3,0.5c-0.1,0.2-0.3,0.4-0.3,0.3
		c-0.1,0-0.1-0.1-0.3-0.4c-0.1-0.3-0.3-0.6-0.2-0.6c0.1-0.1,0.1,0,0.2,0c0,0,0.1,0.1,0-0.1c-0.1-0.2-0.1-0.9-0.1-0.9
		c0,0,0.1,0,0.2,0c0.1,0.1,0.1,0,0.1,0c0-0.1,0-0.2-0.1-0.5c-0.1-0.4,0-0.5,0-0.6c0.1-0.1,0.1,0,0.2,0.1c0.1,0.1,0.1,0.1,0.1,0
		c0-0.1,0.1-0.1,0.1-0.4c0.1-0.3,0.1-0.5,0.2-0.5C40.6,8.6,40.6,8.9,40.6,9z M52.9,9.1c-0.1,0-0.4,0-0.5,0c-0.1,0-0.1,0-0.1,0
		c0,0,0.1,0.1,0.1,0.2c0,0.1-0.2,0.1-0.3,0c-0.1,0-0.5-0.2-0.6-0.2c-0.1,0-0.1,0,0,0c0,0,0.1,0.2,0,0.2c-0.1,0.1-0.3,0-0.4-0.1
		c-0.1,0-0.7-0.3-0.8-0.3c-0.1,0-0.1,0,0,0c0,0,0.1,0.1,0.1,0.2c0,0-0.1,0.1-0.2,0c-0.1,0-0.4-0.1-0.6-0.2c-0.2-0.1-0.4-0.2-0.4-0.3
		c0-0.1,0.1-0.1,0.4-0.3c0.3-0.1,0.6-0.3,0.6-0.3c0.1,0,0,0.1,0,0.2c0,0-0.1,0.1,0.1,0c0.2-0.1,0.9-0.2,1-0.2c0,0,0,0.1,0,0.1
		c-0.1,0.1,0,0.1,0,0.1c0.1,0,0.2,0,0.5-0.1c0.4-0.1,0.5-0.1,0.6,0c0.1,0.1,0,0.1,0,0.2c-0.1,0.1-0.1,0.1,0,0.1
		c0.1,0,0.1,0.1,0.4,0.1c0.3,0,0.5,0.1,0.5,0.2C53.3,9.1,52.9,9.1,52.9,9.1z M56.5,9c0-0.1,0.3-0.1,0.6-0.1c0.3,0,0.3,0,0.4,0
		c0.1,0,0.1-0.1,0-0.1c-0.1-0.1-0.1-0.1,0-0.2c0.1-0.1,0.3-0.1,0.6,0.1c0.4,0.1,0.5,0.2,0.5,0.2c0.1,0,0.1,0,0.1-0.1
		c-0.1-0.1,0-0.1,0-0.1c0,0,0.7,0.2,1,0.3c0.3,0.1,0.2,0,0.1,0c0,0-0.1-0.1,0-0.2c0.1,0,0.3,0.2,0.6,0.3c0.3,0.2,0.4,0.2,0.4,0.3
		c0,0.1-0.2,0.2-0.4,0.2c-0.2,0.1-0.5,0.1-0.6,0.2c-0.1,0-0.2,0-0.2-0.1c0,0,0-0.1,0.1-0.2c0,0,0,0,0,0c-0.1,0-0.8,0.2-0.8,0.2
		c-0.1,0-0.4,0.1-0.4,0c-0.1-0.1,0-0.2,0-0.2c0,0,0.1-0.1,0-0.1c-0.1,0-0.6,0.1-0.7,0.1c-0.1,0-0.3,0-0.3-0.1c0-0.1,0.1-0.2,0.1-0.2
		c0,0,0,0-0.1-0.1c-0.1,0-0.5,0-0.5,0C56.9,9.1,56.5,9.1,56.5,9z M45.6,23.6c0.1,0.1-0.5,0.7-0.7,1c-0.2,0.3-0.2,0.3-0.2,0.3
		c0,0,0.2,0,0.2,0.1c0,0.1-0.3,0.5-0.5,0.7c-0.3,0.2-0.5,0.4-0.6,0.5c-0.1,0.1-0.1,0.2,0,0.1c0.1,0,0.3-0.1,0.3,0.1
		c0,0.2-0.6,0.6-0.9,0.8c-0.2,0.2-0.4,0.3-0.5,0.4c-0.1,0.1-0.1,0.2,0,0.2c0.1-0.1,0.2,0,0.2,0.1c0,0.1-0.5,0.4-0.8,0.6
		c-0.3,0.2-0.7,0.5-0.9,0.4c-0.1-0.1,0.1-0.4,0.3-0.7c0.2-0.2,0.3-0.7,0.4-0.9c0.1-0.3,0.2-0.7,0.3-0.7c0.2,0,0.1,0.3,0.1,0.4
		c0,0.1,0.1,0.1,0.1,0c0.1-0.1,0.2-0.8,0.3-1c0.1-0.2,0.1-0.4,0.2-0.4c0.1,0,0.2,0.1,0.2,0.2c0,0.1,0.1,0,0.1-0.1
		c0-0.1,0.3-0.8,0.4-1.1c0.1-0.2,0.2-0.7,0.3-0.6c0.1,0,0.2,0.2,0.2,0.4c0,0.1,0,0.1,0.1,0c0.1-0.1,0.4-0.5,0.5-0.6
		C45.2,23.8,45.5,23.5,45.6,23.6z M64.1,25.3c0.2,0.3,0.4,0.6,0.5,0.7c0.1,0.1,0.1,0.1,0.1,0c0-0.1,0.1-0.3,0.2-0.3
		c0.1,0,0.2,0.4,0.3,0.6c0.1,0.2,0.2,0.9,0.2,1c0,0.1,0.1,0.2,0.1,0.1c0-0.1,0.1-0.2,0.3-0.2c0.1,0,0.1,0.2,0.2,0.4
		c0,0.2,0.1,0.8,0.2,0.9c0,0.1,0.1,0.1,0.1,0c0-0.1,0-0.4,0.2-0.4c0.2,0,0.2,0.5,0.3,0.7c0,0.2,0.1,0.7,0.3,0.9
		c0.2,0.3,0.2,0.6,0.1,0.7c-0.1,0.1-0.5-0.4-0.7-0.6c-0.2-0.2-0.7-0.6-0.7-0.6c0-0.1,0.1-0.1,0.2-0.1c0.1,0.1,0.1,0,0-0.1
		c-0.1-0.1-0.2-0.3-0.5-0.5c-0.2-0.2-0.8-0.7-0.8-0.8c0-0.1,0.2-0.1,0.3-0.1c0.1,0.1,0.1,0,0.1-0.1c0-0.1-0.3-0.3-0.5-0.6
		c-0.2-0.2-0.5-0.6-0.4-0.7c0-0.1,0.2-0.1,0.2-0.1c0,0,0-0.1-0.2-0.3c-0.2-0.3-0.7-1.1-0.6-1.1C63.7,24.7,64,25.2,64.1,25.3z
		 M46.2,11.1c0,0,0.3,0,0.9-0.2c0.6-0.2,1.2-0.5,1.4-0.4c0.2,0.1,0.1,0.2,0,0.3c-0.1,0.1,0,0.1,0.1,0.1c0.1,0,0.3,0,0.4,0.1
		c0.2,0,0.4,0.1,0.7,0.2c0.2,0,0.4,0.1,0.3,0.2c0,0.1-0.2,0.1-0.3,0.1c-0.1,0-0.8-0.1-0.9-0.1c-0.1,0-0.2,0.1-0.1,0.2
		c0.1,0.1-0.1,0.2-0.2,0.1c-0.2,0-0.7-0.3-0.8-0.3c-0.2,0-0.1,0.1,0,0.1c0,0,0.2,0.1,0.1,0.3c-0.1,0.1-0.7-0.1-0.9-0.2
		c-0.2-0.1-0.4-0.1-0.6-0.2C46.2,11.2,46.1,11.1,46.2,11.1z M63.3,11.4c-0.1,0.1-0.3,0.1-0.6,0.2c-0.2,0.1-0.8,0.3-0.9,0.2
		c-0.1-0.1,0.1-0.2,0.1-0.2c0,0,0.1-0.1,0-0.1c-0.2,0-0.7,0.2-0.8,0.3c-0.2,0.1-0.3,0-0.2-0.1c0,0,0-0.2-0.1-0.2
		c-0.1,0-0.8,0.1-0.9,0.1c-0.1,0-0.3,0-0.3-0.1c0-0.1,0.2-0.1,0.3-0.2c0.3-0.1,0.5-0.1,0.7-0.1c0.2,0,0.3,0,0.4,0
		c0.1,0,0.2,0,0.1-0.1c-0.1-0.1-0.3-0.3,0-0.3c0.2,0,0.7,0,1.2,0.3c0.3,0.2,0-0.2,0.2-0.1c0.2,0,0.4,0.3,0.6,0.3
		c0.1,0,0.3,0.1,0.3,0.1C63.4,11.3,63.5,11.4,63.3,11.4z M38.4,14.4c-0.1-0.1-0.1-0.3-0.2-0.4c-0.1-0.2-0.4-0.6-0.3-0.7
		c0-0.1,0.1,0,0.2,0c0,0,0.1,0.1,0,0c0-0.1-0.3-0.5-0.4-0.6c-0.1-0.1,0-0.2,0.1-0.2c0,0,0.1,0,0.1-0.1c0-0.1-0.2-0.7-0.2-0.8
		c0-0.1-0.1-0.2,0-0.2c0,0,0.1,0.1,0.2,0.3c0.1,0.3,0.1,0.4,0.2,0.6c0,0.1,0.1,0.2,0.1,0.3c0,0.1,0.1,0.2,0.1,0
		c0-0.1,0.1-0.2,0.2-0.1c0.1,0.2,0.1,0.6,0,1c0,0.3,0.1,0,0.2,0.1c0.1,0.1-0.1,0.5-0.1,0.9C38.5,14.5,38.4,14.5,38.4,14.4z
		 M68.3,35.1c0,0,0-0.2,0.3-0.1c0.3,0,0.5,0,0.9-0.2c0.3-0.1,0.7-0.3,0.8-0.2c0.1,0.1,0,0.2,0,0.3c0,0-0.1,0.1,0,0.1
		c0.1,0,0.6-0.2,0.7-0.2c0.1,0,0.5-0.2,0.6-0.1c0.1,0.1,0.1,0.2,0,0.3c0,0,0,0.1,0.1,0.1c0.1,0,0.7-0.1,0.8-0.1
		c0.1,0,0.4-0.1,0.5,0.1c0.1,0.1,0,0.2-0.1,0.3c-0.1,0-0.1,0.1,0,0.2c0.1,0.1,0.3,0.1,0.5,0.2c0.2,0.1,0.8,0.2,0.8,0.3
		c0,0.2-0.2,0.1-0.3,0.1c-0.1,0-0.4-0.1-0.5-0.1c-0.1,0-0.6-0.1-0.6-0.1c-0.1,0-0.1,0-0.1,0.1c0,0.1,0,0.2,0,0.2
		c-0.1,0-0.2,0-0.4-0.1c-0.2-0.1-0.5-0.3-0.6-0.4c-0.1-0.1-0.2,0-0.1,0c0,0.1,0.1,0.2,0.1,0.3c-0.1,0.1-0.4,0-0.5,0
		c-0.2,0-0.6-0.2-0.6-0.2c-0.1,0-0.1,0-0.1,0.1c0,0,0,0.2,0,0.2c-0.1,0.1-0.6-0.1-0.7-0.2c-0.2-0.1-0.6-0.3-0.8-0.3
		C68.5,35.3,68.3,35.2,68.3,35.1z M69.4,17.7c-0.1,0-0.4,0-0.5,0c-0.1,0-0.5,0-0.5-0.1c0-0.1,0-0.1,0-0.1c0,0,0,0,0-0.1
		c-0.1,0-0.3,0-0.4,0c-0.1,0-0.3-0.1-0.3-0.1c0-0.1,0.1-0.1,0.1-0.1c0,0,0-0.1-0.1-0.1c-0.1,0-0.4,0-0.5,0c-0.1,0-0.2,0-0.3-0.1
		c0,0,0-0.1,0-0.1c0,0,0-0.1,0-0.1c0,0-0.3-0.2-0.4-0.2c-0.1,0-0.2-0.1-0.3-0.1c-0.1,0-0.2-0.1-0.2-0.2c0-0.1,0.4,0,0.6,0.1
		c0.2,0.1,0.3,0.1,0.4,0.1c0.1,0,0.1-0.1,0-0.1c0,0-0.1-0.1,0-0.2c0.1-0.1,0.2,0.1,0.3,0.1c0,0,0.3,0.3,0.4,0.3c0.1,0,0.1,0,0.1,0
		c0,0,0-0.1,0.1-0.1c0.1,0,0.2,0.2,0.3,0.3c0.1,0.1,0.3,0.3,0.3,0.3c0.1,0,0,0,0,0c0,0-0.1-0.1,0.1-0.2c0.1,0,0.3,0.1,0.4,0.3
		c0.2,0.2,0.2,0.3,0.4,0.4c0.2,0.1,0.1,0.2,0.1,0.2C69.6,17.7,69.5,17.7,69.4,17.7z M40.1,16.9c0.1-0.1,0.3-0.3,0.4-0.3
		c0.1-0.1,0.3-0.3,0.4-0.3c0.1,0,0.1,0.1,0.1,0.1c0,0,0,0,0.1,0c0,0,0.3-0.2,0.4-0.3c0.1-0.1,0.3-0.2,0.3-0.1c0.1,0,0,0.1,0,0.2
		c0,0.1,0,0.1,0.1,0c0.1-0.1,0.2-0.3,0.3-0.3c0.1-0.1,0.2-0.1,0.2-0.1c0.1,0,0.1,0.1,0.1,0.1c0,0,0,0.1,0.1,0c0,0,0.3-0.1,0.4-0.1
		c0.1,0,0.6-0.1,0.6,0c0,0.1-0.3,0.2-0.5,0.3c-0.2,0.1-0.4,0.1-0.4,0.1c0,0,0,0.1,0,0.1c0,0,0.1,0,0.1,0.1c0,0.1-0.2,0.1-0.3,0.1
		c-0.1,0-0.4,0.1-0.5,0.1c-0.1,0-0.1,0,0,0c0,0,0.1,0.1,0,0.2c-0.1,0.1-0.3,0-0.4,0c-0.1,0-0.4,0-0.4,0c-0.1,0,0,0,0,0
		c0,0,0.1,0,0.1,0.1c-0.1,0.1-0.3,0.1-0.5,0.1c-0.2,0-0.3,0-0.6,0.1c-0.2,0.1-0.2,0-0.2,0C39.9,17,40,16.9,40.1,16.9z M39,33.9
		c0,0,0,0.1-0.3,0.2c-0.3,0.1-0.5,0.2-0.8,0.3c-0.3,0.2-0.5,0.3-0.7,0.2c-0.1-0.1,0-0.2,0-0.2c0,0,0.1-0.1,0-0.1
		c-0.1,0-0.5,0.2-0.6,0.3c-0.1,0-0.4,0.3-0.5,0.2c-0.1-0.1-0.1-0.2-0.1-0.2c0,0,0,0-0.1,0c-0.1,0-0.6,0.1-0.6,0.2
		c-0.1,0-0.3,0.1-0.4,0c-0.1-0.1,0-0.2,0.1-0.2c0,0,0.1-0.1,0-0.1c-0.1,0-0.3,0-0.5,0c-0.3,0-0.8,0-0.8-0.1c0-0.1,0.1-0.1,0.3-0.1
		c0.1,0,0.4,0,0.5,0c0.1,0,0.6-0.1,0.6,0c0.1,0,0.1,0,0-0.1c0-0.1-0.1-0.1,0-0.2c0.1,0,0.2,0,0.4,0c0.1,0,0.5,0.2,0.6,0.3
		c0.1,0,0.2,0,0.1-0.1c0-0.1-0.1-0.1-0.1-0.2c0.1-0.1,0.3-0.1,0.5-0.1c0.1,0,0.5,0.1,0.6,0.1c0.1,0,0.1,0,0.1-0.1c0,0-0.1-0.1,0-0.2
		c0.1-0.1,0.6,0,0.7,0.1c0.2,0,0.6,0.1,0.7,0.1C38.8,33.7,39,33.8,39,33.9z M47.7,35.9c0.1,0,0.2,0.2,0.2,0.3c0,0.2,0.1,0.2,0.1,0.3
		c0,0.1,0.1,0.2,0.1,0c0-0.1,0.1-0.1,0.2,0c0.1,0.1,0,0.3,0,0.4c0,0.2-0.1,0.4-0.1,0.6c0,0.2,0,0.4-0.1,0.4c-0.1,0-0.1-0.1-0.2-0.3
		c-0.1-0.2-0.2-0.5-0.3-0.6c-0.1-0.1-0.2-0.4-0.1-0.4c0.1,0,0.1,0,0.2,0.1c0,0.1,0.1,0,0.1-0.2C47.7,36.3,47.6,35.9,47.7,35.9z
		 M60.5,37c0.1,0,0,0.2-0.1,0.3c-0.1,0.1-0.1,0.2-0.1,0.3c0,0.1-0.1,0.2,0,0.2c0,0,0.2-0.1,0.2,0c0,0.1-0.1,0.2-0.2,0.3
		c-0.1,0.1-0.3,0.3-0.3,0.4c-0.1,0.1-0.2,0.2-0.3,0.2c-0.1,0-0.1-0.2,0-0.4c0-0.2,0.2-0.8,0.3-0.8c0.1,0,0,0.2,0,0.2s0,0,0.1-0.2
		C60.3,37.4,60.4,37,60.5,37z M62.8,32.9c0,0,0.2,0,0.1,0.4c-0.1,0.4-0.1,0.6-0.1,0.7c0,0.1,0,0.2,0.1,0.1c0.1-0.2,0.2-0.1,0.3,0
		c0,0.1-0.2,0.6-0.3,0.8c-0.1,0.2,0,0.1,0,0.1c0.1,0,0.2-0.1,0.2,0c0.1,0.1,0.1,0.4-0.1,0.7c-0.2,0.3-0.5,0.6-0.6,0.8
		c-0.1,0.2-0.4,0.6-0.6,0.6c-0.2,0-0.2-0.5-0.3-0.7c0-0.2-0.3-0.7-0.1-0.8c0.1-0.1,0.2,0,0.2,0.1c0,0.1,0.1-0.1,0.1-0.2
		c0-0.1-0.2-0.6,0-0.7c0.2-0.1,0.2,0.1,0.3,0.2c0,0.1,0.1,0,0.1,0c0-0.1,0-0.4-0.1-0.6c0-0.1-0.1-0.6,0-0.6c0.2-0.1,0.2,0.2,0.3,0.2
		c0,0.1,0.1,0.1,0.1-0.2c0-0.1,0.1-0.6,0.2-0.8C62.6,33.2,62.6,32.9,62.8,32.9z M45.8,32.8c0,0.1,0.1,0.6,0.1,0.7
		c0,0.3,0.1,0.2,0.1,0.2c0-0.1,0.1-0.3,0.3-0.2c0.1,0,0,0.5-0.1,0.6c0,0.1-0.1,0.4-0.1,0.5c0,0.1,0.1,0.1,0.1,0
		c0-0.1,0.1-0.3,0.3-0.2c0.2,0.1,0,0.5,0,0.6c0,0.1,0,0.2,0,0.2c0-0.1,0.1-0.2,0.2-0.1c0.1,0.1-0.1,0.5-0.2,0.7
		c-0.1,0.2-0.1,0.6-0.3,0.6c-0.2,0-0.4-0.5-0.5-0.6c-0.1-0.2-0.3-0.5-0.5-0.8c-0.2-0.3-0.2-0.6-0.1-0.6c0.1,0,0.2,0,0.2,0
		c0.1,0,0.1,0.1,0-0.1c-0.1-0.2-0.2-0.6-0.2-0.7c0.1-0.1,0.2-0.1,0.2,0c0,0,0.1,0,0.1-0.1c0-0.1,0-0.3,0-0.7c0-0.4,0.1-0.4,0.1-0.4
		C45.8,32.4,45.8,32.7,45.8,32.8z M55.1,42.6c0.2-0.1,0.3,0.1,0.5,0.3c0.3,0.4,0.8,0.7,1,1.3c0.3,0.7,0.1,1.4,0.3,1.9
		c0.2,0.9,1,1.8,1.1,2c0.1,0.1-1,0.8-1.2,0.6c-0.3-0.4-0.6-0.7-0.9-1.4c-0.2-0.6-0.1-1.4-0.2-2.3c-0.1-0.5-0.4-0.8-0.7-1.6
		C54.9,42.9,54.9,42.6,55.1,42.6z M49.3,34.9c0,0,0.1-1.7,2-1.5c1.1,0.1,1.7,0,2.5,0c0.9-0.1,1.7-0.4,2.7-0.4c1,0,1.8,0.1,2.3,0.5
		c0.4,0.3,0.6,0.9,0.5,1.1c0,0-0.5-0.5-1.5-0.7c-1.1-0.1-2.7,0.4-3.5,0.5c-0.8,0-2.1-0.3-3-0.2C50.3,34.3,49.8,34.5,49.3,34.9z"/>
	<path class="st0" d="M52.3,34.3c0,0-0.3-0.6-0.1-0.9c0.3-0.3,0.5,0.9,0.8,1C53.3,34.4,53,34.5,52.3,34.3z"/>
</g>
</svg>
