<?xml version="1.0" encoding="utf-8"?>
<!-- Generator: Adobe Illustrator 15.1.0, SVG Export Plug-In . SVG Version: 6.00 Build 0)  -->
<!DOCTYPE svg PUBLIC "-//W3C//DTD SVG 1.1//EN" "http://www.w3.org/Graphics/SVG/1.1/DTD/svg11.dtd">
<svg version="1.1" id="Layer_1" xmlns="http://www.w3.org/2000/svg" xmlns:xlink="http://www.w3.org/1999/xlink" x="0px" y="0px"
	 width="363.332px" height="45px" viewBox="0 0 363.332 45" enable-background="new 0 0 363.332 45" xml:space="preserve">
<g enable-background="new    ">
	<path fill="#990000" d="M27.396,33.507c-1.368,0-3.382-0.228-6.117-0.228c-3.762,0-7.903,0.114-10.639,0.304
		c-0.076,0,0-0.228,0.038-0.228c3.952-0.418,4.027-0.229,4.027-6.27V15.688c0-6.003-0.19-5.965-3.686-6.345
		c-0.038,0-0.114-0.152-0.038-0.152c1.596,0.19,3.343,0.267,5.471,0.267c1.596,0,3.458-0.114,4.597-0.267
		c0.076,0,0.076,0.152,0.038,0.152c-3.647,0.304-3.686,0.57-3.686,6.345v11.398c0,4.939,0.418,5.396,2.432,5.396h2.09
		c6.003,0,6.117-0.456,6.611-2.697c0,0,0.19-0.038,0.19,0c-0.114,0.987-0.304,2.317-0.532,3.115
		C28.041,33.432,27.851,33.507,27.396,33.507z"/>
	<path fill="#990000" d="M30.666,33.507c-0.038,0,0-0.189,0.038-0.189c2.698-0.304,3.001-0.418,3.001-3.495V23.4
		c0-2.659-0.532-3.153-2.622-2.432c-0.038,0,0-0.038,0.038-0.075c1.52-0.874,3.762-2.166,4.978-3.344
		c0.038-0.038,0.114,0.076,0.152,0.114c-0.19,0.798-0.266,4.217-0.266,5.585v6.573c0,3.077,0.266,3.191,2.963,3.495
		c0.038,0,0.038,0.189,0,0.189c-1.063-0.151-2.622-0.228-4.065-0.228C33.44,33.279,31.73,33.355,30.666,33.507z M33.933,10.977
		c0-0.798,0.608-1.558,1.444-1.558c0.798,0,1.444,0.722,1.444,1.481c0,0.798-0.646,1.52-1.52,1.52
		C34.541,12.42,33.933,11.736,33.933,10.977z"/>
	<path fill="#990000" d="M43.319,30.354l0.152-10.601c-0.988,0-2.166,0-2.545,0.038c-0.076,0-0.076-0.151-0.038-0.189
		c1.671-1.368,3.381-2.926,5.091-4.712c0.038,0.038,0.076,0.076,0.076,0.114c-0.076,0.76-0.266,2.773-0.304,3.647h2.166
		c1.596,0,2.85-0.038,3.343-0.189c0.266-0.038,0.038,1.481-0.342,1.443c-0.418-0.038-1.102-0.152-2.507-0.152h-2.66l-0.152,9.727
		c-0.038,2.432,1.102,3.154,2.85,3.154c0.798,0,1.824-0.152,2.736-0.38c0.038,0.037,0.038,0.075,0,0.113
		c-1.52,0.988-3.609,1.482-4.673,1.482C44.231,33.85,43.281,32.747,43.319,30.354z"/>
	<path fill="#990000" d="M55.365,30.354l0.152-10.601c-0.988,0-2.166,0-2.546,0.038c-0.076,0-0.076-0.151-0.038-0.189
		c1.671-1.368,3.381-2.926,5.091-4.712c0.038,0.038,0.076,0.076,0.076,0.114c-0.076,0.76-0.266,2.773-0.304,3.647h2.166
		c1.596,0,2.85-0.038,3.344-0.189c0.266-0.038,0.038,1.481-0.342,1.443c-0.418-0.038-1.102-0.152-2.507-0.152h-2.66l-0.152,9.727
		c-0.038,2.432,1.102,3.154,2.85,3.154c0.798,0,1.824-0.152,2.736-0.38c0.038,0.037,0.038,0.075,0,0.113
		c-1.52,0.988-3.609,1.482-4.673,1.482C56.276,33.85,55.326,32.747,55.365,30.354z"/>
	<path fill="#990000" d="M67.448,23.856c-0.076,0.532-0.114,0.988-0.114,1.444c0,5.243,2.963,7.295,5.775,7.295
		c1.786,0,3.571-0.685,4.901-1.672c0.038-0.038,0.038,0.151,0,0.189c-1.292,1.521-3.799,2.736-6.155,2.736
		c-4.142,0-6.953-3.078-6.953-7.409c0-4.483,3.952-8.473,7.789-8.473c3.647,0,5.471,2.697,5.471,4.863
		c0,0.266-0.038,0.531-0.114,0.798L67.448,23.856z M67.486,23.477l8.283-0.228c-0.076-2.128-1.52-4.636-4.065-4.636
		C69.689,18.613,67.98,20.361,67.486,23.477z"/>
	<path fill="#990000" d="M89.031,19.905c-0.912,0-1.709,0.456-3.04,2.128v7.789c0,2.773,0.418,3.343,3.952,3.495
		c0,0,0.038,0.189,0,0.189c-0.798-0.113-3.875-0.228-4.939-0.228c-1.482,0-3.268,0.076-4.332,0.228c-0.038,0,0-0.189,0.038-0.189
		c2.698-0.304,3.001-0.418,3.001-3.495V23.4c0-2.659-0.532-3.153-2.622-2.432c0,0,0-0.038,0.038-0.075
		c1.52-0.874,3.344-2.242,4.56-3.382c0.038-0.038,0.114,0.114,0.152,0.152c0.076,0.646,0.152,2.279,0.152,3.989
		c2.432-2.964,4.065-4.104,4.978-4.104c0.912,0,1.748,1.292,1.748,1.672c0,0.646-0.798,1.823-1.102,1.823
		C91.044,21.045,90.133,19.905,89.031,19.905z"/>
	<path fill="#990000" d="M102.938,31.342c-1.71,1.634-3.686,2.508-5.471,2.508c-1.976,0-3.154-1.292-3.154-3.002
		c0-2.014,2.28-3.724,8.701-4.104c0.076-1.52,0.076-3.609,0.076-4.369c0-1.178-0.342-2.279-1.102-2.697
		c-0.532-0.305-1.253-0.456-2.279-0.456c-1.292,0-2.432,0.722-2.432,1.329c0,0.494,0.19,0.685,0.19,1.178
		c0,0.685-1.14,1.292-2.204,1.292c-0.418,0-0.646-0.228-0.646-0.531c0.076-1.368,4.141-4.521,7.485-4.521
		c1.824,0,3.229,1.367,3.268,3.761c0.038,1.672-0.228,7.22-0.19,9.31c0.038,1.558,0.95,2.317,3.495,1.253
		c0.038,0,0.152,0.038,0.038,0.114c-1.216,0.95-2.507,1.558-3.571,1.558C103.888,33.963,102.976,33.127,102.938,31.342z
		 M99.291,32.672c1.33,0,2.242-0.57,3.533-1.597c0.038-0.684,0.114-2.697,0.19-4.027c-5.395,0.38-6.269,1.9-6.269,3.458
		C96.745,32.025,97.809,32.672,99.291,32.672z"/>
	<path fill="#990000" d="M112.021,30.354l0.152-10.601c-0.988,0-2.166,0-2.546,0.038c-0.076,0-0.076-0.151-0.038-0.189
		c1.671-1.368,3.381-2.926,5.091-4.712c0.038,0.038,0.076,0.076,0.076,0.114c-0.076,0.76-0.266,2.773-0.304,3.647h2.166
		c1.596,0,2.85-0.038,3.344-0.189c0.266-0.038,0.038,1.481-0.342,1.443c-0.418-0.038-1.102-0.152-2.507-0.152h-2.66l-0.152,9.727
		c-0.038,2.432,1.102,3.154,2.85,3.154c0.798,0,1.824-0.152,2.736-0.38c0.038,0.037,0.038,0.075,0,0.113
		c-1.52,0.988-3.609,1.482-4.673,1.482C112.932,33.85,111.983,32.747,112.021,30.354z"/>
	<path fill="#990000" d="M133.26,30.315c-1.861,1.9-4.293,3.534-6.193,3.534c-2.28,0-3.952-1.444-3.914-4.483l0.114-7.22
		c0.038-2.127-0.152-2.432-2.546-2.507c0,0-0.114-0.076-0.076-0.076c1.558-0.304,3.343-0.95,4.597-1.672
		c0.076,0.038,0.19,0.114,0.19,0.19c0.076,0.684,0.114,2.279,0.114,3.646l-0.076,5.966c-0.038,3.761,0.722,4.825,3.078,4.825
		c1.406,0,2.773-0.798,4.635-2.432l0.152-8.131c0.038-2.128-0.038-2.432-2.508-2.584c-0.038,0-0.152-0.076-0.114-0.076
		c1.558-0.266,3.381-0.873,4.635-1.558c0.038,0,0.152,0.152,0.152,0.229c0.076,0.684,0.114,2.394,0.114,3.761l-0.076,8.663
		c0,2.014,0.722,2.28,3.191,1.596c0.038,0.038,0.038,0.152,0,0.152c-1.253,0.684-3.761,1.785-4.597,1.785
		C133.527,33.925,133.26,32.596,133.26,30.315z"/>
	<path fill="#990000" d="M148.005,19.905c-0.912,0-1.709,0.456-3.04,2.128v7.789c0,2.773,0.418,3.343,3.952,3.495
		c0,0,0.038,0.189,0,0.189c-0.798-0.113-3.875-0.228-4.939-0.228c-1.482,0-3.268,0.076-4.332,0.228c-0.038,0,0-0.189,0.038-0.189
		c2.698-0.304,3.001-0.418,3.001-3.495V23.4c0-2.659-0.532-3.153-2.622-2.432c0,0,0-0.038,0.038-0.075
		c1.52-0.874,3.344-2.242,4.56-3.382c0.038-0.038,0.114,0.114,0.152,0.152c0.076,0.646,0.152,2.279,0.152,3.989
		c2.432-2.964,4.065-4.104,4.978-4.104c0.912,0,1.748,1.292,1.748,1.672c0,0.646-0.798,1.823-1.102,1.823
		C150.019,21.045,149.107,19.905,148.005,19.905z"/>
	<path fill="#990000" d="M154.883,33.279c-0.152-0.038-0.152-0.152-0.114-0.304c0.152-0.418,0.266-1.748,0.266-4.56V11.509
		c0-2.66-0.57-3.116-2.66-2.432c0,0,0.038-0.114,0.076-0.114c1.52-0.836,3.762-2.052,4.978-3.191
		c0.038-0.038,0.114,0.076,0.152,0.114c-0.19,0.76-0.266,4.065-0.266,5.471v9.005c2.128-1.368,3.762-2.052,5.927-2.052
		c3.306,0,6.117,3.039,6.117,7.029c0,4.217-3.952,8.511-8.929,8.511C158.113,33.85,156.897,32.899,154.883,33.279z M157.315,20.817
		V31c1.064,1.291,2.964,1.709,4.75,1.709c3.04,0,4.787-2.089,4.787-6.345c0-4.521-2.355-6.725-5.585-6.725
		C159.861,19.64,158.341,20.209,157.315,20.817z"/>
	<path fill="#990000" d="M180.95,31.342c-1.71,1.634-3.686,2.508-5.471,2.508c-1.976,0-3.154-1.292-3.154-3.002
		c0-2.014,2.28-3.724,8.701-4.104c0.076-1.52,0.076-3.609,0.076-4.369c0-1.178-0.342-2.279-1.102-2.697
		c-0.532-0.305-1.253-0.456-2.279-0.456c-1.292,0-2.432,0.722-2.432,1.329c0,0.494,0.19,0.685,0.19,1.178
		c0,0.685-1.14,1.292-2.204,1.292c-0.418,0-0.646-0.228-0.646-0.531c0.076-1.368,4.141-4.521,7.485-4.521
		c1.824,0,3.229,1.367,3.268,3.761c0.038,1.672-0.228,7.22-0.19,9.31c0.038,1.558,0.95,2.317,3.496,1.253
		c0.037,0,0.152,0.038,0.037,0.114c-1.215,0.95-2.507,1.558-3.57,1.558C181.9,33.963,180.988,33.127,180.95,31.342z M177.302,32.672
		c1.33,0,2.242-0.57,3.533-1.597c0.038-0.684,0.114-2.697,0.19-4.027c-5.395,0.38-6.269,1.9-6.269,3.458
		C174.757,32.025,175.821,32.672,177.302,32.672z"/>
	<path fill="#990000" d="M198.164,33.507c-0.076,0,0-0.228,0.037-0.228c2.09-0.19,2.547-0.456,2.547-3.457v-5.699
		c0-3.458-0.646-4.901-2.926-4.901c-1.217,0-2.204,0.342-5.092,2.127v8.474c0,2.812,0.342,3.267,2.508,3.457
		c0.038,0,0.113,0.228,0.038,0.228c-0.798-0.113-2.47-0.228-3.534-0.228c-1.443,0-3.229,0.076-4.293,0.228c-0.076,0,0-0.228,0-0.228
		c2.736-0.266,3.039-0.38,3.039-3.457v-6.384c0-2.697-0.531-3.191-2.621-2.47c-0.038,0-0.038-0.113,0-0.113
		c1.559-0.836,3.306-2.166,4.56-3.306c0.038-0.038,0.114,0.114,0.114,0.151c0.076,0.646,0.151,2.242,0.228,3.344
		c3.268-2.317,5.015-3.077,6.726-3.077c2.583,0,3.495,1.672,3.495,4.483v7.371c0,2.85,0.151,3.267,2.964,3.457
		c0.037,0,0.076,0.228,0.037,0.228c-0.797-0.113-3.039-0.228-4.104-0.228C200.405,33.279,199.227,33.355,198.164,33.507z"/>
	<path fill="#990000" d="M206.487,33.507c-0.038,0,0-0.189,0-0.189c2.735-0.304,3.04-0.418,3.04-3.495V11.509
		c0-2.66-0.608-3.116-2.66-2.432c0,0,0-0.114,0.038-0.114c1.558-0.836,3.761-2.052,5.015-3.191c0.039-0.038,0.115,0.038,0.115,0.076
		c-0.19,0.722-0.267,4.104-0.267,5.509v18.466c0,2.812,0.342,3.267,2.508,3.457c0.038,0,0.114,0.228,0.038,0.228
		c-0.799-0.113-2.508-0.228-3.572-0.228C209.26,33.279,207.551,33.355,206.487,33.507z M220.241,33.279
		c-1.481,0-2.47,0.076-3.533,0.228c-0.076,0,0.038-0.151,0.114-0.228c1.596-0.228,2.203-0.57-0.076-3.002l-4.256-4.559l3.914-3.762
		c2.051-1.976,2.317-3.306-0.418-3.571c0,0-0.076-0.152-0.039-0.152c1.064,0.114,1.824,0.152,3.307,0.152
		c1.063,0,2.773-0.038,3.57-0.152c0.039,0,0.039,0.152,0,0.152c-1.823,0.151-3.533,1.596-5.433,3.381l-3.153,2.964l5.699,5.927
		c1.52,1.559,2.887,2.508,4.331,2.622c0.038,0,0.076,0.228,0,0.228C223.47,33.394,221.304,33.279,220.241,33.279z"/>
	<path fill="#990000" d="M227.463,23.856c-0.076,0.532-0.114,0.988-0.114,1.444c0,5.243,2.964,7.295,5.775,7.295
		c1.786,0,3.571-0.685,4.901-1.672c0.037-0.038,0.037,0.151,0,0.189c-1.292,1.521-3.8,2.736-6.155,2.736
		c-4.142,0-6.953-3.078-6.953-7.409c0-4.483,3.952-8.473,7.789-8.473c3.647,0,5.472,2.697,5.472,4.863
		c0,0.266-0.039,0.531-0.115,0.798L227.463,23.856z M227.5,23.477l8.283-0.228c-0.076-2.128-1.52-4.636-4.065-4.636
		C229.704,18.613,227.994,20.361,227.5,23.477z"/>
	<path fill="#990000" d="M251.4,33.507c-0.075,0,0-0.228,0.039-0.228c2.09-0.19,2.545-0.456,2.545-3.457v-5.699
		c0-3.458-0.646-4.901-2.926-4.901c-1.215,0-2.203,0.342-5.091,2.127v8.474c0,2.812,0.343,3.267,2.508,3.457
		c0.038,0,0.114,0.228,0.038,0.228c-0.798-0.113-2.47-0.228-3.533-0.228c-1.444,0-3.23,0.076-4.294,0.228c-0.075,0,0-0.228,0-0.228
		c2.735-0.266,3.04-0.38,3.04-3.457v-6.384c0-2.697-0.532-3.191-2.622-2.47c-0.038,0-0.038-0.113,0-0.113
		c1.558-0.836,3.306-2.166,4.56-3.306c0.038-0.038,0.113,0.114,0.113,0.151c0.076,0.646,0.152,2.242,0.229,3.344
		c3.268-2.317,5.016-3.077,6.725-3.077c2.584,0,3.496,1.672,3.496,4.483v7.371c0,2.85,0.152,3.267,2.963,3.457
		c0.039,0,0.076,0.228,0.039,0.228c-0.799-0.113-3.04-0.228-4.104-0.228C253.642,33.279,252.465,33.355,251.4,33.507z"/>
	<path fill="#990000" d="M261.131,32.747c-0.152-0.113-0.114-2.507-0.114-4.104c0-0.037,0.151,0,0.151,0.038
		c0.912,3.42,2.889,4.712,4.902,4.712c1.975,0,2.85-1.14,2.85-2.888c0-3.686-7.334-3.989-7.334-8.321
		c0-2.165,1.786-4.217,5.016-4.217c1.33,0,2.279,0.189,3.153,0.646c0.19,0.114,0.343,2.166,0.343,3.686c0,0.038-0.19,0-0.19,0
		c-0.685-2.355-2.432-3.951-4.104-3.951c-1.481,0-2.28,1.063-2.28,2.659c0,3.534,7.22,3.496,7.22,8.093
		c0,2.508-2.128,4.75-5.319,4.75C263.828,33.85,262.232,33.394,261.131,32.747z"/>
	<path fill="#990000" d="M281.992,32.747c-0.152-0.113-0.114-2.507-0.114-4.104c0-0.037,0.151,0,0.151,0.038
		c0.912,3.42,2.889,4.712,4.902,4.712c1.975,0,2.85-1.14,2.85-2.888c0-3.686-7.334-3.989-7.334-8.321
		c0-2.165,1.786-4.217,5.016-4.217c1.33,0,2.279,0.189,3.153,0.646c0.19,0.114,0.343,2.166,0.343,3.686c0,0.038-0.19,0-0.19,0
		c-0.685-2.355-2.432-3.951-4.104-3.951c-1.481,0-2.28,1.063-2.28,2.659c0,3.534,7.22,3.496,7.22,8.093
		c0,2.508-2.128,4.75-5.319,4.75C284.689,33.85,283.094,33.394,281.992,32.747z"/>
	<path fill="#990000" d="M293.468,33.507c-0.038,0,0-0.189,0-0.189c2.735-0.304,3.04-0.418,3.04-3.495V11.509
		c0-2.66-0.608-3.116-2.66-2.432c0,0,0-0.114,0.038-0.114c1.558-0.836,3.761-2.052,5.015-3.191c0.039-0.038,0.115,0.038,0.115,0.076
		c-0.19,0.722-0.267,4.104-0.267,5.509v18.466c0,2.812,0.342,3.267,2.508,3.457c0.038,0,0.114,0.228,0.038,0.228
		c-0.799-0.113-2.508-0.228-3.572-0.228C296.241,33.279,294.531,33.355,293.468,33.507z M307.221,33.279
		c-1.481,0-2.47,0.076-3.533,0.228c-0.076,0,0.038-0.151,0.114-0.228c1.596-0.228,2.203-0.57-0.076-3.002l-4.256-4.559l3.914-3.762
		c2.051-1.976,2.317-3.306-0.418-3.571c0,0-0.076-0.152-0.039-0.152c1.064,0.114,1.824,0.152,3.307,0.152
		c1.063,0,2.773-0.038,3.571-0.152c0.038,0,0.038,0.152,0,0.152c-1.824,0.151-3.534,1.596-5.434,3.381l-3.153,2.964l5.699,5.927
		c1.52,1.559,2.888,2.508,4.331,2.622c0.038,0,0.076,0.228,0,0.228C310.451,33.394,308.285,33.279,307.221,33.279z"/>
	<path fill="#990000" d="M311.897,26.175c0-4.218,3.039-8.207,8.055-8.207c4.673,0,7.675,3.686,7.675,7.675
		c0,4.217-3.078,8.207-8.093,8.207C314.86,33.85,311.897,30.164,311.897,26.175z M314.366,24.654c0,5.357,2.395,8.587,6.004,8.587
		c3.153,0,4.749-2.85,4.749-6.079c0-5.396-2.432-8.625-6.003-8.625C315.963,18.537,314.366,21.425,314.366,24.654z"/>
	<path fill="#990000" d="M329.416,33.507c-0.038,0,0-0.189,0.038-0.189c2.697-0.304,3.001-0.418,3.001-3.495V11.509
		c0-2.66-0.569-3.116-2.659-2.432c0,0,0.038-0.114,0.076-0.114c1.52-0.836,3.762-2.052,4.978-3.191
		c0.037-0.038,0.113,0.076,0.151,0.114c-0.189,0.76-0.266,4.065-0.266,5.471v18.466c0,3.077,0.266,3.191,2.964,3.495
		c0.037,0,0.037,0.189,0,0.189c-1.064-0.151-2.698-0.228-4.18-0.228C332.075,33.279,330.479,33.355,329.416,33.507z"/>
	<path fill="#990000" d="M348.376,31.342c-1.71,1.634-3.686,2.508-5.472,2.508c-1.976,0-3.153-1.292-3.153-3.002
		c0-2.014,2.28-3.724,8.701-4.104c0.075-1.52,0.075-3.609,0.075-4.369c0-1.178-0.342-2.279-1.102-2.697
		c-0.531-0.305-1.254-0.456-2.279-0.456c-1.292,0-2.432,0.722-2.432,1.329c0,0.494,0.189,0.685,0.189,1.178
		c0,0.685-1.14,1.292-2.203,1.292c-0.418,0-0.646-0.228-0.646-0.531c0.076-1.368,4.142-4.521,7.485-4.521
		c1.823,0,3.229,1.367,3.268,3.761c0.038,1.672-0.229,7.22-0.19,9.31c0.038,1.558,0.95,2.317,3.496,1.253
		c0.038,0,0.151,0.038,0.038,0.114c-1.216,0.95-2.508,1.558-3.572,1.558C349.326,33.963,348.414,33.127,348.376,31.342z
		 M344.728,32.672c1.33,0,2.241-0.57,3.533-1.597c0.038-0.684,0.114-2.697,0.19-4.027c-5.396,0.38-6.27,1.9-6.27,3.458
		C342.182,32.025,343.247,32.672,344.728,32.672z"/>
</g>
</svg>
