<?xml version="1.0" encoding="utf-8"?>
<!-- Generator: Adobe Illustrator 15.1.0, SVG Export Plug-In . SVG Version: 6.00 Build 0)  -->
<!DOCTYPE svg PUBLIC "-//W3C//DTD SVG 1.1//EN" "http://www.w3.org/Graphics/SVG/1.1/DTD/svg11.dtd">
<svg version="1.1" id="Layer_1" xmlns="http://www.w3.org/2000/svg" xmlns:xlink="http://www.w3.org/1999/xlink" x="0px" y="0px"
	 width="50.02px" height="22.045px" viewBox="0 0 50.02 22.045" enable-background="new 0 0 50.02 22.045" xml:space="preserve">
<g>
	<g>
		<defs>
			<rect id="SVGID_1_" width="54.914" height="29.465"/>
		</defs>
		<clipPath id="SVGID_2_">
			<use xlink:href="#SVGID_1_"  overflow="visible"/>
		</clipPath>
		<g clip-path="url(#SVGID_2_)">
			<g enable-background="new    ">
				<path d="M10.195,1.98C10.11,0.813,8.953,0.62,8.407,0.62c-1.371,0-1.425,1.104-1.425,1.307c0,0.911,0.75,1.189,1.607,1.521
					c0.835,0.321,2.014,0.771,2.014,2.067c0,0.964-0.761,1.778-2.324,1.778c-0.129,0-0.739,0-1.532-0.215
					C6.65,7.057,6.607,7.046,6.575,7.046c-0.14,0-0.118,0.118-0.107,0.183L6.253,7.218c0.011-0.589-0.15-1.285-0.289-1.746
					C6.04,5.451,6.061,5.44,6.136,5.429c0.204,0.643,0.278,0.89,0.686,1.114c0.3,0.16,0.964,0.461,1.746,0.461
					c0.214,0,1.339,0,1.339-1.189c0-1.039-0.761-1.328-1.692-1.682C7.143,3.737,6.329,3.297,6.329,2.248
					c0-0.985,0.729-1.842,2.239-1.842c0.193,0,0.546,0,1.082,0.118c0.214,0.042,0.235,0.042,0.268,0.042
					c0.139,0,0.247-0.063,0.354-0.128c0.032,0,0.075,0.011,0.107,0.021c-0.032,0.225-0.085,0.557-0.075,0.824
					c0.011,0.183,0.053,0.579,0.053,0.686L10.195,1.98z"/>
				<path d="M11.909,5.054c0.032,0.61,0.075,0.911,0.375,1.307c0.407,0.525,0.825,0.525,0.975,0.525
					c0.278,0,0.632-0.075,1.092-0.407l0.097,0.129c-0.3,0.214-0.911,0.653-1.618,0.653c-1.071,0-1.585-0.975-1.585-1.864
					c0-1.671,1.36-2.185,1.639-2.185c0.386,0,1.039,0.139,1.393,0.953c0.032,0.075,0.064,0.128,0.236,0.128l0.01,0.193L11.909,5.054
					z M12.605,4.701c0.042-0.021,0.557-0.139,0.686-0.16c0.375-0.086,0.417-0.097,0.417-0.172c0-0.117-0.332-0.824-1.028-0.824
					c-0.6,0-0.729,0.899-0.76,1.307L12.605,4.701z"/>
				<path d="M16.364,4.754c-0.011,0.504,0,1.768,0.075,2.003c0.075,0.226,0.686,0.289,0.792,0.3V7.24
					c-0.15,0-0.985-0.054-1.382-0.054c-0.139,0-0.675,0.011-0.975,0.043V7.068c0.536-0.096,0.707-0.289,0.761-0.749
					c0.053-0.343,0.139-2.357,0.139-3.771c0-0.547,0-1.382-0.139-1.575c-0.064-0.097-0.182-0.128-0.354-0.128
					c-0.107,0-0.161,0.011-0.236,0.021v-0.16c0.536-0.225,1.028-0.439,1.403-0.707h0.161c-0.15,0.557-0.193,1.628-0.204,2.238
					L16.364,4.754z"/>
				<path d="M20.873,5.033c0-0.824-0.235-1.317-0.814-1.317c-0.45,0-1.028,0.332-1.21,0.429c-0.011,0.214-0.011,0.975-0.011,1.05
					v0.535c0,0.793,0,0.922,0.021,1.018c0.021,0.097,0.075,0.215,0.718,0.311V7.24c-0.129,0-0.771-0.043-0.911-0.043l-1.21,0.021
					l0.011-0.161c0.557-0.128,0.729-0.203,0.729-1.734c0-1.425-0.204-1.436-0.739-1.457V3.694c0.407-0.096,0.771-0.257,1.146-0.481
					c0.064-0.043,0.086-0.043,0.107-0.043c0.171,0,0.139,0.632,0.128,0.75c0.268-0.15,1.146-0.664,1.682-0.664
					c0.29,0,0.75,0.128,0.9,0.653c0.643-0.343,1.189-0.525,1.671-0.525c1.061,0,1.061,0.793,1.061,1.832v1.146
					c0,0.547,0.021,0.568,0.204,0.59c0.085,0.011,0.482,0.106,0.578,0.117l-0.075,0.14h-1.982l-0.032-0.14
					c0.557-0.139,0.664-0.16,0.664-1.745c0-0.911-0.171-1.511-0.954-1.511c-0.364,0-0.76,0.14-1.092,0.289
					c0.053,0.364,0.053,2.186,0.053,2.593c0,0.268,0.097,0.278,0.643,0.353v0.161h-0.654c-0.192,0-1.125,0.043-1.339,0.043
					l-0.032-0.161c0.654-0.128,0.739-0.246,0.739-1.553V5.033z"/>
				<path d="M25.531,4.401c-0.021-0.086-0.043-0.171-0.043-0.246c0-0.589,1.371-1.007,1.639-1.007c0.214,0,0.557,0.257,0.686,0.375
					c0.139,0.139,0.322,0.332,0.322,1.093c0,0.235-0.012,0.46-0.021,0.696l-0.021,0.396c-0.021,0.279-0.021,0.321-0.021,0.45
					c0,0.075,0,0.707,0.289,0.707c0.214,0,0.449-0.107,0.547-0.15v0.215L28.135,7.24c-0.097,0.043-0.204,0.075-0.257,0.075
					c-0.171,0-0.354-0.279-0.429-0.536c-0.236,0.129-0.942,0.536-1.489,0.536c-0.643,0-0.643-0.568-0.643-0.739
					c0-0.515,0.118-0.675,0.364-0.804c0.622-0.311,1.446-0.418,1.757-0.46l0.021-0.644c0.021-0.514-0.043-0.653-0.204-0.824
					c-0.204-0.193-0.46-0.311-0.643-0.311c-0.171,0-0.493,0.106-0.493,0.354c0,0.064,0.021,0.139,0.053,0.225L25.531,4.401z
					 M26.399,6.961c0.257,0,0.664-0.204,1.018-0.375c-0.021-0.246,0.021-0.804,0.032-0.985c-0.953-0.064-1.532,0.3-1.532,0.707
					C25.917,6.576,26.067,6.961,26.399,6.961z"/>
			</g>
		</g>
	</g>
	<g>
		<defs>
			<rect id="SVGID_3_" width="54.914" height="29.465"/>
		</defs>
		<clipPath id="SVGID_4_">
			<use xlink:href="#SVGID_3_"  overflow="visible"/>
		</clipPath>
		<g clip-path="url(#SVGID_4_)">
			<g enable-background="new    ">
				<path fill="#901A1D" d="M1.779,9.214c0.016-2.865,0.016-3.07-1.039-3.102V5.845c1.449,0.016,1.606,0.031,1.764,0.031
					c0.677,0,1.291,0,1.701-0.031L4.188,6.144C3.701,6.191,3.197,6.207,3.023,6.617c-0.11,0.268-0.126,1.307-0.157,2.582
					c-0.032,1.26-0.063,2.882-0.063,4.078c0,1.213,0.047,1.654,0.205,1.812c0.126,0.11,0.205,0.188,1.732,0.188
					c1.654,0,2.583-0.361,2.929-0.551c0.173-0.11,0.504-0.362,0.677-1.023l0.252,0.031c-0.047,0.331-0.236,1.244-0.583,2.095
					C7.48,15.765,7.212,15.75,6.96,15.75s-0.708-0.016-0.913-0.016H0.646L0.63,15.498c1.086-0.221,1.118-0.347,1.134-2.897
					L1.779,9.214z"/>
				<path fill="#901A1D" d="M9.812,11.608c-0.032-0.126-0.063-0.252-0.063-0.362c0-0.865,2.016-1.479,2.409-1.479
					c0.315,0,0.819,0.378,1.008,0.551c0.205,0.205,0.473,0.488,0.473,1.606c0,0.346-0.016,0.677-0.032,1.023l-0.031,0.582
					c-0.032,0.41-0.032,0.473-0.032,0.662c0,0.11,0,1.039,0.425,1.039c0.315,0,0.662-0.157,0.803-0.221v0.315l-1.134,0.456
					c-0.142,0.063-0.299,0.11-0.378,0.11c-0.252,0-0.52-0.409-0.63-0.787c-0.347,0.188-1.386,0.787-2.189,0.787
					c-0.945,0-0.945-0.834-0.945-1.086c0-0.756,0.173-0.992,0.535-1.182c0.914-0.456,2.126-0.614,2.583-0.677l0.031-0.945
					c0.031-0.756-0.063-0.96-0.299-1.212c-0.299-0.284-0.677-0.457-0.945-0.457c-0.252,0-0.724,0.157-0.724,0.52
					c0,0.095,0.031,0.205,0.079,0.331L9.812,11.608z M11.087,15.372c0.378,0,0.977-0.299,1.496-0.551
					c-0.032-0.362,0.032-1.182,0.047-1.449c-1.401-0.095-2.252,0.441-2.252,1.04C10.379,14.805,10.6,15.372,11.087,15.372z"/>
			</g>
			<g enable-background="new    ">
				<path fill="#901A1D" d="M18.064,9.734c0.756,0,1.229,0.315,1.417,0.457c0.315-0.062,0.756-0.11,1.165-0.11
					c0.299,0,0.41,0,0.551,0.031c-0.016,0.284-0.079,0.552-0.205,0.835c-0.299-0.126-0.599-0.221-1.103-0.221
					c0.205,0.283,0.425,0.866,0.425,1.401c0,1.544-1.165,2.095-2.283,2.63c-0.567,0.252-1.354,0.614-1.354,0.866
					c0,0.441,0.74,0.473,1.134,0.473c1.969,0,3.229,0,3.229,1.496c0,1.559-2.095,2.52-3.874,2.52s-2.079-1.087-2.079-1.591
					c0-0.977,0.897-1.496,1.401-1.795c-0.252-0.142-0.819-0.473-0.803-1.182c0.347-0.268,0.677-0.394,1.213-0.598l0.504-0.189
					v-0.031c-0.567-0.142-2.063-0.535-2.063-2.314C15.34,10.852,16.741,9.734,18.064,9.734z M17.796,19.498
					c0.945,0,2.661-0.409,2.661-1.512c0-0.378-0.252-0.93-0.976-0.992c-0.221-0.031-1.338,0-1.59,0c-0.315,0-0.677,0-0.977-0.095
					c-0.551,0.174-1.244,0.63-1.244,1.275C15.67,18.804,16.458,19.498,17.796,19.498z M18.222,14.317
					c0.488-0.252,1.181-0.583,1.181-1.796c0-1.149-0.693-2.33-1.811-2.33c-0.819,0-1.48,0.693-1.48,1.701
					C16.111,13.498,17.607,14.081,18.222,14.317z"/>
			</g>
			<g enable-background="new    ">
				<path fill="#901A1D" d="M22.727,12.569c0.047,0.897,0.11,1.339,0.551,1.921c0.599,0.771,1.212,0.771,1.433,0.771
					c0.409,0,0.929-0.11,1.606-0.598l0.142,0.188c-0.44,0.315-1.338,0.961-2.377,0.961c-1.575,0-2.331-1.434-2.331-2.74
					c0-2.457,2-3.213,2.409-3.213c0.567,0,1.527,0.205,2.047,1.401c0.047,0.11,0.095,0.189,0.347,0.189l0.016,0.283L22.727,12.569z
					 M23.75,12.049c0.062-0.032,0.818-0.205,1.008-0.236c0.551-0.126,0.614-0.142,0.614-0.252c0-0.173-0.488-1.213-1.512-1.213
					c-0.882,0-1.071,1.323-1.118,1.921L23.75,12.049z"/>
			</g>
			<g enable-background="new    ">
				<path fill="#901A1D" d="M29.168,9.561c0.031,0.473,0.031,0.551,0.031,1.307l0.93-0.535c0.157-0.095,0.566-0.331,0.977-0.599
					c0.062,0.048,0.109,0.079,0.173,0.11c0.22,0.11,0.488,0.236,0.488,0.646c0,0.441-0.425,0.678-0.835,0.725
					c0-0.362-0.189-0.535-0.473-0.535c-0.361,0-0.818,0.299-1.023,0.473c-0.252,0.22-0.252,0.22-0.268,0.834
					c0,0.189-0.047,1.056-0.047,1.37c0,0.394,0.031,1.575,0.157,1.858c0.079,0.173,0.204,0.173,0.44,0.173h0.205l0.914-0.016
					l-0.017,0.331l-3.559,0.094l0.016-0.235c0.788-0.142,0.961-0.174,0.961-3.118c0-1.134-0.048-1.543-0.599-1.543
					c-0.11,0-0.362,0.031-0.488,0.062l0.032-0.252L29.168,9.561z"/>
			</g>
			<g enable-background="new    ">
				<path fill="#901A1D" d="M34.002,12.127c-0.016,0.74,0,2.599,0.111,2.945c0.109,0.33,1.008,0.425,1.164,0.44v0.268
					c-0.22,0-1.448-0.078-2.031-0.078c-0.204,0-0.992,0.016-1.433,0.062v-0.236c0.788-0.142,1.04-0.425,1.118-1.102
					c0.078-0.504,0.205-3.465,0.205-5.543c0-0.804,0-2.031-0.205-2.315c-0.094-0.142-0.268-0.188-0.52-0.188
					c-0.158,0-0.236,0.016-0.347,0.031V6.175c0.788-0.33,1.512-0.646,2.063-1.039h0.236c-0.221,0.818-0.284,2.394-0.3,3.291
					L34.002,12.127z"/>
				<path fill="#901A1D" d="M39.199,9.844c1.606,0,2.977,1.26,2.977,2.913c0,1.575-1.182,3.056-3.055,3.056
					c-1.229,0-3.135-0.756-3.135-2.961C35.986,11.026,37.451,9.844,39.199,9.844z M39.199,15.451c1.055,0,1.938-0.93,1.938-2.378
					c0-1.401-0.977-2.866-2.314-2.866c-1.056,0-1.828,0.93-1.828,2.205C36.994,13.829,37.908,15.451,39.199,15.451z M37.877,7.34
					c0.346,0,0.582,0.284,0.582,0.599c0,0.299-0.252,0.583-0.582,0.583c-0.331,0-0.599-0.268-0.599-0.583
					C37.278,7.625,37.546,7.34,37.877,7.34z M40.302,7.34c0.331,0,0.599,0.284,0.599,0.599c0,0.315-0.268,0.583-0.599,0.583
					c-0.315,0-0.583-0.252-0.583-0.583C39.719,7.609,39.986,7.34,40.302,7.34z"/>
				<path fill="#901A1D" d="M43.311,9.955h1.023c0.016-1.858,0.347-2.787,0.883-3.401c0.74-0.851,2.016-1.401,2.676-1.401
					c0.504,0,1.323,0.236,1.323,0.535c0,0.158-0.268,0.614-0.487,0.614c-0.048,0-0.6-0.221-0.615-0.221
					c-0.44-0.157-0.677-0.235-1.023-0.235c-1.181,0-1.685,0.834-1.764,4.109h2.095v0.488h-2.095l-0.031,2.205
					c0,1.385,0,2.535,0.158,2.677c0.109,0.078,0.156,0.078,1.164,0.11v0.299c-1.008,0-2.928-0.031-3.354-0.031v-0.252
					c1.008-0.063,1.039-0.268,1.055-2.047l0.016-2.567c0-0.221-0.016-0.283-0.062-0.314c-0.095-0.063-0.756-0.095-0.961-0.095V9.955
					z"/>
			</g>
		</g>
	</g>
</g>
<g enable-background="new    ">
	<path d="M25.128,19.747c0.176,0.46,0.409,1.084,0.54,1.26c0.062,0.091,0.182,0.114,0.295,0.125v0.097
		c-0.057-0.006-0.108-0.012-0.176-0.012c-0.062-0.005-0.142-0.005-0.261-0.005c-0.335,0-0.567,0.022-0.658,0.028v-0.091
		c0.119-0.023,0.278-0.058,0.278-0.182c0-0.114-0.102-0.392-0.125-0.443l-0.205-0.556c-0.159-0.023-0.363-0.023-0.522-0.023h-0.222
		c-0.17-0.005-0.42,0.006-0.579,0.034l-0.204,0.511c-0.108,0.256-0.136,0.33-0.136,0.403c0,0.113,0.051,0.21,0.443,0.267v0.091
		c-0.068-0.011-0.136-0.017-0.222-0.028c-0.091-0.006-0.193-0.011-0.329-0.011c-0.199,0-0.369,0.011-0.505,0.022v-0.08
		c0.159-0.039,0.244-0.119,0.255-0.13c0.136-0.114,0.477-0.92,0.562-1.152L23.8,18.81c0.165-0.381,0.352-0.807,0.466-1.215h0.091
		c0.085,0.312,0.13,0.432,0.187,0.59L25.128,19.747z M23.675,19.548c-0.057,0.152-0.062,0.17-0.085,0.215
		c0.21,0.034,0.477,0.034,0.482,0.034l0.255-0.006c0.051,0,0.324-0.005,0.415-0.011c-0.022-0.062-0.097-0.278-0.125-0.335
		l-0.199-0.511c-0.034-0.097-0.215-0.506-0.261-0.602c-0.062,0.142-0.142,0.346-0.17,0.408L23.675,19.548z"/>
	<path d="M27.491,19.531c-0.215,0-0.403-0.006-0.607-0.034l-0.006,0.664c0,0.188,0.006,0.692,0.068,0.841
		c0.046,0.096,0.068,0.107,0.318,0.176c0.051,0.017,0.062,0.017,0.062,0.039c0,0.023-0.005,0.057-0.04,0.057
		c-0.022,0-0.119-0.011-0.233-0.022c-0.119-0.011-0.244-0.022-0.29-0.022c-0.13,0-0.267,0.006-0.375,0.017
		c-0.113,0.006-0.199,0.018-0.227,0.018c-0.034,0-0.057-0.012-0.057-0.04c0-0.039,0.011-0.045,0.113-0.073
		c0.222-0.062,0.284-0.119,0.29-1.005v-1.227c0.006-1.096-0.017-1.101-0.397-1.152c0.005-0.045,0.005-0.062,0.011-0.091
		c0.147,0.006,0.272,0.006,0.375,0.006c0.142,0,0.852-0.068,1.01-0.068c0.806,0,1.232,0.483,1.232,0.948
		c0,0.352-0.232,0.721-0.771,0.92l0.125,0.188c0.521,0.789,1.049,1.583,1.611,1.623c0.034,0.006,0.051,0.017,0.051,0.057
		c0,0.028,0,0.051-0.142,0.051c-0.761,0-1.322-0.721-1.805-1.413L27.491,19.531z M27.417,17.732c-0.119,0-0.414,0.028-0.454,0.13
		c-0.062,0.137-0.062,0.988-0.062,1.476c0.068,0.018,0.187,0.046,0.448,0.046c0.188,0,0.971,0,0.971-0.755
		C28.32,18.305,28.059,17.732,27.417,17.732z"/>
	<path d="M31.381,20.104c-0.107-0.085-0.346-0.289-0.664-0.505c-0.006,0.227,0,1.249,0.045,1.385
		c0.058,0.137,0.381,0.204,0.426,0.204v0.085c-0.096-0.017-0.227-0.022-0.363-0.028c-0.142-0.005-0.289-0.005-0.437-0.005
		c-0.301,0-0.353,0.005-0.46,0.011v-0.097c0.21-0.017,0.307-0.051,0.341-0.21c0.062-0.267,0.079-1.231,0.079-1.504
		c0-0.329,0-0.664-0.017-0.993c0-0.613-0.028-0.658-0.375-0.704l-0.005-0.097c0.057,0,0.176,0.006,0.307,0.012
		c0.13,0.006,0.266,0.012,0.352,0.012c0.301,0,0.442-0.023,0.573-0.04v0.091c-0.091,0.012-0.323,0.04-0.386,0.153
		c-0.062,0.119-0.086,1.038-0.086,1.254v0.329c0.074-0.062,0.228-0.215,0.341-0.329l0.681-0.669c0.137-0.137,0.29-0.29,0.369-0.393
		c0.023-0.028,0.062-0.096,0.062-0.164c0-0.125-0.17-0.137-0.271-0.142l-0.006-0.103l0.459,0.006
		c0.199,0.006,0.397-0.006,0.591-0.028l0.005,0.107c-0.107,0.012-0.227,0.051-0.437,0.21c-0.125,0.091-0.743,0.658-0.829,0.738
		l-0.386,0.374c-0.142,0.137-0.182,0.177-0.267,0.268l1.027,0.856c0.579,0.482,0.92,0.801,1.266,0.982l0.006,0.091
		c-0.045-0.006-0.102-0.018-0.17-0.022c-0.068-0.006-0.153-0.012-0.262-0.012c-0.232,0-0.482,0.022-0.607,0.034l-0.006-0.079
		c0.035-0.012,0.046-0.012,0.119-0.029c0.035-0.005,0.114-0.022,0.114-0.062c0-0.073-0.488-0.471-0.618-0.573L31.381,20.104z"/>
	<path d="M34.437,19.73c0,0.238,0.005,0.737,0.011,0.965c0.012,0.335,0.012,0.426,0.522,0.437l-0.011,0.108
		c-0.052,0-0.205-0.006-0.357-0.012c-0.16,0-0.312-0.006-0.375-0.006c-0.103,0-0.278,0.006-0.438,0.006
		c-0.158,0.006-0.307,0.012-0.363,0.012l-0.006-0.103c0.426-0.022,0.506-0.103,0.551-0.238c0.086-0.244,0.086-1.124,0.086-1.447
		c0-0.551-0.012-0.732-0.029-1.192c-0.012-0.38-0.039-0.488-0.573-0.499v-0.114c0.108,0,0.25,0.006,0.392,0.018
		c0.143,0.006,0.284,0.011,0.381,0.011c0.085,0,0.244-0.005,0.402-0.017c0.159-0.006,0.307-0.012,0.363-0.012v0.125
		c-0.317,0-0.408,0.028-0.465,0.131c-0.091,0.176-0.091,1.078-0.091,1.334V19.73z"/>
	<path d="M38.243,18.628c0.074-0.165,0.239-0.539,0.239-0.676c0-0.164-0.165-0.198-0.307-0.21l0.017-0.113
		c0.034,0,0.125,0.011,0.244,0.017s0.267,0.012,0.409,0.012c0.141,0,0.221-0.006,0.334-0.006v0.08
		c-0.352,0.119-0.38,0.17-0.771,0.959l-0.625,1.243c-0.188,0.369-0.505,1.056-0.551,1.362l-0.084,0.011
		c-0.029-0.079-0.046-0.142-0.143-0.346l-0.188-0.415c-0.057-0.142-0.142-0.334-0.232-0.527l-0.465-0.982
		c-0.131-0.272-0.506-1.062-0.619-1.186c-0.103-0.114-0.205-0.119-0.33-0.125l0.012-0.097h0.228c0.216,0,0.363,0.017,0.454,0.017
		c0.085,0,0.198-0.006,0.307-0.006l0.244,0.006l0.006,0.091c-0.324,0.023-0.358,0.028-0.358,0.103c0,0.164,0.466,1.181,0.642,1.566
		l0.386,0.835l0.079,0.158c0.018,0.034,0.052,0.114,0.114,0.239c0.204-0.375,0.55-1.113,0.596-1.215L38.243,18.628z"/>
	<path d="M41.746,19.985H41.65c-0.018-0.488-0.119-0.511-1.027-0.511c-0.278,0-0.393,0.012-0.5,0.028l-0.012,0.392
		c-0.005,0.222-0.005,0.795,0.052,1.112c0.108,0.028,0.244,0.085,0.721,0.085c0.874,0,1.112-0.176,1.288-0.675h0.086
		c-0.068,0.426-0.113,0.59-0.232,0.84c-0.108-0.012-0.415-0.017-0.693-0.017c-0.277,0-0.533-0.012-0.539-0.012
		c-0.527,0-1.135,0.022-1.492,0.04l0.005-0.097c0.323-0.068,0.335-0.074,0.369-0.307c0.04-0.278,0.068-1.243,0.062-1.431
		l-0.017-0.88c-0.018-0.761-0.04-0.761-0.375-0.828l0.006-0.074h1.776c0.192,0,0.602-0.012,0.902-0.022
		c-0.028,0.392-0.067,0.624-0.136,0.721l-0.074-0.022c0-0.057,0.023-0.204,0.023-0.232c0-0.307-0.562-0.312-0.824-0.312
		c-0.38,0-0.629,0.028-0.851,0.057c-0.022,0.204-0.052,0.442-0.052,0.771c0,0.239,0,0.625,0.006,0.722
		c0.068,0.005,0.228,0.005,0.409,0.005c0.289,0,0.642-0.005,0.806-0.022c0.205-0.022,0.232-0.022,0.335-0.374h0.073V19.985z"/>
	<path d="M42.452,18.219c0.108-0.277,0.137-0.363,0.233-0.658c0.062,0.057,0.09,0.091,0.221,0.108
		c0.131,0.017,0.357,0.022,0.807,0.022h1.402c0.102,0,0.572-0.012,0.664-0.012c0.17,0,0.187-0.022,0.238-0.079
		c0.027,0.039,0.039,0.045,0.073,0.068c-0.062,0.164-0.13,0.442-0.153,0.567l-0.119,0.017c0.018-0.107,0.018-0.142,0.023-0.25
		c-0.086-0.067-0.233-0.147-0.881-0.147c-0.386,0-0.42,0-0.426,0.108c-0.006,0.188-0.022,0.46-0.033,0.857
		c-0.006,0.215-0.012,1.135-0.012,1.322c0,0.953,0,0.953,0.443,1.01c0.113,0.012,0.124,0.012,0.124,0.034
		c0,0.006,0,0.057-0.005,0.068c-0.041,0.006-0.074,0.006-0.108,0.006c-0.04,0-0.165-0.012-0.296-0.018
		c-0.124-0.011-0.249-0.017-0.301-0.017c-0.119,0-0.266,0-0.59,0.051c-0.142,0.023-0.158,0.028-0.193,0.028
		c-0.062,0-0.073-0.028-0.096-0.091c0.051-0.017,0.079-0.022,0.17-0.045c0.392-0.091,0.408-0.125,0.408-0.335
		c0-0.017,0.018-0.267,0.023-0.312c0-0.062,0.017-0.612,0.017-1.175c0-1.016,0-1.288-0.067-1.465
		c-0.119-0.011-0.262-0.022-0.522-0.022c-0.789,0-0.835,0.108-0.948,0.381L42.452,18.219z"/>
</g>
</svg>
