<?xml version="1.0" encoding="utf-8"?>
<!-- Generator: Adobe Illustrator 15.1.0, SVG Export Plug-In . SVG Version: 6.00 Build 0)  -->
<!DOCTYPE svg PUBLIC "-//W3C//DTD SVG 1.1//EN" "http://www.w3.org/Graphics/SVG/1.1/DTD/svg11.dtd">
<svg version="1.1" id="Lager_1" xmlns="http://www.w3.org/2000/svg" xmlns:xlink="http://www.w3.org/1999/xlink" x="0px" y="0px"
	 width="169.959px" height="65.333px" viewBox="205.14 399.112 169.959 65.333"
	 enable-background="new 205.14 399.112 169.959 65.333" xml:space="preserve">
<g>
	<path fill="#7A1400" d="M284.391,455.794v-0.1c0.899-0.101,1.399-0.101,1.399-0.601s-0.3-1.399-0.6-2.3l-0.5-1.399h-3.9l-0.6,1.399
		c-0.4,1-0.7,1.8-0.7,2.2c0,0.5,0.4,0.5,1.2,0.6v0.101c-0.5-0.101-1.1-0.101-1.9-0.101c-1,0-1.199,0-1.899,0.101v-0.101
		c1.2-0.1,1.8-0.8,2.8-2.8l3.8-8.6l0,0l3.3,8.6c0.7,1.8,1,2.7,2.8,2.8v0.101c-0.5-0.101-1.6-0.101-2.3-0.101
		C286.391,455.694,285.191,455.694,284.391,455.794z M280.99,450.994h3.6l-1.6-4.5L280.99,450.994z"/>
	<path fill="#7A1400" d="M295.09,450.694c-0.399,0-0.5,0-0.8,0v2.2c0,2.3,0.2,2.699,1.899,2.899v0.1c-0.499-0.1-1.699-0.1-2.499-0.1
		c-1,0-2.2,0-2.9,0.1v-0.1c1.6-0.2,1.9-0.5,1.9-2.899v-5.4c0-2.2-0.5-2.7-1.301-2.7c-0.199,0-0.399,0-0.699,0.101v-0.101
		c0.699-0.199,2.699-0.3,4.6-0.3c3,0,4.6,0.9,4.6,2.7c0,1.2-0.8,2.2-2.2,2.8c0.9,2.6,3,5.8,5.3,5.899v0.101
		c-3.699,0-5.8-2.7-6.6-5.6C295.99,450.594,295.49,450.694,295.09,450.694z M294.39,444.794c-0.1,0.301-0.1,1.101-0.1,2.5v3
		c0.3,0,0.5,0,0.8,0c2.4,0,3.3-1,3.3-2.7c0-2.1-1.2-2.899-3.3-2.899C294.89,444.794,294.691,444.794,294.39,444.794z"/>
	<path fill="#7A1400" d="M303.39,455.794v-0.1c1.8-0.2,2.1-0.5,2.1-2.9v-5.399c0-2.4-0.2-2.7-2.1-2.9c0,0-0.101-0.1,0-0.1
		c0.7,0.1,2,0.1,3,0.1c0.8,0,1.8,0,2.3-0.1v0.1c-1.5,0.101-1.7,0.601-1.7,2.9v5.399c0,2.2,0.3,2.7,1.7,2.9v0.1
		c-0.5-0.1-1.601-0.1-2.3-0.1C305.39,455.694,304.09,455.694,303.39,455.794z M313.389,455.694c-1,0-2.1,0-2.8,0.1v-0.1
		c1.101-0.101,1.3-0.301,1.101-0.7c-0.4-0.5-1.101-1.3-2-2.2l-2.2-2.399l2.6-2.9c0.801-0.899,1.301-1.5,1.8-2.1
		c0.301-0.5-0.1-0.7-0.999-0.8c0,0-0.101-0.101,0-0.101c0.5,0.101,1.399,0.101,2.199,0.101c0.601,0,1.3,0,1.7-0.101v0.101
		c-1.6,0.1-2.1,0.8-4.1,2.999l-1.9,2.101l3.2,3.3c2.2,2.2,2.8,2.7,4.399,2.8v0.1C315.589,455.694,314.089,455.694,313.389,455.694z"
		/>
	<path fill="#7A1400" d="M319.789,455.694c-1,0-2.1,0-2.9,0.1v-0.1c1.7-0.2,1.9-0.5,1.9-2.9v-5.399c0-2.4-0.3-2.7-1.9-2.9
		c0,0-0.1-0.1,0-0.2c0.801,0.101,1.8,0.101,2.9,0.101c0.7,0,1.899-0.101,2.399-0.101c0.101,0,0,0.101,0,0.2
		c-1.699,0.101-1.8,0.601-1.8,2.9v5.399c0,2.2,0.2,2.7,1.9,2.9v0.1C321.789,455.694,320.589,455.694,319.789,455.694z"/>
	<path fill="#7A1400" d="M330.489,455.994L330.489,455.994l-3.699-8.6c-0.9-2.101-1.4-2.7-2.9-2.8v-0.2c0.5,0.1,1.6,0.1,2.3,0.1
		c1,0,2.2,0,3-0.1c0,0,0,0.1,0,0.2c-0.899,0.1-1.399,0.199-1.399,0.8c0,0.3,0.1,1,0.6,2.1l2.7,6.2l2.6-6.2c0.6-1.3,0.6-1.7,0.6-2.1
		c0-0.5-0.399-0.7-1.3-0.8v-0.2c0.5,0.1,1.3,0.1,2,0.1c1,0,1.2,0,1.9-0.1c0,0,0,0.1,0,0.2c-1.101,0.1-1.8,0.6-2.7,2.8
		L330.489,455.994z"/>
	<path fill="#7A1400" d="M345.888,455.794c-0.6,0-1.699-0.1-3-0.1c-1.8,0-3.8,0-5.1,0.1v-0.1c1.9-0.2,2.101-0.5,2.101-2.9v-5.399
		c0-2.4-0.2-2.7-2-2.9c0,0-0.101-0.2,0-0.2c1.399,0.101,3.3,0.101,4.999,0.101c1.2,0,2.4-0.101,3.301-0.101
		c0,0.301-0.101,0.801-0.101,1.101c0,0.2,0,0.7,0,0.899h-0.2c-0.1-0.899-0.5-1.3-2.8-1.3h-1.6c-0.101,0.5-0.101,1.2-0.101,2.3v2.3
		h1.301c2.1,0,2.199-0.199,2.399-1h0.101c-0.101,0.301-0.101,1-0.101,1.4c0,0.2,0,0.9,0,1.1h-0.1c-0.2-1-0.3-1.199-2.3-1.199h-1.301
		v2.5c0,2.499,0.2,2.699,1.101,2.699h0.899c2.7,0,2.8-0.5,3.101-1.7c0,0,0.1,0,0.2,0c-0.101,0.4-0.2,1.601-0.4,1.9
		C346.189,455.694,346.088,455.794,345.888,455.794z"/>
	<path fill="#7A1400" d="M359.388,446.595h-0.101c-0.1-0.801-0.8-1.5-2.699-1.5h-1.7v7.699c0,2.2,0.2,2.7,1.9,2.9v0.1
		c-0.5-0.1-1.7-0.1-2.5-0.1c-1,0-2.101,0-2.8,0.1v-0.1c1.699-0.2,1.899-0.5,1.899-2.9v-7.699h-1.8c-1.9,0-2.6,0.6-2.8,1.5h-0.101
		c0.101-0.4,0.101-1.301,0.101-1.801c0-0.199,0-0.5-0.101-1h0.101c0.1,0.601,0.1,0.801,2.8,0.801h5c2.699,0,2.699-0.101,2.8-0.7h0.1
		c-0.1,0.399-0.2,1-0.2,1.6C359.287,445.794,359.388,446.395,359.388,446.595z"/>
</g>
<g>
	<path fill="#FFFFFF" d="M230.893,438.395c-1.7,0-4.301-0.3-7.7-0.3c-4.8,0-10,0.1-13.399,0.399c-0.101,0,0-0.3,0-0.3
		c5-0.5,5.1-0.3,5.1-7.899v-14.399c0-7.6-0.2-7.5-4.7-8c0,0-0.1-0.2,0-0.2c2,0.2,4.2,0.3,6.9,0.3c2,0,4.399-0.1,5.8-0.3
		c0.1,0,0.1,0.2,0,0.2c-4.6,0.4-4.7,0.7-4.7,8v14.399c0,6.199,0.5,6.8,3.1,6.8h2.601c7.6,0,7.699-0.601,8.399-3.4h0.2
		c-0.101,1.2-0.4,2.9-0.7,3.9C231.693,438.295,231.492,438.395,230.893,438.395z"/>
	<path fill="#FFFFFF" d="M246.692,435.595c-2.2,2.1-4.699,3.2-6.899,3.2c-2.5,0-4-1.601-4-3.8c0-2.5,2.899-4.7,11-5.2
		c0.1-1.9,0.1-4.6,0.1-5.5c0-1.5-0.4-2.9-1.4-3.4c-0.699-0.399-1.6-0.6-2.899-0.6c-1.6,0-3.1,0.9-3.1,1.7
		c0,0.601,0.199,0.899,0.199,1.5c0,0.899-1.399,1.6-2.8,1.6c-0.5,0-0.8-0.3-0.8-0.7c0.101-1.699,5.2-5.699,9.5-5.699
		c2.3,0,4.1,1.699,4.1,4.8c0,2.1-0.3,9.1-0.2,11.8c0,2,1.2,2.899,4.4,1.6c0,0,0.2,0,0,0.1c-1.5,1.2-3.2,2-4.5,2
		C247.892,438.895,246.692,437.895,246.692,435.595z M242.092,437.295c1.7,0,2.8-0.7,4.5-2c0-0.9,0.1-3.4,0.2-5.101
		c-6.8,0.5-7.9,2.4-7.9,4.4C238.892,436.494,240.192,437.295,242.092,437.295z"/>
	<path fill="#FFFFFF" d="M254.192,445.794c0-2.3,2.1-4.399,6.199-5.499c-2.399-1-3.999-3.2-3.999-4c0-1.101,3.3-1.5,4.999-2.4
		c-3.3-1.5-5.699-4-5.699-7.6c0-3.8,3.2-7.6,8.1-7.6c2,0,3.399,0.6,5.399,0.6s3.4,0,4-0.199c0.4-0.101,0.3,2-0.1,1.899
		c-0.5,0-1.101-0.101-2.8-0.101h-1c1.3,1.5,1.899,3.101,1.899,4.801c0,3.1-2.199,5.999-5.399,7.1c-5.4,1.899-6.1,2.6-6.1,3.1
		c0,0.9,1,2.1,3.6,2l3.6-0.1c5.5-0.101,7.3,2.1,7.3,4.8c0,4.999-6.199,8.699-11.8,8.699
		C257.091,451.094,254.192,448.395,254.192,445.794z M260.692,440.395c-2.4,1.2-3.5,2.399-3.5,4.399c0,2.4,2.1,4.9,7.1,4.9
		c4.8,0,7.5-2.4,7.5-5.3c0-2.4-2.101-4.2-5.6-4.1L260.692,440.395z M258.591,424.995c0,5,3.101,7.399,5.5,7.399
		c2.7,0,4.2-2.1,4.2-5.5c0-5-2.5-7.6-5.3-7.6C259.892,419.295,258.591,421.596,258.591,424.995z"/>
	<path fill="#FFFFFF" d="M278.891,426.195c-0.101,0.699-0.101,1.199-0.101,1.8c0,6.6,3.7,9.199,7.3,9.199c2.301,0,4.5-0.899,6.2-2.1
		v0.2c-1.6,1.899-4.8,3.5-7.8,3.5c-5.2,0-8.8-3.9-8.8-9.4c0-5.699,5-10.699,9.8-10.699c4.6,0,6.899,3.4,6.899,6.1c0,0.3,0,0.7-0.1,1
		L278.891,426.195z M278.891,425.695l10.5-0.301c-0.101-2.699-1.9-5.899-5.101-5.899
		C281.691,419.495,279.49,421.795,278.891,425.695z"/>
	<path fill="#FFFFFF" d="M306.09,421.195c-1.2,0-2.2,0.6-3.801,2.7v9.799c0,3.5,0.5,4.2,5,4.4v0.2c-1-0.101-4.899-0.301-6.199-0.301
		c-1.9,0-4.1,0.101-5.5,0.301v-0.2c3.399-0.4,3.8-0.5,3.8-4.4v-8.1c0-3.399-0.7-3.999-3.3-3.1c0,0,0,0,0-0.101
		c1.899-1.1,4.2-2.799,5.8-4.299c0,0,0.1,0.1,0.2,0.2c0.1,0.8,0.199,2.9,0.199,5c3.101-3.699,5.101-5.2,6.3-5.2
		c1.2,0,2.2,1.6,2.2,2.1c0,0.8-1,2.3-1.399,2.3C308.69,422.596,307.49,421.195,306.09,421.195z"/>
	<path fill="#FFFFFF" d="M311.789,438.395v-0.2c3.4-0.399,3.8-0.5,3.8-4.399v-23.1c0-3.4-0.7-3.9-3.399-3.1c0,0,0-0.1,0.1-0.1
		c1.9-1.1,4.8-2.6,6.3-4c0,0,0.1,0.1,0.2,0.1c-0.2,1-0.3,5.1-0.3,6.9v23.299c0,3.899,0.3,4,3.699,4.399v0.2
		c-1.3-0.2-3.399-0.3-5.3-0.3C315.089,438.095,313.089,438.194,311.789,438.395z"/>
	<path fill="#FFFFFF" d="M324.789,429.095c0-5.3,3.8-10.399,10.199-10.399c5.9,0,9.7,4.7,9.7,9.699c0,5.3-3.9,10.4-10.2,10.4
		C328.589,438.795,324.789,434.095,324.789,429.095z M327.989,427.195c0,6.8,3,10.799,7.601,10.799c3.999,0,5.999-3.6,5.999-7.699
		c0-6.8-3.1-10.9-7.6-10.9C329.989,419.495,327.989,423.095,327.989,427.195z M328.589,412.195c0-1,0.8-2,1.899-2
		c1,0,1.8,0.9,1.8,1.9c0,1-0.8,1.9-1.899,1.9S328.589,413.095,328.589,412.195z M336.889,412.195c0-1,0.8-2,1.899-2
		c1,0,1.8,0.9,1.8,1.9c0,1-0.8,1.9-1.899,1.9C337.689,413.995,336.889,413.095,336.889,412.195z"/>
	<path fill="#FFFFFF" d="M358.888,405.696c-3.4,0-4.4,2.4-4.4,10.799v3.101h2.7c2,0,3.4,0,4-0.201c0.2,0,0.1,1.4,0,1.4
		c-0.5,0-1.5-0.1-3.3-0.1h-3.399v12.999c0,3.5,0.6,4.2,4.999,4.4v0.2c-1-0.101-4.899-0.301-6.199-0.301
		c-1.8,0-4.101,0.101-5.4,0.301v-0.2c3.4-0.4,3.8-0.5,3.8-4.4v-12.999c-1.3,0-3.6,0-4.1,0c-0.1,0-0.1-0.5-0.1-0.5
		c1.699-0.1,3.1-0.4,4.199-0.7v-2.1c0.2-8,4.8-13.799,10.4-13.799c1.8,0,3.6,1.1,3.6,1.7c0,0.9-1,2.5-1.6,2.5
		C362.787,407.695,360.988,405.696,358.888,405.696z"/>
</g>
</svg>
