<?xml version="1.0" encoding="utf-8"?>
<!-- Generator: Adobe Illustrator 15.1.0, SVG Export Plug-In . SVG Version: 6.00 Build 0)  -->
<!DOCTYPE svg PUBLIC "-//W3C//DTD SVG 1.1//EN" "http://www.w3.org/Graphics/SVG/1.1/DTD/svg11.dtd">
<svg version="1.1" id="Lager_1" xmlns="http://www.w3.org/2000/svg" xmlns:xlink="http://www.w3.org/1999/xlink" x="0px" y="0px"
	 width="169.959px" height="65.404px" viewBox="200 403.596 169.959 65.404" enable-background="new 200 403.596 169.959 65.404"
	 xml:space="preserve">
<g>
	<path fill="#FFFFFF" d="M284.392,455.794v-0.1c0.898-0.102,1.398-0.102,1.398-0.602s-0.301-1.398-0.6-2.3l-0.5-1.399h-3.9
		l-0.6,1.399c-0.4,1-0.701,1.8-0.701,2.2c0,0.5,0.4,0.5,1.201,0.6v0.102c-0.5-0.102-1.101-0.102-1.9-0.102c-1,0-1.199,0-1.898,0.102
		v-0.102c1.199-0.1,1.799-0.8,2.799-2.8l3.801-8.6l0,0l3.3,8.6c0.7,1.8,1,2.7,2.8,2.8v0.102c-0.5-0.102-1.6-0.102-2.3-0.102
		C286.392,455.694,285.19,455.694,284.392,455.794z M280.989,450.994h3.601l-1.601-4.5L280.989,450.994z"/>
	<path fill="#FFFFFF" d="M295.09,450.694c-0.399,0-0.5,0-0.8,0v2.199c0,2.301,0.2,2.699,1.898,2.899v0.1
		c-0.498-0.1-1.699-0.1-2.498-0.1c-1,0-2.201,0-2.9,0.1v-0.1c1.6-0.2,1.9-0.5,1.9-2.899v-5.399c0-2.2-0.5-2.7-1.301-2.7
		c-0.199,0-0.399,0-0.699,0.101v-0.101c0.699-0.199,2.699-0.3,4.6-0.3c3,0,4.6,0.899,4.6,2.7c0,1.2-0.799,2.2-2.199,2.8
		c0.9,2.6,3,5.8,5.299,5.898v0.102c-3.699,0-5.799-2.7-6.6-5.601C295.989,450.594,295.489,450.694,295.09,450.694z M294.39,444.794
		c-0.1,0.301-0.1,1.101-0.1,2.5v3c0.3,0,0.5,0,0.8,0c2.399,0,3.3-1,3.3-2.7c0-2.1-1.199-2.898-3.3-2.898
		C294.89,444.794,294.69,444.794,294.39,444.794z"/>
	<path fill="#FFFFFF" d="M303.39,455.794v-0.1c1.801-0.2,2.1-0.5,2.1-2.9v-5.399c0-2.399-0.199-2.699-2.1-2.899
		c0,0-0.102-0.101,0-0.101c0.701,0.101,2,0.101,3,0.101c0.801,0,1.801,0,2.301-0.101v0.101c-1.5,0.101-1.701,0.601-1.701,2.899
		v5.399c0,2.2,0.301,2.7,1.701,2.9v0.1c-0.5-0.1-1.602-0.1-2.301-0.1C305.39,455.694,304.091,455.694,303.39,455.794z
		 M313.39,455.694c-1,0-2.102,0-2.801,0.1v-0.1c1.102-0.102,1.301-0.302,1.102-0.7c-0.4-0.5-1.102-1.3-2-2.2l-2.201-2.399
		l2.602-2.899c0.801-0.899,1.301-1.5,1.799-2.101c0.301-0.5-0.1-0.699-0.998-0.8c0,0-0.102-0.101,0-0.101
		c0.5,0.101,1.398,0.101,2.199,0.101c0.6,0,1.299,0,1.699-0.101v0.101c-1.6,0.101-2.1,0.8-4.1,2.999l-1.9,2.102l3.199,3.3
		c2.201,2.2,2.801,2.7,4.4,2.8v0.1C315.589,455.694,314.089,455.694,313.39,455.694z"/>
	<path fill="#FFFFFF" d="M319.788,455.694c-1,0-2.1,0-2.898,0.1v-0.1c1.699-0.2,1.898-0.5,1.898-2.9v-5.399
		c0-2.399-0.299-2.699-1.898-2.899c0,0-0.102-0.101,0-0.2c0.801,0.102,1.799,0.102,2.898,0.102c0.701,0,1.9-0.102,2.4-0.102
		c0.1,0,0,0.102,0,0.2c-1.699,0.101-1.801,0.601-1.801,2.899v5.399c0,2.2,0.201,2.7,1.9,2.9v0.1
		C321.788,455.694,320.589,455.694,319.788,455.694z"/>
	<path fill="#FFFFFF" d="M330.489,455.994L330.489,455.994l-3.699-8.601c-0.9-2.101-1.4-2.699-2.9-2.8v-0.2
		c0.5,0.101,1.6,0.101,2.301,0.101c1,0,2.199,0,3-0.101c0,0,0,0.101,0,0.2c-0.898,0.101-1.398,0.199-1.398,0.8
		c0,0.301,0.1,1,0.6,2.101l2.699,6.2l2.6-6.2c0.602-1.3,0.602-1.7,0.602-2.101c0-0.5-0.4-0.699-1.301-0.8v-0.2
		c0.5,0.101,1.301,0.101,2,0.101c1,0,1.199,0,1.9-0.101c0,0,0,0.101,0,0.2c-1.102,0.101-1.801,0.601-2.701,2.8L330.489,455.994z"/>
	<path fill="#FFFFFF" d="M345.888,455.794c-0.6,0-1.699-0.1-3-0.1c-1.799,0-3.799,0-5.1,0.1v-0.1c1.9-0.2,2.102-0.5,2.102-2.9
		v-5.399c0-2.399-0.201-2.699-2-2.899c0,0-0.102-0.2,0-0.2c1.398,0.102,3.299,0.102,4.998,0.102c1.201,0,2.4-0.102,3.301-0.102
		c0,0.301-0.1,0.801-0.1,1.102c0,0.199,0,0.699,0,0.898h-0.201c-0.1-0.898-0.5-1.3-2.799-1.3h-1.602c-0.1,0.5-0.1,1.2-0.1,2.3v2.3
		h1.301c2.1,0,2.199-0.198,2.398-1h0.102c-0.102,0.302-0.102,1-0.102,1.4c0,0.2,0,0.899,0,1.1h-0.1
		c-0.201-1-0.301-1.198-2.301-1.198h-1.301v2.5c0,2.498,0.201,2.698,1.102,2.698h0.898c2.701,0,2.801-0.5,3.102-1.7
		c0,0,0.1,0,0.199,0c-0.1,0.4-0.199,1.602-0.4,1.9C346.188,455.694,346.089,455.794,345.888,455.794z"/>
	<path fill="#FFFFFF" d="M359.388,446.595h-0.102c-0.1-0.801-0.799-1.5-2.697-1.5h-1.701v7.699c0,2.2,0.201,2.7,1.9,2.9v0.1
		c-0.5-0.1-1.699-0.1-2.5-0.1c-1,0-2.102,0-2.801,0.1v-0.1c1.699-0.2,1.9-0.5,1.9-2.9v-7.699h-1.801c-1.9,0-2.6,0.601-2.801,1.5
		h-0.1c0.1-0.399,0.1-1.301,0.1-1.801c0-0.199,0-0.5-0.1-1h0.1c0.102,0.601,0.102,0.801,2.801,0.801h5
		c2.699,0,2.699-0.101,2.801-0.7h0.1c-0.1,0.399-0.201,1-0.201,1.601C359.286,445.794,359.388,446.395,359.388,446.595z"/>
</g>
<g>
	<path fill="#FFFFFF" d="M230.894,438.395c-1.701,0-4.302-0.3-7.701-0.3c-4.799,0-10,0.101-13.398,0.399c-0.102,0,0-0.3,0-0.3
		c5-0.5,5.1-0.301,5.1-7.899v-14.398c0-7.601-0.199-7.5-4.699-8c0,0-0.1-0.201,0-0.201c2,0.201,4.199,0.301,6.9,0.301
		c2,0,4.398-0.1,5.799-0.301c0.101,0,0.101,0.201,0,0.201c-4.6,0.399-4.699,0.699-4.699,8v14.398c0,6.199,0.5,6.8,3.1,6.8h2.602
		c7.6,0,7.699-0.601,8.398-3.399h0.2c-0.101,1.199-0.399,2.899-0.7,3.899C231.692,438.295,231.492,438.395,230.894,438.395z"/>
	<path fill="#FFFFFF" d="M246.692,435.595c-2.2,2.101-4.699,3.2-6.899,3.2c-2.5,0-4-1.601-4-3.8c0-2.5,2.899-4.7,11-5.2
		c0.101-1.9,0.101-4.6,0.101-5.5c0-1.5-0.4-2.9-1.4-3.4c-0.699-0.398-1.6-0.6-2.898-0.6c-1.601,0-3.101,0.9-3.101,1.7
		c0,0.601,0.198,0.898,0.198,1.5c0,0.898-1.398,1.6-2.799,1.6c-0.5,0-0.801-0.3-0.801-0.7c0.102-1.698,5.2-5.699,9.5-5.699
		c2.301,0,4.1,1.699,4.1,4.801c0,2.1-0.299,9.1-0.199,11.8c0,2,1.199,2.899,4.4,1.601c0,0,0.199,0,0,0.1c-1.5,1.2-3.201,2-4.5,2
		C247.892,438.895,246.692,437.895,246.692,435.595z M242.092,437.295c1.7,0,2.8-0.7,4.5-2c0-0.9,0.101-3.4,0.2-5.101
		c-6.8,0.5-7.9,2.399-7.9,4.399C238.892,436.494,240.192,437.295,242.092,437.295z"/>
	<path fill="#FFFFFF" d="M254.192,445.794c0-2.3,2.1-4.399,6.199-5.499c-2.399-1-4-3.2-4-4c0-1.101,3.301-1.5,5-2.4
		c-3.301-1.5-5.699-4-5.699-7.6c0-3.8,3.199-7.6,8.1-7.6c2,0,3.398,0.6,5.398,0.6s3.4,0,4-0.199c0.4-0.101,0.301,2-0.1,1.899
		c-0.5,0-1.102-0.101-2.8-0.101h-1c1.3,1.499,1.899,3.101,1.899,4.801c0,3.1-2.199,5.999-5.399,7.1
		c-5.399,1.899-6.101,2.6-6.101,3.1c0,0.9,1,2.101,3.601,2l3.601-0.1c5.5-0.101,7.299,2.1,7.299,4.8
		c0,4.999-6.198,8.699-11.799,8.699C257.091,451.094,254.192,448.395,254.192,445.794z M260.692,440.395
		c-2.4,1.2-3.5,2.399-3.5,4.399c0,2.4,2.1,4.9,7.1,4.9c4.8,0,7.5-2.4,7.5-5.301c0-2.399-2.102-4.199-5.6-4.1L260.692,440.395z
		 M258.591,424.995c0,5,3.102,7.398,5.5,7.398c2.7,0,4.2-2.1,4.2-5.5c0-4.999-2.5-7.6-5.3-7.6
		C259.892,419.295,258.591,421.596,258.591,424.995z"/>
	<path fill="#FFFFFF" d="M278.892,426.195c-0.102,0.698-0.102,1.198-0.102,1.8c0,6.6,3.699,9.199,7.3,9.199
		c2.302,0,4.5-0.899,6.2-2.101v0.2c-1.6,1.899-4.801,3.5-7.801,3.5c-5.199,0-8.799-3.9-8.799-9.4c0-5.698,5-10.698,9.799-10.698
		c4.601,0,6.9,3.399,6.9,6.1c0,0.3,0,0.7-0.101,1L278.892,426.195z M278.892,425.695l10.5-0.302c-0.102-2.698-1.9-5.898-5.102-5.898
		C281.69,419.495,279.489,421.795,278.892,425.695z"/>
	<path fill="#FFFFFF" d="M306.091,421.195c-1.201,0-2.201,0.6-3.803,2.699v9.8c0,3.5,0.5,4.2,5,4.399v0.2
		c-1-0.101-4.898-0.301-6.197-0.301c-1.9,0-4.102,0.101-5.501,0.301v-0.2c3.399-0.399,3.8-0.5,3.8-4.399v-8.101
		c0-3.398-0.699-3.998-3.3-3.1c0,0,0,0,0-0.102c1.899-1.1,4.2-2.799,5.8-4.299c0,0,0.1,0.1,0.201,0.2c0.1,0.8,0.197,2.899,0.197,5
		c3.102-3.698,5.102-5.2,6.301-5.2s2.199,1.6,2.199,2.1c0,0.801-1,2.301-1.398,2.301
		C308.69,422.596,307.489,421.195,306.091,421.195z"/>
	<path fill="#FFFFFF" d="M311.788,438.395v-0.199c3.4-0.399,3.801-0.5,3.801-4.399v-23.101c0-3.399-0.699-3.899-3.398-3.1
		c0,0,0-0.1,0.1-0.1c1.9-1.1,4.801-2.6,6.301-4c0,0,0.1,0.1,0.199,0.1c-0.199,1-0.301,5.1-0.301,6.9v23.299
		c0,3.899,0.301,4,3.699,4.399v0.199c-1.299-0.199-3.398-0.3-5.299-0.3C315.089,438.095,313.089,438.194,311.788,438.395z"/>
	<path fill="#FFFFFF" d="M324.788,429.095c0-5.3,3.801-10.399,10.199-10.399c5.9,0,9.701,4.701,9.701,9.699
		c0,5.301-3.9,10.4-10.201,10.4C328.589,438.795,324.788,434.095,324.788,429.095z M327.989,427.195c0,6.8,3,10.799,7.602,10.799
		c3.998,0,5.998-3.601,5.998-7.699c0-6.8-3.1-10.9-7.6-10.9C329.989,419.495,327.989,423.095,327.989,427.195z M328.589,412.195
		c0-1,0.801-2,1.898-2c1,0,1.801,0.9,1.801,1.9s-0.801,1.899-1.898,1.899C329.29,413.995,328.589,413.096,328.589,412.195z
		 M336.89,412.195c0-1,0.799-2,1.898-2c1,0,1.801,0.9,1.801,1.9s-0.801,1.899-1.9,1.899
		C337.688,413.995,336.89,413.096,336.89,412.195z"/>
	<path fill="#FFFFFF" d="M358.888,405.695c-3.4,0-4.4,2.4-4.4,10.8v3.101h2.701c2,0,3.4,0,4-0.201c0.199,0,0.1,1.4,0,1.4
		c-0.5,0-1.5-0.1-3.301-0.1h-3.398v12.999c0,3.5,0.6,4.2,4.998,4.399v0.2c-1-0.101-4.898-0.301-6.199-0.301
		c-1.799,0-4.1,0.101-5.398,0.301v-0.2c3.398-0.399,3.799-0.5,3.799-4.399v-12.999c-1.299,0-3.6,0-4.1,0c-0.1,0-0.1-0.5-0.1-0.5
		c1.699-0.1,3.1-0.4,4.199-0.7v-2.101c0.199-8,4.799-13.799,10.4-13.799c1.799,0,3.6,1.1,3.6,1.7c0,0.899-1,2.5-1.6,2.5
		C362.786,407.695,360.987,405.695,358.888,405.695z"/>
</g>
</svg>
