<?xml version="1.0" standalone="no"?>
<!DOCTYPE svg PUBLIC "-//W3C//DTD SVG 20010904//EN"
 "http://www.w3.org/TR/2001/REC-SVG-20010904/DTD/svg10.dtd">
<svg version="1.0" xmlns="http://www.w3.org/2000/svg"
 width="2208.000000pt" height="2208.000000pt" viewBox="0 0 2208.000000 2208.000000"
 preserveAspectRatio="xMidYMid meet">
<metadata>
Created by potrace 1.11, written by Peter Selinger 2001-2013
</metadata>
<g transform="translate(0.000000,2208.000000) scale(0.100000,-0.100000)"
fill="#000000" stroke="none">
<path d="M5710 18062 c0 -50 13 -54 276 -83 731 -83 985 -159 1180 -353 212
-212 299 -535 346 -1291 19 -306 19 -8148 0 -8435 -40 -605 -108 -887 -266
-1096 -102 -137 -275 -237 -512 -299 -192 -50 -368 -75 -1089 -152 -68 -8 -70
-9 -88 -45 -11 -23 -16 -46 -12 -59 6 -19 12 -20 73 -15 199 18 1005 59 1602
81 643 23 1883 55 2184 55 l88 0 -6 -213 c-26 -843 -78 -1208 -208 -1472 -81
-163 -176 -260 -334 -339 -180 -90 -430 -139 -934 -183 -219 -19 -232 -23
-246 -78 -13 -53 -12 -53 207 -29 1053 115 2138 142 3244 81 759 -43 979 -50
1335 -44 424 7 653 30 1015 102 1074 215 1945 758 2461 1534 279 418 443 876
505 1411 18 159 16 511 -5 655 -74 517 -287 956 -644 1327 -252 261 -515 449
-867 619 -570 275 -1184 410 -1977 435 -165 5 -228 10 -228 19 0 7 30 17 73
25 134 23 387 91 549 146 537 185 989 462 1363 838 227 228 383 441 510 697
133 268 194 502 202 775 16 506 -133 990 -426 1381 -87 116 -281 316 -404 414
-216 175 -452 314 -723 427 -430 181 -924 293 -1469 333 -215 16 -903 6 -1480
-20 -790 -36 -1011 -41 -1530 -31 -269 5 -520 12 -557 16 l-68 7 0 336 c0 369
14 828 30 1046 55 706 192 1016 530 1189 203 104 472 161 980 207 129 12 241
23 248 25 14 4 16 42 3 63 -7 11 -49 9 -257 -13 -765 -81 -1625 -113 -2568
-96 -831 15 -1542 55 -1968 110 -113 15 -138 13 -138 -8z m3232 -3063 c304
-154 443 -443 502 -1044 39 -384 39 -424 43 -3812 l4 -3322 -39 13 c-187 66
-328 209 -411 418 -87 215 -135 510 -173 1058 -8 117 -12 1114 -15 3447 l-4
3283 25 -10 c14 -5 45 -19 68 -31z m3076 0 c1328 -95 2072 -738 2242 -1937 63
-445 43 -996 -51 -1380 -115 -471 -343 -810 -709 -1057 -111 -74 -354 -193
-502 -244 -378 -131 -862 -202 -1476 -218 -262 -6 -262 -6 -268 -29 -3 -12 -4
-31 -2 -41 3 -17 26 -18 403 -24 510 -8 810 -36 1173 -110 1143 -231 1907
-803 2246 -1682 76 -196 126 -400 163 -657 25 -175 25 -764 0 -990 -64 -569
-199 -992 -425 -1330 -304 -453 -773 -742 -1430 -880 -303 -63 -569 -89 -1002
-97 -758 -13 -1053 49 -1270 266 -118 119 -189 257 -245 480 -64 255 -115 781
-115 1194 l0 120 338 -7 c559 -11 967 -29 1777 -76 187 -11 474 -23 637 -27
265 -5 305 -4 362 11 77 21 130 63 169 133 80 149 196 724 286 1428 16 126 27
233 24 238 -5 8 -79 4 -88 -5 -2 -1 -22 -84 -45 -183 -122 -522 -250 -725
-545 -869 -377 -184 -1085 -255 -2528 -256 l-398 0 4 3238 c3 2202 8 3312 16
3472 30 631 66 1004 131 1353 20 103 25 120 45 127 22 8 235 37 325 43 113 8
626 6 758 -4z"/>
</g>
</svg>
